<?xml version="1.0" encoding="utf-8"?>
<!-- Generator: Adobe Illustrator 22.0.1, SVG Export Plug-In . SVG Version: 6.00 Build 0)  -->
<svg version="1.1" id="레이어_1" xmlns="http://www.w3.org/2000/svg" xmlns:xlink="http://www.w3.org/1999/xlink" x="0px"
	 y="0px" viewBox="0 0 300 300" style="enable-background:new 0 0 300 300;" xml:space="preserve">
<style type="text/css">
	.st0{fill:#FFE812;}
</style>
<title>무제-1</title>
<path class="st0" d="M300,276.6c0,12.9-10.5,23.4-23.4,23.4c0,0,0,0,0,0H23.4C10.5,300,0,289.5,0,276.6c0,0,0,0,0,0V23.4
	C0,10.5,10.5,0,23.4,0c0,0,0,0,0,0h253.1C289.5,0,300,10.5,300,23.4c0,0,0,0,0,0V276.6z"/>
<path d="M150,67c-52.5,0-95,33.5-95,74.9c0,26.7,17.8,50.2,44.5,63.5c-1.5,5-9.4,32.3-9.7,34.4c0,0-0.2,1.6,0.9,2.2
	c0.7,0.4,1.5,0.4,2.3,0.1c3-0.4,34.7-22.7,40.1-26.5c5.6,0.8,11.2,1.2,16.9,1.2c52.5,0,95-33.5,95-74.9S202.5,67,150,67z"/>
<path class="st0" d="M97.5,168c-2.9,0-5.4-2.3-5.5-5.2v-32.6h-8.6c-3,0.1-5.5-2.2-5.6-5.2c-0.1-3,2.2-5.5,5.2-5.6c0.1,0,0.3,0,0.4,0
	h28.1c3-0.1,5.5,2.2,5.6,5.2c0.1,3-2.2,5.5-5.2,5.6c-0.1,0-0.3,0-0.4,0h-8.6v32.6C102.9,165.7,100.4,168.1,97.5,168z M145.5,168
	c-2.3,0-4-0.9-4.6-2.4l-2.7-7.1h-16.7l-2.7,7.1c-0.5,1.5-2.3,2.4-4.6,2.4c-1.2,0-2.4-0.3-3.5-0.8c-1.5-0.7-3-2.6-1.3-7.8l13.1-34.5
	c1.2-4,5.5-6.3,9.5-5.1c2.4,0.7,4.4,2.7,5.1,5.1l13.1,34.5c1.7,5.2,0.2,7.1-1.3,7.8C147.9,167.7,146.7,167.9,145.5,168L145.5,168z
	 M135.4,148.7l-5.5-15.6l-5.5,15.6H135.4z M159.2,167.2c-2.8,0.1-5.2-2.2-5.3-5V125c0-3.1,2.5-5.6,5.6-5.6s5.6,2.5,5.6,5.6l0,0v32.2
	h11.6c2.8-0.1,5.1,2.1,5.2,4.8s-2.1,5.1-4.8,5.2c-0.1,0-0.3,0-0.4,0H159.2z M189.6,168c-3,0-5.5-2.4-5.5-5.5V125
	c0-3,2.5-5.5,5.5-5.5s5.5,2.5,5.5,5.5v11.8l15.3-15.3c0.8-0.8,1.9-1.2,3-1.2c2.8,0.1,5.2,2.3,5.4,5.1c0.1,1.2-0.3,2.5-1.2,3.3
	l-12.5,12.5l13.5,17.9c1.8,2.4,1.4,5.8-1,7.6c0,0,0,0,0,0c-0.9,0.7-2.1,1.1-3.3,1.1c-1.7,0-3.3-0.8-4.4-2.2l-12.8-17l-1.9,1.9v12
	C195.1,165.5,192.6,167.9,189.6,168L189.6,168z"/>
</svg>
