<?xml version="1.0" encoding="utf-8"?>
<!-- Generator: Adobe Illustrator 24.0.3, SVG Export Plug-In . SVG Version: 6.00 Build 0)  -->
<svg version="1.1" id="_x32_71e5882-3c8d-41ed-8a0a-1cb2b4d0cbc1"
	 xmlns="http://www.w3.org/2000/svg" xmlns:xlink="http://www.w3.org/1999/xlink" x="0px" y="0px" viewBox="0 0 1137.7 859.7"
	 style="enable-background:new 0 0 1137.7 859.7;" xml:space="preserve">
<style type="text/css">
	.st0{opacity:0.1;fill:#00B0FF;enable-background:new    ;}
	.st1{fill:url(#SVGID_1_);}
	.st2{fill:#D38884;}
	.st3{fill:#444053;}
	.st4{fill:#B07473;}
	.st5{opacity:0.1;enable-background:new    ;}
	.st6{fill:#00B0FF;}
	.st7{fill:#67647E;}
	.st8{fill:#585268;}
	.st9{fill:#E1E7EF;}
	.st10{fill:url(#SVGID_2_);}
	.st11{fill:#A27772;}
	.st12{fill:#CC818C;}
	.st13{opacity:0.1;}
	.st14{fill:#F6F8FB;}
	.st15{fill:url(#SVGID_3_);}
	.st16{fill:#65617D;}
	.st17{fill:#FBBEBE;}
	.st18{opacity:5.000000e-02;enable-background:new    ;}
	.st19{fill:#7C5C5C;}
	.st20{fill:url(#SVGID_4_);}
	.st21{fill:#FDC2CC;}
	.st22{fill:#D39999;}
	.st23{fill:#7E5659;}
	.st24{fill:#865A61;}
	.st25{opacity:5.000000e-02;}
</style>
<title>team spirit</title>
<path class="st0" d="M12.3,406.5c18,70.1,56.1,130.8,116.3,160.2c125.2,61.1,407.5,29.6,618.1-6.6c109-18.7,204.7-70.3,274.3-143
	L12.3,406.5z"/>
<path class="st0" d="M1117,76.3h-115.6c-5.5,0-10-4.1-10-9.1s4.5-9.1,10-9.1h20c-5.5,0-10-4.1-10-9.1s4.5-9.1,10-9.1h-14.3
	c-5.5,0-10-4.1-10-9.1s4.5-9.1,10-9.1h60.3c-13.4-5.7-29-9.7-47.1-11.8c-164.5-19.3-223.2-6.5-244,6.6c-25.8,16.5-54.5,28-84.5,33.8
	c-101.5,19.1-291.3,42.1-463.4-7.4C143,18.3,79.5,59.9,41.4,129.2h1095.7c-1.4-20.2-5.7-38.8-13.6-55.1
	C1121.7,75.5,1119.4,76.3,1117,76.3z"/>
<path class="st0" d="M2.5,260.1c-4.4,40.8-2.9,82,4.5,122.4l1014.9,33.8c28-29.2,51.7-62.2,70.5-98L2.5,260.1z M403.8,347.4h-20
	c5.5,0,10,4.1,10,9.1c0,5-4.5,9.1-10,9.1H268.3c-5.5,0-10-4.1-10-9.1s4.5-9.1,10-9.1h20c-5.5,0-10-4.1-10-9.1c0-5,4.5-9.1,10-9.1
	H274c-5.5,0-10-4.1-10-9.1s4.5-9.1,10-9.1h115.6c5.5,0,10,4.1,10,9.1c0,5-4.5,9.1-10,9.1h14.2c5.5,0,10,4.1,10,9.1
	C413.8,343.3,409.4,347.4,403.8,347.4z"/>
<path class="st0" d="M1137.2,129.8l-1108,24.6C15.7,186,6.7,221.7,2.6,258.7h1115.1c7.3-21.7,12.6-43.9,16.1-66.5
	C1137.2,170.4,1138.5,149.4,1137.2,129.8z M227.6,210.3h-20c5.5,0,10,4.1,10,9.1s-4.5,9.1-10,9.1H92c-5.5,0-10-4.1-10-9.1
	s4.5-9.1,10-9.1h20c-5.5,0-10-4.1-10-9.1s4.5-9.1,10-9.1H97.7c-5.5,0-10-4.1-10-9.1s4.5-9.1,10-9.1h115.6c5.5,0,10,4.1,10,9.1
	s-4.5,9.1-10,9.1h14.3c5.5,0,10,4.1,10,9.1S233.1,210.3,227.6,210.3z"/>
<ellipse class="st0" cx="664.3" cy="749.9" rx="75.2" ry="16.9"/>
<ellipse class="st0" cx="839.2" cy="803.6" rx="135.7" ry="11.1"/>
<ellipse class="st0" cx="294.2" cy="786.7" rx="135.7" ry="16.9"/>
<ellipse class="st0" cx="501.1" cy="702.1" rx="102.1" ry="16.9"/>
<linearGradient id="SVGID_1_" gradientUnits="userSpaceOnUse" x1="512.7875" y1="129.55" x2="512.7875" y2="720.6854" gradientTransform="matrix(1 0 0 -1 -31.16 839.86)">
	<stop  offset="0" style="stop-color:#808080;stop-opacity:0.25"/>
	<stop  offset="0.54" style="stop-color:#808080;stop-opacity:0.12"/>
	<stop  offset="1" style="stop-color:#808080;stop-opacity:0.1"/>
</linearGradient>
<path class="st1" d="M577.5,300.3c-2.2-14.5-15.4-48.5-15.4-48.5l0,0c-0.2-1-0.5-2-0.8-3c-9.4-32.2-22.3-35-22.3-35l-46.5-10
	c0.4,0.2,0.7,0.6,1,0.9c-0.2,0-0.5,0.1-0.7,0.1c-2.1-2.5-3.5-5.6-4.1-8.8c-0.1-0.5-0.2-1-0.2-1.5c12.9-12.6,13.2-33.3,0.6-46.2
	c-1-1-2.1-2-3.3-2.9c-0.5-0.4-1-0.8-1.5-1.1c2.2-2.3,2.3-5.6,0.6-8.8c-3.7-7.6-11.6-12.4-19.8-14.8c-6.2-1.8-13-2.4-19.2-0.4
	c-3.5,1.1-6.8,3-10.1,4.7c-6.2,3.1-13,5.5-17.6,10.6c-1.1,1.2-2.1,2.7-1.8,4.2c0.2,1.2,1.2,2.1,1.8,3.1c1.3,2.3,1,5.2,0.1,7.7
	s-2.2,4.9-2.9,7.4s-0.4,5.6,1.5,7.5c0.9,0.7,1.9,1.4,2.9,2c1.1,0.9,2,2,2.8,3.1c1.8,2.5,3.7,4.9,5.5,7.4c2.6,3.3,4.9,6.8,6.9,10.5
	c1.4,2.7,2.4,5.6,4.3,8c0.5,0.7,1.2,1.4,1.8,1.9l-0.5-0.2c1.6,1.6,3.8,2.5,6.1,2.5l0,0c0.1,0,0.2,0,0.3,0c0.4,0,0.8-0.2,1.1-0.5
	c0,0.3,0,0.7,0,1c0.1,3.6,0.1,7.4-0.2,10.9l-0.4-0.2c-1.3-0.6-2.9-0.5-4,0.4l-42.8,34.3c0,0-9.3,12.7-8,34.7l-7.5,32.9
	c0,0-9.4,27.9-2.2,47.9s11.4,31.4,11.4,31.4s2.9,22.7,7.2,24.5s6.2,2.8,6.2,2.8l0.9,5.4l0,0c0,0,0.3,0.5,0.8,1.4
	c3.1,5.5,14.8,24.8,21.6,22.8c0.9,5.3,1.2,10.6,1.1,15.9l6.7,45c0,0,4.7,12.2,4.4,18.7s5.5,15.6,5.5,15.6c-3.5,6.4-4.5,13.8-2.9,21
	c2.7,12,6.2,67.3,6.2,67.3l5,13.4l-0.1,15.7c-0.4,2.6-1.5,5-3.1,7c-3.2,3.5-3,7.6-10.8,12.4s-12.8,6.6-12.8,13
	c0,0.9-0.1,1.8-0.2,2.7c-0.7,4.7-2.1,7.2,12.2,8.6c16.9,1.6,28.1-9.4,28.1-9.4s2.5-4.5,14.2-6.3c0,0,4-0.2,4.2-3.7
	c0.1-1.2,0.1-3.5,0-6.1c-0.2-4.9-0.7-10.6-1.3-10.9c-0.8-0.3-2.1-5.3-2.6-7h3.2c0,0,3-22.7,0-37.3s-0.3-25.1-0.3-25.1l-0.6-38.8
	c0,0-4-4.3-0.9-11.8s0-44.9,0-44.9s1.2-13.4,4.5-16.5c3.3-3.1,0.2-19.6,0-20.5l5.9,19.8c0,0,2.6,39.3,8.1,46.5l1.6,17.8
	c0,0,11.2,16.4,9.1,25.2s2.3,40.8,2.3,40.8v32.7c0,0-5,13.1,2,17.8l3-0.1c-1,0.9-1.8,2.3-2.9,3.5c-1.3,1.4-2.1,6.7-2.5,11.2
	c-0.4,3.8-0.5,7.2-0.5,7.2s3,4.8,8.7,5.1s24.3,14.5,24.3,14.5s18.4,0,23.2-1l0.3-0.1c1.5-0.5,2.8-1.5,3.6-2.9c1-1.6,1.3-3.5,0.9-5.4
	c-0.6-2.8-2.8-5.9-7.8-8.5c-12.3-6.5-14.1-12.5-14.1-12.5l-8.1-12.1h1.2c0,0-0.7-12.8,8.1-27.2l-0.6-63.4c0,0,3.6-21.8-2.6-33.7
	c0,0-0.5-12.5,3.6-16.4s-5.5-42.8-5.5-42.8s-2-20.9-4.3-40l0,0c9.7,9.2,19.8-24,21.5-29.9h0.2l-0.1-0.4c0.1-0.3,0.1-0.4,0.1-0.4l0,0
	c0,0-2.2-7.7-0.6-6.1s5.5-4.3,5.5-4.3s-0.6-31.8,6.2-47.8C587.3,339.3,577.5,300.3,577.5,300.3z M548.5,320.6L548.5,320.6
	c1,19.3-0.1,60.7-0.1,60.7s-1.3,5.3-2.8,11.6l-1-39.3l0,0l-1-37.1L548.5,320.6z M424.4,307.2c0,0,4.9,61.3,0,70.1
	c-1.4,2.5-2.6,7-3.5,12.1c-1.6-4.2-5-14.2-3.8-19.5c1.6-6.8-3.2-24.8-3.2-25.2c0-0.4-0.4-10,3-17.3s1.2-10.5,1.2-10.5
	S420.9,304.9,424.4,307.2z"/>
<path class="st2" d="M436.3,445.2c-4.3,18.8-21.2-9.6-25.1-16.4c-0.5-0.9-0.8-1.4-0.8-1.4l1.8-8.6l9.7-4c1.5,0.8,3,1.8,4.4,2.8
	C431.6,421.8,439.6,430.7,436.3,445.2z"/>
<path class="st2" d="M568,414.5c0,0,0,0.1-0.1,0.4c0,0.1-0.1,0.3-0.1,0.5c-1.7,5.9-11.6,38.9-21.1,29.7c-10.5-10-5.4-33.1-5.4-33.1
	h0.1l22-2.2l4.4,4.5l0,0L568,414.5z"/>
<path class="st3" d="M555.3,576.9l0.6,63c-8.6,14.3-7.9,27-7.9,27l-28.4,1.1c-6.9-4.7-2-17.7-2-17.7v-32.4c0,0-4.4-31.7-2.3-40.5
	s-8.9-25-8.9-25l-1.6-17.7c-5.4-7.1-7.9-46.1-7.9-46.1l-5.8-19.7c0.2,0.9,3.2,17.3,0,20.3c-3.2,3-4.4,16.4-4.4,16.4s3.1,37.1,0,44.6
	s0.8,11.8,0.8,11.8l0.6,38.5c0,0-2.7,10.3,0.3,24.9s0,37.1,0,37.1h-30.5l0.1-15.7l-4.9-13.3c0,0-3.4-54.9-6.1-66.8
	c-1.6-7-0.6-14.4,2.8-20.8c0,0-5.6-9-5.4-15.4s-4.4-18.5-4.4-18.5l-6.6-44.7c0.2-8.6-0.9-17.2-3.3-25.5c-3.8-12.7-9.5-29.4-9.5-29.4
	l6.4,0.6l32.2,2.9c0,0,78.4-5.3,81.9-0.9c0.7,1.4,1.2,3,1.5,4.6c3.5,15.8,8.2,65.3,8.2,65.3s9.5,38.6,5.4,42.4s-3.6,16.3-3.6,16.3
	C558.8,555.2,555.3,576.9,555.3,576.9z"/>
<path class="st4" d="M489,686.3c-0.2,3.5-4.1,3.7-4.1,3.7c-11.5,1.8-13.9,6.3-13.9,6.3s-11,10.9-27.6,9.3c-14.1-1.4-12.7-3.9-12-8.5
	c0.1-0.9,0.2-1.7,0.2-2.6c0-6.4,4.9-8.2,12.5-13s7.4-8.8,10.6-12.3s3.5-10.3,3.5-10.3c3.6-6.3,12.7,1,12.7,1c0.4,2.2,14,1.9,14,1.9
	s1.8,7.2,2.7,7.6c0.6,0.3,1.1,5.9,1.2,10.8C489.1,682.8,489.1,685.1,489,686.3z"/>
<path class="st5" d="M489,686.3c-0.2,3.5-4.1,3.7-4.1,3.7c-11.5,1.8-13.9,6.3-13.9,6.3s-11,10.9-27.6,9.3c-14.1-1.4-12.7-3.9-12-8.5
	c6.3,1.6,18.3,3.7,25.4-0.1c9.8-5.3,16.8-9,16.8-9l15.4-7.8C489.1,682.8,489.1,685.1,489,686.3z"/>
<path class="st4" d="M575.4,705.2c-0.8,1.4-2,2.4-3.5,2.9l-0.3,0.1c-4.7,1-22.7,1-22.7,1s-18.2-14.1-23.8-14.4s-8.5-5.1-8.5-5.1
	s0.1-3.3,0.5-7.1c0.4-4.5,1.2-9.8,2.5-11.2c2.4-2.5,3-6,8.5-3.8c0,0,7.8-13.8,17.1-3.1l9.6,14.5c0,0,1.8,6,13.9,12.5
	c4.8,2.6,7,5.7,7.6,8.5C576.6,701.7,576.3,703.6,575.4,705.2z"/>
<path class="st5" d="M575.4,705.2c-1.1,0.9-2.3,1.9-3.5,2.9l-0.3,0.1c-4.7,1-22.7,1-22.7,1s-18.2-14.1-23.8-14.4s-8.5-5.1-8.5-5.1
	s0.1-3.3,0.5-7.1c5.6,1.7,14.1,4.7,16.4,7.8c3.5,4.9,14.1,11.7,14.1,11.7s19.8-1.9,28.6-2.2C576.6,701.7,576.3,703.6,575.4,705.2z"
	/>
<path class="st2" d="M498.3,211.4L472.2,239c0,0-31.6-2.3-26.1-11.7c2.8-4.8,3.2-14.7,3-23.4c-0.2-8.4-1.1-15.5-1.1-15.5
	s44.4-22.1,41-1.5c-0.7,3.9-0.8,7.9-0.1,11.8C490.7,209.1,498.3,211.4,498.3,211.4z"/>
<path class="st5" d="M488.9,187c-0.7,3.9-0.8,7.9-0.1,11.8c-6.1,6.2-14.5,9.7-23.2,9.7c-6,0-12.5-4.9-17.3-7.8
	c-0.2-8.4-0.3-12.2-0.3-12.2S492.3,166.4,488.9,187z"/>
<path class="st2" d="M498.3,174c0,18.1-14.6,32.7-32.7,32.7c-18.1,0-32.7-14.6-32.7-32.7c0-18.1,14.6-32.7,32.7-32.7
	c7.4,0,14.6,2.5,20.4,7.1C493.7,154.7,498.3,164.1,498.3,174z"/>
<path class="st5" d="M542.7,419.4c-8.1,19.4-60.5,19.8-60.5,19.8V418l-3.2-0.2c1.4,6-1.9,20.8-1.9,20.8
	c-41.4,5.8-51.5-17.7-51.5-17.7l1.4-8.1l32.2,2.9c0,0,78.4-5.3,81.9-0.9C542,416.2,542.5,417.8,542.7,419.4z"/>
<path class="st6" d="M482.2,436.6v-21.1l-3.2-0.2c1.4,6-1.9,20.8-1.9,20.8c-31.1,4.4-44.6-7.9-49.3-14.2c-0.9-1.1-1.6-2.3-2.2-3.5
	l12.6-71.1l3-104.6l4.5-18.4l1-8.8v-0.1h0.1l3.2,1.4l19.3,8.3l21.9-16.5l0.3-0.2l1.1-0.8l1.8,1.4l4.5,3.6l14.4,93.2
	c0,0,25,71.8,29.7,100.7c0.2,1.2,0.3,2.2,0.5,3.2C546.8,436.1,482.2,436.6,482.2,436.6z"/>
<circle class="st7" cx="471.8" cy="227.1" r="1.9"/>
<circle class="st7" cx="472.7" cy="244.1" r="1.9"/>
<circle class="st7" cx="474.5" cy="271.6" r="1.9"/>
<circle class="st7" cx="477.6" cy="301.2" r="1.9"/>
<circle class="st7" cx="479.5" cy="329" r="1.9"/>
<circle class="st7" cx="481.3" cy="358.6" r="1.9"/>
<circle class="st7" cx="480.6" cy="387.9" r="1.9"/>
<path class="st5" d="M448.1,357.6c0,0-2.1,27.2-5.9,35.1s-5.5,30.1-5.5,30.1l-8.9-1c-0.9-1.1-1.6-2.3-2.2-3.5l12.6-71.1l3-104.6
	l4.5-18.4l1-8.8l0.1-0.1c1-0.5,2.2-0.5,3.2,0.1l0.4,0.2c-0.1,0.4-0.2,0.7-0.4,1.1c-3.5,10.8-4.8,30.8-4.8,30.8s5,36.5,5.5,53.5
	S448.1,357.6,448.1,357.6z"/>
<path class="st5" d="M426.3,417.6c-0.1,0.2-0.2,0.4-0.3,0.7c-3.4,5.8-12.2,9.5-14.8,10.5c-0.5-0.9-0.8-1.4-0.8-1.4l1.8-8.6l9.7-4
	C423.5,415.6,425,416.5,426.3,417.6z"/>
<path class="st7" d="M402.8,278.7l-8.1,4.8l-7.4,32.7c0,0-9.2,27.7-2.1,47.5s11.2,31.1,11.2,31.1s2.8,22.5,7.1,24.3
	c4.2,1.8,6.1,2.8,6.1,2.8l0.9,5.4c0,0,11.5-3.9,15.6-10.8c4.1-6.9-3-24-3-24s-6.1-14.6-4.5-21.4c1.6-6.8-3.1-24.6-3.1-25
	s-0.4-9.9,3-17.2c3.4-7.3,1.1-10.4,1.1-10.4l-2.1-20.8L402.8,278.7z"/>
<path class="st5" d="M543.4,413.2c0,0-21.4,8.1-28.2,1c-6.8-7.1-6.1-40.2-6.1-40.2s-6.5-61.1-10.6-71.2s-2-82.5-2-82.5
	s-2.8-9.4-5.2-11.8c-0.2-0.2-0.3-0.3-0.5-0.4l0.8,0.2l2.9,0.6l4.5,3.6l14.4,93.2c0,0,25,71.8,29.7,100.7L543.4,413.2z"/>
<path class="st5" d="M568,415.4h-0.2c-2.7,0.4-26.4,3.2-26.5-1.7c0-0.6,0-1.1,0.1-1.7l22-2.2l4.4,4.5l0,0c0.1,0.3,0.1,0.5,0.2,0.7
	L568,415.4z"/>
<path class="st7" d="M545.2,245.9l15.6,8.1c0,0,13,33.7,15.1,48.1c0,0,9.6,38.7,3,54.6c-6.6,15.9-6.1,47.5-6.1,47.5
	s-3.8,5.8-5.4,4.2s0.6,6.1,0.6,6.1s-26.7,3.5-26.8-1.7c-0.1-5.2,6.1-30.3,6.1-30.3s1.7-59.6-0.7-68.9
	C544.2,304.3,545.2,245.9,545.2,245.9z"/>
<path class="st5" d="M498.7,309.4c0,0-8.8,21.5-11.6,22.9c-2.8,1.4,0.6,7.1,0.6,7.1S503.6,317,498.7,309.4z"/>
<path class="st5" d="M493.4,234c0.1-0.4-10.5,10.4-13.3,12S490.5,245.9,493.4,234z"/>
<path class="st5" d="M464,307.7c0,0-16.1,10.4-14,14.6S464,307.7,464,307.7z"/>
<path class="st5" d="M493.3,459.9c0,0,13.7,8.8,35.1,11L493.3,459.9z"/>
<path class="st5" d="M460.3,481.2c0,0,12.7,16,18.5,16.4C484.7,498,460.3,481.2,460.3,481.2z"/>
<path class="st5" d="M478.2,543.9c-0.6,0.3-7.2,14.4-14,14.9S478.2,543.9,478.2,543.9z"/>
<path class="st5" d="M537.2,574.9c0,0,12.6-2.8,15.4,6.2C552.6,581,551.8,578.2,537.2,574.9z"/>
<path class="st5" d="M528.7,626.6c0,0,15.3-3.1,18.5,1.1S528.7,626.6,528.7,626.6z"/>
<path class="st5" d="M485.4,633.9c0,0.1-15.6,3.1-15,5.1s16.6,1.7,17.2-1.4C488,635.9,487.1,634.3,485.4,633.9
	C485.5,633.9,485.4,633.9,485.4,633.9z"/>
<path class="st5" d="M523.6,647.3c0,0,25.6-3.1,24,2.3S523.6,647.3,523.6,647.3z"/>
<path class="st5" d="M389.7,332.3c0.1,0.4,16.8,2.7,19.1,8.1c0,0-16.4-7.6-19-7.6"/>
<path class="st5" d="M413.2,376c0,0-13.9,4.4-12.9,11S398.9,384,413.2,376z"/>
<path class="st5" d="M406.8,409.7c0,0,5-6.9,9.9-5.7C421.4,405.3,406.8,409.7,406.8,409.7z"/>
<path class="st5" d="M486,148.5c-0.5,0.5-1,0.9-1.6,1.2c-4,2.3-5.1,5.9-7,10.1c-1.8,3.8-3.7,7.8-7.3,9.9c-4.6,2.8-10.7,1.8-15.5,4.2
	c-4.4,2.3-6.9,6.9-6.4,11.8c0.3,1.8,0.8,3.7,1.4,5.4c1.1,3.8,1.6,7.8,1.5,11.8c0,0.1,0,0.2,0,0.4c-16.1-8.1-22.7-27.7-14.6-43.8
	c8.1-16.1,27.7-22.7,43.8-14.6C482.3,145.8,484.2,147.1,486,148.5L486,148.5z"/>
<path class="st8" d="M485.1,138.6c-3.6-7.5-11.4-12.3-19.4-14.6c-6.1-1.8-12.8-2.4-18.9-0.4c-3.5,1.1-6.6,3-9.9,4.6
	c-6.1,3.1-12.7,5.5-17.3,10.5c-1.1,1.2-2,2.7-1.7,4.2c0.2,1.1,1.1,2,1.7,3.1c1.3,2.3,1,5.2,0.1,7.7s-2.2,4.8-2.8,7.4
	s-0.4,5.6,1.5,7.4c0.9,0.8,1.9,1.3,2.9,2c1,0.9,2,1.9,2.7,3.1l5.4,7.4c2.5,3.3,4.8,6.7,6.8,10.4c1.3,2.7,2.4,5.5,4.2,7.9
	s4.6,4.3,7.6,4.1c0.5,0,0.9-0.2,1.2-0.6c0.1-0.2,0.2-0.5,0.1-0.8c0.1-4-0.4-7.9-1.4-11.7c-0.6-1.8-1.1-3.6-1.4-5.4
	c-0.5-4.9,2.1-9.6,6.4-11.8c4.8-2.4,10.9-1.4,15.5-4.2c3.6-2.2,5.5-6.2,7.3-10c1.9-4.1,3-7.7,7-10.1
	C486.6,146.5,487.1,142.6,485.1,138.6z"/>
<path class="st5" d="M470.5,672.9c0,0,5,6.4,3.7,10S470.5,672.9,470.5,672.9z"/>
<path class="st5" d="M538.1,688.9c0,0,1.1-8.5,5.6-8.6s4.7-0.5,8.1,0.8s6.6,3.3,5.6,3.6s-5.8-4.9-10.8-2.2
	C543.4,684.2,540.6,686.3,538.1,688.9z"/>
<path class="st5" d="M455.5,235.7l14-9.8c0,0-20.5-12.1-22.9-10.4s-4.1,17-4.1,17L455.5,235.7z"/>
<path class="st9" d="M455.5,235.1l14-10c0,0-20.5-12.1-22.9-10.4s-4.1,17.8-4.1,17.8L455.5,235.1z"/>
<path class="st6" d="M455.5,235.1l14-10c0,0-20.5-12.1-22.9-10.4s-4.1,17.8-4.1,17.8L455.5,235.1z"/>
<path class="st7" d="M448.9,214.8l-0.4-0.2c-1.3-0.7-2.8-0.5-3.9,0.4l-42,34.1c0,0-9.1,12.6-7.9,34.4l24.8,35.1
	c0,0,2.8-11.9,6.2-9.6c0,0,4.8,60.8,0,69.6c-4.8,8.8-6.9,41.6-6.9,41.6L435,422c0,0,1.7-22.2,5.5-30.1s5.9-35.1,5.9-35.1
	s3.4-39.6,2.9-56.5c-0.6-17-5.5-53.5-5.5-53.5S445.2,225.3,448.9,214.8z"/>
<path class="st5" d="M490.7,229.5l-17.5-6.5c0,0,22.2-24.3,25-10.8L490.7,229.5z"/>
<path class="st9" d="M490.7,228.7l-17.5-6.5c0,0,22.2-24.3,25-10.8L490.7,228.7z"/>
<path class="st6" d="M490.7,228.7l-17.5-6.5c0,0,22.2-24.3,25-10.8L490.7,228.7z"/>
<path class="st5" d="M490.2,208c0.3,0,0.5,0,0.7,0.2L490.2,208z"/>
<path class="st7" d="M491.8,206.3l46.3,10c0,0,12.7,2.8,21.9,34.8s-12.6,71.2-12.6,71.2l-4.8-4.1l2.4,93.4c0,0-21.4,8.1-28.2,1
	c-6.8-7.1-6.1-40.2-6.1-40.2s-6.5-61.1-10.6-71.2c-4.1-10-2-82.5-2-82.5S494.4,205.7,491.8,206.3z"/>
<path class="st5" d="M534.2,265.8c-0.7,0.6-1.4,28.9,1.4,50.4c1.7,13.1,4.4,26.1,8,38.8l-4.2-86.2
	C539.4,268.8,536.2,264,534.2,265.8z"/>
<path class="st5" d="M528.5,241.5c1.1,0.7,6.1,12.5,3.8,17.3C530.1,263.5,528.5,241.5,528.5,241.5z"/>
<path class="st5" d="M484.8,138.6c-2.3-4.5-5.8-8.2-10.2-10.7c3.2,2.3,5.9,5.4,7.6,9c2,4,1.4,8-2.5,10.2s-5.1,5.9-7,10.1
	c-1.8,3.8-3.7,7.8-7.3,10c-4.6,2.8-10.7,1.8-15.5,4.2c-4.3,2.3-6.9,7-6.4,11.8c0.3,1.8,0.8,3.6,1.4,5.4c1.1,3.8,1.6,7.8,1.5,11.8
	c0,0.3,0,0.5-0.2,0.8c-0.3,0.4-0.7,0.6-1.2,0.6c-1.2,0.1-2.4-0.1-3.5-0.6c1.6,1.6,3.8,2.4,6,2.4c0.6,0.1,1.2-0.4,1.3-1
	c0-0.1,0-0.2,0-0.3c0.1-4-0.4-7.9-1.5-11.8c-0.6-1.8-1.1-3.6-1.4-5.4c-0.5-4.9,2.1-9.6,6.4-11.8c4.8-2.4,10.9-1.4,15.5-4.2
	c3.6-2.2,5.5-6.2,7.3-10c1.9-4.1,3-7.7,7-10.1C486.3,146.6,486.8,142.6,484.8,138.6z"/>
<linearGradient id="SVGID_2_" gradientUnits="userSpaceOnUse" x1="703.4399" y1="78.0765" x2="703.4399" y2="688.8809" gradientTransform="matrix(1 0 0 -1 -31.16 839.86)">
	<stop  offset="0" style="stop-color:#808080;stop-opacity:0.25"/>
	<stop  offset="0.54" style="stop-color:#808080;stop-opacity:0.12"/>
	<stop  offset="1" style="stop-color:#808080;stop-opacity:0.1"/>
</linearGradient>
<path class="st10" d="M769.7,264.2c-13.8-0.3-25.9-10-32.8-21.9c-1.8-2.8-2.9-6-3.3-9.4c0-0.8,0.2-1.5,0.4-2.2
	c0.4-1.1,0.8-2.3,1-3.4c0.1-0.5,0.1-0.9,0-1.4c0,0,0,0,0-0.1c0.3-2.5-1.2-5-3-6.7s-4.2-3-6.1-4.7c-5.9-5.2-7.7-13.5-7.8-21.5v-0.4
	c0.1-3.4,0.3-6.8,0.3-10.2c0-1.9,0-3.9-0.2-5.8c-0.6-4.8-2.4-9.7-6.2-12.8c-9.9-8-26.4,0.3-36.7-7.2c-2.5-1.9-4.5-4.6-7.5-5.3
	c-2.3-0.6-4.6,0.2-6.8,0.9c-7.5,2.5-15.9,5.7-18.8,13c-1.7,4.2-1.2,8.9-2.8,13.1c-1,2.8-2.9,5.3-4.3,7.9c-1.1,2-1.7,4.3-1.6,6.6
	c-0.1,1.2,0,2.4,0.5,3.5c0.5,1.4,1.4,2.6,2.5,3.5c-0.4,0.8-0.9,1.6-1.5,2.3c-1.9,2.4-4.9,4-6.9,6.3c-3.7,4.3-3.6,10.1-1.7,15.2
	s5.1,9.6,7.4,14.5c1,2.1,1.8,4.5,0.8,6.6c-0.7,1.5-2.2,2.6-3.3,3.9c-1.7,1.9-2.7,4.2-3,6.7c-22.5,5.1-22.5,23.2-22.5,23.2l0,0
	l-12.2,30.6c0,0-2,5.1-4.2,12l-14.4-2.6l10,16.7c-1.9,6.8-3.2,13.1-2.8,16.3c0,0-4.5,21,3.5,24.7l17.5,7.9c0.8,0.5,1.6,0.8,2.4,1.1
	l0.7,0.3c0.5,0.3,1.1,0.3,1.6,0h0h0.2c0.3,0,0.7,0,1-0.1c0.4-0.2,0.7-0.5,0.9-1c0,0,0-0.1,0-0.1l5.2-1.5l4.5,5.3
	c2,1.4,4,2.6,5.9,3.7l-6.9,68.4c0,0-1.1,91-4.5,111.7c-1.2,7.7-1.2,12.9-0.8,16.5l-0.1,0.2c0.8,5.8,3,7,3,7v-0.1
	c0,0,0.1,0.1,0.1,0.1c1-2.7,2.2-5.2,3.6-7.7c0,0.5,0,1,0,1.5c-0.1,7.7-0.3,18.5-1.1,25.6c-1.4,12,3.5,51.5,3.5,51.5l1.7,36
	c0.3,6.1-1.1,12.2-4.1,17.5c-4,7.2-9.1,17.3-9.5,21.8c0,0.2,0,0.5,0,0.7l0,0l-8.6,10.3c0,0-3.3,5.2,4.2,7.3c4.1,1.1,11.1,0,16.7-1.3
	c5.1-1.2,8.7-5.7,8.7-10.9c1.4-5,3.8-9.6,7.1-13.6l1.4,8.3l9.4,2.3l1.2-22.7c0.5-1.3,0.7-2.6,0.7-4l0,0c1.9-16.2-4.4-14.7-4.4-14.7
	c0.2,0.1,0.3,0.3,0.3,0.6l-0.3-0.5l0,0c-3.8-7.6-2-20-2-20s5-36,6.7-45.5c1.2-6.7,0.7-28.7,0.3-41c0-0.5,0-1,0-1.5
	c14.6-0.2,32.6-0.7,45.2-1.9v1.5l-2.3,85c-0.2,5.4-1.3,10.8-3.3,15.8c0,0.1-0.1,0.2-0.1,0.3c-2.8,7.1-4.3,14.7-4.6,22.3l-1.1,27v0.8
	l0,0c-1.9,0.7-4.8,2.8-4.9,8.9c-0.1,8.9,15.5,5.9,15.5,5.9c15.6,0,15.8-16.3,15.8-16.3s0.5-14.9,1.2-24.9s-2.4-7.8-2.4-7.8
	l-0.2,28.4c0,0.1,0,0.1,0,0.2V716l0.2-3.6v-0.1l0,0v-0.8l2-29.3c0,0,14.4-48.8,16.6-58.2c1.6-6.7,0.9-26.7,0.4-37.8
	c0-0.5,0-1-0.1-1.5c4.5-0.4,8.4-0.4,10-0.4h0.7c0,0-0.7-78.4-2.6-108s-4.8-56.6-12.3-64.8c-4.5-4.9-10.8-20.1-15-31.4
	c8.9,3.8,18.1,6.9,27.6,9c23.6,4.9,20.4-15.5,20.4-15.5l-2.4-38.7h0.2c-0.1-10.1-1-20.3-2.6-30.3c-1.2-7.7-3.2-15.6-6.1-22
	c2.6-1,5.1-2.1,7.6-3.2c6.4-2.8,13.6-6.8,14.5-13.8h-0.3C769.6,265.3,769.7,264.7,769.7,264.2z M623.5,320.2L623.5,320.2
	c0,4-0.1,10.9-0.3,18.6l-7.5-10l7.5-12.2L623.5,320.2z M727,355.7l-12.5-4c2.2-3.5,4.8-6.7,7.7-9.5l1.1-1l-0.4,0.1l0.6-0.5l0.4-0.1
	l-0.6,0.5l0.7-0.1c0.8,3.1,2.2,6.1,4.2,8.5C732.7,354.4,727,355.7,727,355.7L727,355.7z"/>
<polygon class="st11" points="651.2,715.7 649.7,743.3 640.4,741 638.4,729.5 "/>
<polygon class="st5" points="651.2,715.7 649.7,743.3 640.4,741 638.4,729.5 "/>
<path class="st12" d="M685.3,747l14.2,2.9l10.5-9.3v-26.2l0.2-3.6v-0.1l0,0V710l2-29.1c0,0,14.2-48.5,16.4-57.8
	c1.6-6.6,0.9-26.5,0.4-37.5c-0.2-4.5-0.4-7.5-0.4-7.5l-31.3-7.6l-0.7,24.1l-2.3,84.4c-0.2,5.4-1.2,10.7-3.2,15.7l-0.1,0.3
	c-2.7,7.1-4.3,14.5-4.5,22.1l-1.1,26.8v0.7L685.3,747z"/>
<path class="st5" d="M710.3,710v0.7l0,0V710L710.3,710z"/>
<path class="st5" d="M685.3,747l14.2,2.9l10.5-9.3v-2.2c-0.1,1-0.6,1.9-1.5,2.4l-0.2,0.1c-4.9,2.6-10.4,3.7-15.9,3.2l-5.5-0.5
	c-0.5,0-1,0.2-1.5,0.4v0.7L685.3,747z"/>
<path class="st4" d="M708.4,741.6l0.2-0.1c0.9-0.5,1.5-1.5,1.5-2.6l0.2-28.2c0,0,3.1-2.2,2.3,7.7s-1.2,24.7-1.2,24.7
	s-0.1,16.2-15.5,16.2c0,0-15.4,2.9-15.3-5.9s6.4-9.2,6.4-9.2l5.5,0.5C698,745.3,703.5,744.2,708.4,741.6z"/>
<path class="st12" d="M611.4,741c0.4,6.4,19.1,2.7,19.1,2.7l12.6-24.5c0,0,10.5-8.1,5.3-15.2c-0.3-0.4-0.5-0.8-0.8-1.2
	c0,0,0,0,0-0.1l0,0c-0.1-0.2-0.2-0.4-0.3-0.6l0,0c-3.8-7.5-1.9-19.8-1.9-19.8s4.9-35.8,6.6-45.2c1.2-6.7,0.7-28.5,0.3-40.7
	c-0.2-5.1-0.3-8.5-0.3-8.5l-31.1-8.3c0,0,0,3.9,0,9.3c-0.1,7.7-0.3,18.4-1.1,25.4c-1.3,11.9,3.4,51.2,3.4,51.2l1.7,35.8
	c0.3,6.1-1.1,12.1-4,17.4c-3.9,7.1-9,17.2-9.3,21.7C611.4,740.5,611.4,740.8,611.4,741z"/>
<path class="st5" d="M611.4,741c0.4,6.4,19.1,2.7,19.1,2.7l12.6-24.5c0,0,10.5-8.1,5.3-15.2c-0.3-0.4-0.5-0.8-0.8-1.2
	c-0.2,3.7-4.2,13-4.2,13s-10.4,20.8-13.7,25.6s-17.7-0.9-18.2-1.1C611.3,740.6,611.3,740.8,611.4,741z"/>
<path class="st4" d="M647.2,702.2c0,0,6.2-1.4,4.3,14.6l0,0c0.1,3.7-1.7,7.2-4.9,9.2c-4.4,2.8-11.2,8.7-14.7,20.3l0,0
	c0,5.1-3.5,9.6-8.5,10.8c-5.6,1.3-12.5,2.4-16.5,1.3c-7.5-2.1-4.2-7.2-4.2-7.2l8.6-10.2c0,0,14.9,5.9,18.2,1.1s13.7-25.6,13.7-25.6
	S649,703.5,647.2,702.2z"/>
<path class="st5" d="M697.3,573.4l-0.7,24.1c8.3-0.8,14.3-1.9,15.3-3.5c2.2-3.4,10.2-4.9,17-5.5c-0.2-4.5-0.4-7.5-0.4-7.5
	L697.3,573.4z"/>
<path class="st5" d="M620.8,591.9c0.8-1.6,2-3.1,3.4-4.1c3.3-1.8,2.9,11.8,2.9,11.8s11,0.1,25-0.1c-0.2-5.1-0.3-8.5-0.3-8.5
	l-31.1-8.3C620.8,582.6,620.8,586.4,620.8,591.9z"/>
<path class="st3" d="M617.2,595.1c0,0,3.7-10,7-11.8s2.9,11.8,2.9,11.8s80.8,0.7,84.9-5.5s27.5-5.9,27.5-5.9s-0.7-77.9-2.6-107.3
	s-4.8-56.2-12.1-64.3c-4.8-5.2-11.5-22.2-15.7-33.4c-2.3-6.2-3.8-10.7-3.8-10.7l-77.1,4.4l-0.6,6.2l-8.2,81.9
	c0,0-1.1,90.4-4.4,110.9S617.2,595.1,617.2,595.1z"/>
<g class="st13">
	<path d="M705.8,589.5c4-6.2,27.5-5.9,27.5-5.9s-0.7-77.9-2.6-107.3s-4.8-56.2-12.1-64.3c-4.8-5.2-11.5-22.1-15.7-33.4
		c-1.9-5.2-3.3-9.2-3.7-10.3l6-0.3c0,0,1.5,4.5,3.8,10.6c4.2,11.3,10.9,28.2,15.7,33.4c7.3,8.1,10.3,34.9,12.1,64.3
		s2.6,107.3,2.6,107.3s-23.5-0.4-27.6,5.9c-3.5,5.3-62.9,5.6-80.2,5.5C653.8,595,702.6,594.4,705.8,589.5z"/>
	<path d="M618,583.3c1.5-0.8,2.2,1.5,2.6,4.3c-1.3,2.4-2.5,4.9-3.5,7.5c0,0-2.1-1.2-3-7C615.3,586,616.7,584,618,583.3z"/>
</g>
<path class="st8" d="M641.1,179.6c-5.3,7.3,0.1,17.6-5.7,24.7c-1.9,2.3-4.8,4-6.8,6.3c-3.7,4.3-3.5,10.1-1.7,15.1s5,9.6,7.3,14.4
	c1,2.1,1.7,4.5,0.7,6.6c-0.7,1.5-2.2,2.6-3.3,3.8c-3.7,4.1-3.8,9.8-1.8,14.7c2,4.8,5.8,9,9.5,13.1c1.5,1.6,3.3,3.4,5.8,3.3
	c1.3-0.1,2.5-0.5,3.6-1.2c17.6-9,25-30.3,16.8-48.3c-3.1-7.4-8.3-14.6-8.3-22.4c0-6.2,3.2-12.2,3.8-18.4c0.7-7.5-3.8-19.5-12.9-22.8
	C648.8,173.4,643.8,175.9,641.1,179.6z"/>
<path class="st5" d="M641.1,179.6c-5.3,7.3,0.1,17.6-5.7,24.7c-1.9,2.3-4.8,4-6.8,6.3c-3.7,4.3-3.5,10.1-1.7,15.1s5,9.6,7.3,14.4
	c1,2.1,1.7,4.5,0.7,6.6c-0.7,1.5-2.2,2.6-3.3,3.8c-3.7,4.1-3.8,9.8-1.8,14.7c2,4.8,5.8,9,9.5,13.1c1.5,1.6,3.3,3.4,5.8,3.3
	c1.3-0.1,2.5-0.5,3.6-1.2c17.6-9,25-30.3,16.8-48.3c-3.1-7.4-8.3-14.6-8.3-22.4c0-6.2,3.2-12.2,3.8-18.4c0.7-7.5-3.8-19.5-12.9-22.8
	C648.8,173.4,643.8,175.9,641.1,179.6z"/>
<path class="st5" d="M700.3,444.4c-10.7,0.6-20.8,5.2-30.1,10.4c-9.4,5.2-18.4,11.1-28.5,14.8"/>
<path class="st5" d="M693.7,469.6c-10.6,1-20.4,5.8-27.8,13.5c-2.6,2.8-4.8,5.8-7.5,8.5c-4.1,4-9.3,7-14.9,8.4"/>
<path class="st5" d="M695.8,488.8c-8.5,2.4-16.2,7-22.3,13.5c-1.6,1.8-3.1,3.7-4.8,5.4c-8.8,9.5-21.3,14.5-33.4,19.3"/>
<path class="st12" d="M694.9,222.9c0.2,8.5,1,17.1,2.2,25.5c1,6,2.4,11.4,4.4,13.8c5.9,7-28.7,16.4-28.7,16.4l-20.4-15.8
	c0,0,16.2-14.9,8.6-29.4S694.9,222.9,694.9,222.9z"/>
<path class="st5" d="M627.6,378.7h81.5c-2.3-6.2-3.8-10.6-3.8-10.6l-77.1,4.4L627.6,378.7z"/>
<path class="st6" d="M622.4,377.2h87.2c-2.5-8.8,0-16.9,3.5-23.1c2.4-4.4,5.5-8.4,9.1-11.8l0.6-0.5l30.4-6.7l1.6-0.4
	c0,0,0.2-55.3-19.3-63c-19.6-7.6-31.3-17.9-31.3-17.9l-26.9,8.3l-19.8-10c-6.4,6.9-23.3,4.2-23.3,4.2c-27.7,3.2-27.7,24-27.7,24
	s16.2,37.7,17.4,37.7S622.4,377.2,622.4,377.2z"/>
<path class="st5" d="M652.5,342c0,0-17.8-3.9-23.8-10.8"/>
<path class="st5" d="M742.1,321.4l-20.6,16.9c0.1,1.3,0.4,2.7,0.7,4l0.6-0.5l30.4-6.7L742.1,321.4z"/>
<path class="st5" d="M686.3,371.3c0,0,4.5,2.5,11.4,5.9h11.8c-2.5-8.8,0-16.9,3.5-23.1l-20.9-6.8
	C699.3,353.9,686.3,371.3,686.3,371.3z"/>
<path class="st6" d="M618.7,273.6l-12.2,6.6l-12,30.4c0,0-12.5,33.3-11.3,42.1c0,0-4.4,20.8,3.4,24.5l20.4,9.2c1,0.4,2.1,0,2.5-1
	c0.2-0.5,0.2-1.1-0.1-1.6c-2.9-5.5-6.1-14.1-1-18.9l-5.9-12.2l21.2-34.8l7.1-12L618.7,273.6z"/>
<path class="st5" d="M645.9,335.1c1.1,4.3,4.6,11,16.5,13.5l13,10.6l13.8,6.3l5.6,2.5l2.4-17.3l-5.4-3l-6.3-3.5
	c0,0-14.3-25.9-36.9-15C646.5,330.3,645.3,332.7,645.9,335.1z"/>
<path class="st12" d="M646.7,333.6c1.1,4.3,4.6,11,16.5,13.5l13,10.7L690,364l5.6,2.5l2.4-17.3l-5.4-3l-6.3-3.4
	c0,0-14.3-25.9-36.9-15C647.3,328.9,646.1,331.3,646.7,333.6z"/>
<circle class="st5" cx="672.2" cy="213.7" r="31.6"/>
<circle class="st12" cx="672.2" cy="213" r="31.6"/>
<path class="st5" d="M691.7,280.5l-9.5-18.5c0,0,13.9-5.6,14.9-12.1c1-6.5,13.3,7.6,10.7,12.3S691.7,280.5,691.7,280.5z"/>
<path class="st6" d="M691.7,279l-9.5-18.5c0,0,13.9-5.6,14.9-12.1s13.3,7.6,10.7,12.3S691.7,279,691.7,279z"/>
<path class="st14" d="M614,326.7l52.5,70.6c0,0-19.3,10.5-46-8.3L609,375.2l-32.9-55.4L614,326.7z"/>
<path class="st12" d="M603.6,365.1l4.8-0.1c0,0,29.2-28.3,36.4-14c7.2,14.3-18.2,27.7-18.2,27.7l-7.7,4.2l-10,3l-6.4-8.6
	L603.6,365.1z"/>
<path class="st5" d="M610.7,380.4c0.4,1.6,0.9,3.4,0.1,4.9c-0.2,0.4-0.5,0.7-0.9,1c-0.3,0.1-0.7,0.2-1,0.1c-2.5-0.2-4.9-1.4-6.6-3.3
	c-1.7-1.9-3.1-3.9-4.3-6.2c-1.3-2.3-2.7-4.8-2.2-7.4c0.5-2.8,3-4.8,5.4-6.3c4.8-3.2,5,0.5,6.1,4.7S609.6,376.2,610.7,380.4z"/>
<path class="st6" d="M610,380.4c0.4,1.6,0.9,3.4,0.1,4.9c-0.2,0.4-0.5,0.7-0.9,1c-0.3,0.1-0.7,0.2-1,0.1c-2.5-0.2-4.9-1.4-6.6-3.3
	c-1.7-1.9-3.1-3.9-4.3-6.2c-1.3-2.3-2.7-4.8-2.2-7.4c0.5-2.8,3-4.8,5.4-6.3c4.8-3.2,5,0.5,6.1,4.7S608.8,376.2,610,380.4z"/>
<polygon class="st5" points="623.8,317.9 626.3,313.8 624.2,321.5 "/>
<path class="st5" d="M690,364l5.6,2.5l2.4-17.3l-5.4-3C696.4,350.6,693.1,358.5,690,364z"/>
<path class="st5" d="M712.6,344c0,0-18.2,1.1-25.9-3.9"/>
<g class="st13">
	<path d="M710.4,355.6c2.4-4.4,5.5-8.4,9.1-11.8c0.9-0.5,1.8-1,2.7-1.5l28.3-5.8l1.6-0.4c0,0,0.2-55.3-19.3-63
		c-11-4.2-21.3-10-30.6-17.2l2.2-0.7c0,0,11.8,10.3,31.3,17.9c19.6,7.6,19.3,63,19.3,63h-2.9l-29,5.5c0,0-1.2,1.2-1.6,1.6
		c-3.6,3.6-6.8,7.8-9.3,12.3c-3.8,7.1-4.7,15.5-2.4,23.2h-3C704.4,369.9,706.9,361.8,710.4,355.6z"/>
	<path d="M633,257.9c0.5-0.1,0.9-0.1,1.4-0.2c2,0.3,4,0.4,6,0.5C637.9,258.2,635.4,258.1,633,257.9z"/>
	<path d="M674.5,263.6l-17.9-9.1c0.4-0.3,0.7-0.6,1-1l18.7,9.5L674.5,263.6z"/>
</g>
<path class="st6" d="M742.8,319.9l12,14.7l2.5,39.9c0,0,3.2,20.3-20.1,15.4c-23.3-4.9-50.2-20-50.2-20s13-17.4,5.9-24l33.3,10.8
	c0,0,5.6-1.2,1.2-6.1c-4.4-4.9-5.2-13.7-5.2-13.7L742.8,319.9z"/>
<path class="st5" d="M748.3,362l6.6,7.6C751.4,368.6,748.8,365.6,748.3,362z"/>
<polygon class="st5" points="737,360.8 747.3,374 742.1,375.2 "/>
<path class="st5" d="M634.4,198.5c-1.1-2.8-0.3-6,1.1-8.6s3.2-5.1,4.2-7.9c1.5-4.2,1-8.9,2.7-13c2.9-7.2,11.2-10.5,18.6-13
	c2.2-0.7,4.5-1.5,6.8-0.9c3,0.7,5,3.4,7.4,5.3c10.1,7.5,26.4-0.8,36.2,7.2c3.7,3,5.5,7.9,6.1,12.7s0,9.6-0.1,14.4
	c-0.2,8.4,1.4,17.6,7.7,23.2c1.9,1.7,4.1,2.9,6,4.7s3.3,4.2,3,6.7c-0.2,1.2-0.6,2.3-1,3.4c-1.2,4.4,0.6,9,2.9,13
	c6.8,11.8,18.8,21.5,32.4,21.7c-0.9,6.9-8,10.8-14.3,13.7c-8,3.6-16.5,7.1-25.3,6.7c-8.8-0.4-18-6.1-19.5-14.8c-0.5-3-0.5-6.6-3-8.2
	c-1.6-1-3.6-0.7-5.3-1.4c-2.4-1-3.6-3.7-4.4-6.2c-1.6-5.2-2.5-10.6-2.6-16c-0.1-6.4,0.7-13.5-2.9-18.8c-3.4-4.9-9.4-7.4-13.3-11.9
	c-3.6-4.2-7.5-9.2-13.4-10C656.1,199.2,639.2,210.3,634.4,198.5z"/>
<path class="st8" d="M634.4,197c-1.1-2.8-0.3-6,1.1-8.6s3.2-5.1,4.2-7.9c1.5-4.2,1-8.9,2.7-13c2.9-7.3,11.2-10.5,18.6-13
	c2.2-0.7,4.5-1.5,6.8-0.9c3,0.7,5,3.4,7.4,5.3c10.1,7.5,26.4-0.8,36.2,7.2c3.7,3,5.5,7.9,6.1,12.7s0,9.6-0.1,14.4
	c-0.2,8.4,1.4,17.6,7.7,23.2c1.9,1.7,4.1,2.9,6,4.7s3.3,4.2,3,6.7c-0.2,1.2-0.6,2.3-1,3.4c-1.2,4.4,0.6,9,2.9,13
	c6.8,11.7,18.8,21.5,32.3,21.7c-0.9,6.9-8,10.8-14.3,13.7c-8,3.6-16.5,7.1-25.3,6.6s-18-6.1-19.5-14.8c-0.5-3-0.5-6.6-3-8.2
	c-1.6-1-3.6-0.7-5.3-1.4c-2.4-1-3.6-3.7-4.4-6.2c-1.6-5.2-2.5-10.6-2.6-16c-0.1-6.4,0.7-13.5-2.9-18.8c-3.4-4.9-9.4-7.4-13.3-11.9
	c-3.6-4.2-7.5-9.2-13.4-10C656.1,197.8,639.2,208.9,634.4,197z"/>
<path class="st5" d="M656.8,278.2l18.1-14.7c0,0-12.4-6.7-13.9-12.5c-1.5-5.7-11.4,2.7-10.4,7.9
	C651.7,264.1,656.8,278.2,656.8,278.2z"/>
<path class="st6" d="M657.6,276l18.1-14.7c0,0-12.4-6.7-13.8-12.4s-11.4,2.7-10.4,7.9C652.5,261.9,657.6,276,657.6,276z"/>
<circle class="st5" cx="676.4" cy="273.6" r="1.4"/>
<circle class="st5" cx="676.4" cy="281.6" r="1.4"/>
<circle class="st5" cx="676.4" cy="289.6" r="1.4"/>
<g class="st13">
	<path d="M641.7,176.6c1.4-3.9,1.1-8.3,2.5-12.3c-0.6,0.9-1.1,1.8-1.5,2.8c-1.7,4.1-1.2,8.9-2.7,13l-0.1,0.2
		C640.6,179.2,641.2,177.9,641.7,176.6z"/>
	<path d="M756,275.6c-8,3.6-16.5,7.1-25.3,6.7s-18-6.1-19.5-14.8c-0.5-3-0.5-6.6-3-8.2c-1.6-1-3.6-0.7-5.3-1.4
		c-2.4-1-3.6-3.7-4.4-6.2c-1.6-5.2-2.5-10.6-2.6-16c-0.1-6.4,0.8-13.5-2.9-18.8c-3.4-4.9-9.4-7.4-13.3-11.9
		c-3.6-4.2-7.5-9.2-13.4-10c-8.1-1.1-25,10-29.8-1.8c-0.8-2.2-0.7-4.7,0.3-6.8c-0.3,0.6-0.7,1.2-1,1.8c-1.4,2.7-2.2,5.9-1.1,8.6
		c4.8,11.8,21.7,0.7,29.8,1.8c5.9,0.8,9.8,5.9,13.4,10c3.9,4.5,9.9,7,13.3,11.9c3.7,5.3,2.8,12.3,2.9,18.8c0.1,5.4,1,10.8,2.6,16
		c0.8,2.5,2,5.2,4.4,6.2c1.7,0.7,3.7,0.5,5.3,1.4c2.6,1.6,2.5,5.2,3,8.2c1.6,8.7,10.7,14.3,19.5,14.8s17.3-3.1,25.3-6.6
		c5.8-2.6,12.3-6.2,14-12C765.4,271,760.5,273.6,756,275.6z"/>
</g>
<linearGradient id="SVGID_3_" gradientUnits="userSpaceOnUse" x1="876.0056" y1="32.543" x2="876.0056" y2="620.1619" gradientTransform="matrix(1 0 0 -1 -31.16 839.86)">
	<stop  offset="0" style="stop-color:#808080;stop-opacity:0.25"/>
	<stop  offset="0.54" style="stop-color:#808080;stop-opacity:0.12"/>
	<stop  offset="1" style="stop-color:#808080;stop-opacity:0.1"/>
</linearGradient>
<path class="st15" d="M932.7,332c-21.2-12.2-29.2-15.2-29.2-15.2l-0.4-0.3c-2.3-1.8-4.1-4.1-5.3-6.7c0-0.5,0-1,0-1.5
	c0,0,0,0.1,0,0.1c0.3-6.5,4.9-12.3,9.3-17.4l11.1-13.1c1.3-1.3,2.2-2.8,2.9-4.5c0.2-0.9,0.3-1.9,0.3-2.8c0-0.4,0-0.8,0-1.1
	c-0.1-3.2-0.2-6.5-0.3-9.8c-0.1-2.8-0.8-6.4-3.7-7c-1.5-0.3-3.4,0.2-4.2-1c-0.3-0.5-0.3-1.1-0.2-1.7c0,0,0,0.1,0,0.1V250
	c0.6-2.2,0.9-4.4,1-6.7c0.1-1.1-0.1-2.3-0.5-3.4c-1.6-4.7-7.3-6.6-12.3-7.5s-10.6-1.6-13.8-5.6c-0.8-1.3-1.8-2.6-2.7-3.8
	c-1.4-1.3-3.2-2.2-5.1-2.5c-6.2-1.5-12.8-1-18.6,1.6c-2.4,1.1-4.8,2.5-7.5,2.4s-5.1-2.1-7.8-2.5c-4.4-0.8-8.6,2.5-10.8,6.3
	c-1.3,2.3-2,4.8-2,7.4v0.4l0,0c-0.1,2.8,1,5.5,2.9,7.6c1.9,2,4.7,3.3,5.5,5.9c0.3,1,0.2,2.2,0.5,3.3c0,0.1,0.1,0.3,0.1,0.4l-0.1,0.2
	c-4.5,5.8-7,13-7,20.3c0.1,14.7,9.7,27.6,23.7,32c0,0.3,0,0.7,0,1c0,4-1.2,8.2-4.6,11.2l-30,12c0,0-18.1-2.1-24.6,24.3
	c-1,4.4-1.4,8.9-1.1,13.4c0.2,4-0.3,11-5,20.1c-7.4,14.5-5.7,47.9,9.4,51.2c14.3,3.1,19.9,1.8,20.5,1.7v0.6
	c-0.2,6.3-2.5,60.2-10.8,66.7c-2.3,1.8-1.9,3,0,3.8c0,0,0,0.3,0,1c-0.2,4-1.5,19-7,27.5c-6.4,9.9-5.7,67-5.7,67l-4.4,33.7
	c0,0,2.7,20.8,0,24.4c-2.4,3.2-5.6,80.1-6.3,96.8h-0.3c-2.7,0.2-5.1,1.7-6.5,4c-3.5,5.8-15.9,16.4-15.9,16.4
	c-2.7,3.8-12.6,7.5-17.9,9.2c-0.7,0.2-1.4,0.5-2,0.9c-2,1.1-3.6,2.7-4.5,4.8c-0.7,1.2-0.9,2.7-0.5,4c1.3,3.3,29.3,5.6,36.4,2.3
	c5.6-2.6,27.6-6,36.8-7.3c3.4-0.4,6.1-3.1,6.5-6.5c0.2-1.2-0.1-2.3-0.8-3.3l0,0c-1.8-2.2-2.6-8.1-3-12c0.7-0.3,1.4-0.7,2.1-1.2
	c-0.8-12,0.9-24,5-35.3c6.7-17.8,8.8-50.8,7.1-72.3c0,0,20.5-88.4,36.7-96.7l0,0c0.2,0.3,8.1,10.4,9.1,41.6
	c1,31.7,12.5,52.5,12.5,52.5s-5.1,53.8,0,73.9l-6.6,31.8c-0.5-0.4-0.8-0.7-0.8-0.7s0.2,0.9,0.5,2.3l-0.1,0.7l0.3,0.1
	c0.8,4,1.9,10.9,1.4,15c-0.3,2.3-0.9,5.5-1.3,8.6c-0.7,4.9-0.9,9.6,1.7,10.7c4.2,1.7,29,4,33.2-1.4c1.9-2.3,2.4-5.4,1.2-8.2
	c-0.3-0.7-0.7-1.5-1.2-2.1c0,0-6.6-10.8-4.7-18.3c0.3-1.5,0.1-3.1-0.8-4.3c0.3-3.7,1.8-20.9,5.7-35.6c4.2-15.9,13.1-50.7,6.6-73.6
	l0,0c-0.2-0.9-0.5-1.8-0.8-2.6c-3.8-12.5-5-25.6-3.7-38.6c-2.4-11.1-2.4-22.6,0-33.7c4-18.5,6.9-36.6,6.9-36.6s2.2-24.4,0.3-39.4
	c0-0.3-0.1-0.6-0.1-1l1.1-0.2c0,0-5.7-25.4-7.8-41.6c-0.5-3.8-1.1-8.6-1.8-13.8c1.9-0.3,3.7-0.8,5.5-1.4c18.2-6.3,23.9-63,23.9-63
	v-18C947.8,371.9,953.9,344.2,932.7,332z M797.2,770.3c-0.6-0.3-0.9-0.5-0.9-0.5l0,0L797.2,770.3z"/>
<path class="st16" d="M921.7,659.6c7.9,22.7-1.3,59.5-5.6,76s-5.6,36.2-5.6,36.2c-16.8,2.6-28.9-0.7-28.9-0.7l6.9-33.9
	c-4.9-20.1,0-73.7,0-73.7s-11.2-20.7-12.2-52.3c-1-31.1-8.6-41.1-8.9-41.4l0,0c-15.8,8.2-35.8,96.4-35.8,96.4
	c1.6,21.4-0.3,54.3-6.9,72c-4,11.3-5.7,23.2-4.9,35.2c-2.3,2-5.5,2.3-9,1.7c-9.4-1.5-20.7-9.6-20.7-9.6s3.6-96,6.2-99.6
	s0-24.3,0-24.3l4.3-33.5c0,0-0.7-56.9,5.6-66.8c5.4-8.5,6.6-23.5,6.9-27.4c0-0.6,0-1,0-1l9.5-11.4c0,0,92.1-6.9,99,0
	c1.7,1.7,2.7,5.5,3.4,10.4c1.9,14.9-0.3,39.2-0.3,39.2s-2.8,18.1-6.7,36.5c-2.4,11.1-2.4,22.5,0,33.5
	C916.8,634,918,647.1,921.7,659.6z"/>
<path class="st11" d="M916,803.8c-4.1,5.4-28.3,3.1-32.4,1.4c-2.5-1-2.3-5.8-1.6-10.6c0.4-3.1,1.1-6.2,1.3-8.5
	c0.7-5.9-2-17.9-2-17.9s5.4,5.8,6.7,0c0.6-2.5,2.6-3.8,4.7-4.5c2.8-0.9,5.8-0.7,8.5,0.5c4.3,1.9,11.4,5.8,10.1,11.2
	c-1.8,7.5,4.6,18.3,4.6,18.3c0.5,0.6,0.9,1.3,1.2,2.1C918.3,798.4,917.9,801.5,916,803.8z"/>
<path class="st5" d="M916,803.8c-4.1,5.4-28.3,3.1-32.4,1.4c-2.5-1-2.3-5.8-1.6-10.6c2.6,1.2,7,2.2,14.4,1.5
	c1.7-0.2,3.4-0.2,5.2-0.2c5.2,0.2,10.5,0.1,15.7-0.3C918.3,798.4,917.9,801.5,916,803.8z"/>
<path class="st5" d="M831.6,666.1c1.6,21.4-0.3,54.3-6.9,72c-4,11.3-5.7,23.2-4.9,35.2c-2.3,2-5.5,2.3-9,1.7
	c2-13.9,10.4-73.6,15.8-120.8c6.2-53.8,35-90.8,35-90.8l5.8,6.3C851.7,578,831.6,666.1,831.6,666.1z"/>
<path class="st17" d="M906.1,320.5l-4,19.7l-19.7,33l-24.2-10.4c0,0-33-34.5-12.2-39.5c2.5-0.5,4.8-1.6,6.9-3.1
	c4.1-3.1,5.3-7.5,5.4-11.9c-0.2-4.9-1.3-9.7-3.3-14.1l42.4-13.3c-1.7,5.6-2.7,11.3-3,17.2c-0.3,11.6,4,17.2,7.5,20
	C903,319.3,904.5,320,906.1,320.5z"/>
<path class="st5" d="M897.2,281c-1.7,5.6-2.7,11.3-3,17.2c-0.8,0.9-1.6,1.8-2.5,2.6c-8.9,8.5-21.8,11.5-33.5,7.7
	c-0.2-4.9-1.3-9.7-3.4-14.1L897.2,281z"/>
<path class="st17" d="M902.1,275.6c0,18.5-15,33.6-33.5,33.6c-18.5,0-33.6-15-33.6-33.5c0-18.5,15-33.6,33.5-33.6c0,0,0,0,0,0
	c18.4-0.1,33.5,14.8,33.5,33.2C902.1,275.4,902.1,275.5,902.1,275.6z"/>
<path class="st5" d="M906.1,320.5l-4,19.7l-19.7,33l-24.2-10.4c0,0-33-34.5-12.2-39.5c2.5-0.5,4.8-1.6,6.9-3.1
	c-3.7,10.3,11.7,31.7,11.7,31.7c1.8,2.7,5.9,1,5.9,1c10-1.5,28.3-30.1,31.2-34.9C903,319.3,904.5,320,906.1,320.5z"/>
<path class="st5" d="M925.1,511.8c-5.8,1.3-38.2,8.5-50.4,6.7c-13.5-2-39.7-3.3-39.7-3.3s-16.7,0.9-21.8-1.5c0-0.6,0-1,0-1l9.5-11.4
	c0,0,92.1-6.9,99,0C923.4,503.1,924.5,506.9,925.1,511.8z"/>
<path class="st6" d="M864.5,353.1c0,0-17.3-24-10.8-33.4l-29.3,12c0,0-17.6-2.1-24,24.2c-1,4.4-1.4,8.9-1.1,13.4
	c0.2,4-0.3,11-4.8,20c-7.2,14.5-5.6,47.7,9.2,51s20.1,1.6,20.1,1.6s-2,60.2-10.5,67.1s21.8,5.3,21.8,5.3s26.2,1.3,39.7,3.3
	s51.3-6.9,51.3-6.9s-5.6-25.3-7.6-41.4s-6.6-50.4-6.6-50.4l33.5-45.4c0,0,5.9-27.5-14.8-39.6c-20.7-12.2-28.5-15.1-28.5-15.1
	s-20.8,33.9-31.7,35.5C870.4,354,866.3,355.7,864.5,353.1z"/>
<path class="st5" d="M826,362.6c0,0-0.3,10.9,1.7,15.1s9.2,28,9.2,28h-16.5c0,0,8.9-9.5,8.2-14.1S826,362.6,826,362.6z"/>
<path class="st17" d="M874.7,444.5c0,0-36.3-8.9-39.7-16.4s-12.7-24.5-12.7-24.5l3.8-5.2l17.7,13.9c0,0,21,16.8,30.9,18.4
	S874.7,444.5,874.7,444.5z"/>
<path class="st18" d="M874.7,444.5c0,0-36.3-8.9-39.7-16.4s-12.7-24.5-12.7-24.5l3.8-5.2l17.7,13.9c0,0,21,16.8,30.9,18.4
	S874.7,444.5,874.7,444.5z"/>
<path class="st17" d="M906.1,401.7v19.7h-3.2c-15.6,0-31,4-44.7,11.6l-5.9,3.3l-1.6,0.9l-10.2-23l9.5-8.5h0.5
	c2.3,0.2,12.4,1.1,16.7-0.4c4.1-1.4,9.1-5.8,21.1-2.7c5.9,1.5,10.9,8.1,16.6,6L906.1,401.7z"/>
<path class="st5" d="M937.8,365.9l6.6,7.4v17.9c0,0-5.6,56.6-23.3,62.8s-49.5-3.6-49.5-3.6s-8.2-21.7-4.4-23s33.8-9.2,33.8-9.2
	s-0.4-33.2,6.2-43c0,0-4.3-30.9,10.5-31.6C932.6,342.9,937.8,365.9,937.8,365.9z"/>
<path class="st6" d="M938.8,365.9l6.6,7.4v17.9c0,0-5.6,56.6-23.3,62.8s-49.5-3.6-49.5-3.6s-8.2-21.7-4.3-23s33.8-9.2,33.8-9.2
	s-0.4-33.2,6.2-43c0,0-4.3-30.9,10.5-31.6C933.6,342.9,938.8,365.9,938.8,365.9z"/>
<path class="st5" d="M892.9,289.9c0.3-2.2,0-4.4-0.8-6.4c-0.9-2-3.1-3.5-5.2-3c-2.8,0.7-4,4.3-6.8,5.2c-2.3,0.7-4.9-0.9-6-3.1
	s-1.1-4.7-1.1-7.2c0-2.7,0-5.5,0-8.2c0-3-0.1-6.2-1.9-8.6c-2.3-2.9-7.7-4.2-11.3-4.1c-2.4,0-4.7,1-6.4,2.6c-1.9,1.6-4.2,2.8-6.8,2.4
	c-2.2-0.3-4.1-1.9-4.7-4.1v-0.1c11.1-14.8,32.2-17.8,47-6.6c14.8,11.1,17.8,32.2,6.6,47c-1.1,1.5-2.4,2.9-3.7,4.2
	C892.3,296.6,892.7,293.2,892.9,289.9z"/>
<path class="st19" d="M846.6,258.5c-2.2-0.3-4.1-1.9-4.7-4.1c-0.3-1.1-0.2-2.2-0.5-3.2c-0.8-2.6-3.5-3.9-5.4-5.9
	c-3.7-3.9-3.5-10.4-0.8-15.1c2.1-3.8,6.2-7,10.5-6.3c2.7,0.5,5,2.4,7.7,2.5s5-1.3,7.3-2.4c5.7-2.6,12.1-3.2,18.2-1.6
	c1.9,0.4,3.6,1.2,5,2.5c1,1.2,1.8,2.5,2.7,3.8c3.1,3.9,8.5,4.7,13.4,5.6s10.4,2.8,12,7.5c1.1,3.1,0,6.5-0.6,9.7
	c-0.2,0.7-0.1,1.4,0.1,2c0.8,1.3,2.7,0.7,4.1,1c2.8,0.6,3.5,4.2,3.6,7c0.1,3.2,0.2,6.5,0.3,9.7c0.1,1.2,0,2.4-0.3,3.6
	c-0.6,1.7-1.6,3.2-2.8,4.5l-10.9,13c-4.8,5.8-9.9,12.5-9,20c-2.3,1-5-1-5.7-3.3c-0.7-2.4-0.2-5,0.4-7.4c0.9-4.2,1.5-8.5,1.7-12.9
	c0.3-2.2,0-4.4-0.8-6.4c-0.9-2-3.1-3.5-5.2-3c-2.8,0.7-4,4.3-6.8,5.2c-2.3,0.7-4.9-0.9-6-3.1s-1.1-4.7-1.1-7.1v-8.2
	c0-3-0.1-6.2-1.9-8.6c-2.3-2.9-7.7-4.2-11.3-4.1c-2.4,0-4.7,1-6.4,2.6C851.4,257.8,849.2,259,846.6,258.5z"/>
<path class="st5" d="M854.1,361.8l10.3,42.3C864.4,404.1,872.6,404,854.1,361.8z"/>
<path class="st5" d="M889.3,354.7c0,0-13.5,22.1-8.2,44.9l2.5,0.2C883.6,399.8,879.1,389.2,889.3,354.7z"/>
<path class="st5" d="M897.8,479.7c0,0,16.6-5.5,17.8,7.2C915.6,486.9,912.5,478.2,897.8,479.7z"/>
<path class="st5" d="M850,406.7c0,0-3.3,23,2.6,32.2c0,0-12,4.9-28.9,4l-2-36.2L850,406.7z"/>
<path class="st5" d="M852.3,436.3l-1.6,0.9l-10.2-23l9.5-8.5h0.5l0,0C850.4,406.8,847.7,426.6,852.3,436.3z"/>
<path class="st6" d="M850,405.7c0,0-3.3,23,2.6,32.2c0,0-12,4.9-28.9,4l-11.5-36.2H850z"/>
<path class="st11" d="M821.6,789.8c-0.4,3.4-3,6.1-6.4,6.5c-8.9,1.3-30.4,4.7-35.9,7.3c-6.9,3.3-34.2,1-35.5-2.3
	c-0.4-1.3-0.2-2.8,0.5-4c0.9-2,2.5-3.7,4.4-4.7c0.6-0.4,1.3-0.6,2-0.9c5.1-1.7,14.8-5.3,17.5-9.2c0,0,12.1-10.6,15.6-16.3
	c1.3-2.3,3.7-3.8,6.3-3.9c2.9-0.1,6.1,1.3,7.4,7.6c0,0,15.8,9,20,1.1c0,0,0.7,12.1,3.3,15.4l0,0
	C821.5,787.4,821.8,788.6,821.6,789.8z"/>
<path class="st5" d="M821.6,789.8c-0.4,3.4-3,6.1-6.4,6.5c-8.9,1.3-30.4,4.7-35.9,7.3c-6.9,3.3-34.2,1-35.5-2.3
	c-0.4-1.3-0.2-2.8,0.5-4c0.9-2,2.5-3.7,4.4-4.7c4.5,3,14.3,5.8,36.1,2.5c20.7-3.2,31-6.4,36-8.6l0,0
	C821.5,787.4,821.8,788.6,821.6,789.8z"/>
<g class="st13">
	<path d="M911.3,252v-0.2c0.5-2.5,1.2-5,1-7.5c-0.2,2-0.5,4-1,6C911.2,250.9,911.2,251.5,911.3,252z"/>
	<path d="M892.1,282.8c0.5,1.2,0.8,2.5,0.8,3.8c0.1-1.8-0.1-3.6-0.8-5.2c-0.9-2-3.1-3.5-5.2-3c-2.8,0.7-4,4.3-6.8,5.2
		c-2.3,0.7-4.9-0.9-6-3.1s-1.1-4.7-1.1-7.2c0-2.8,0-5.5,0-8.2c0-3-0.1-6.2-1.9-8.6c-2.3-2.9-7.7-4.2-11.3-4.1c-2.4,0-4.7,1-6.4,2.6
		c-1.9,1.6-4.2,2.8-6.8,2.4c-2.2-0.3-4.1-1.9-4.7-4.1c-0.3-1.1-0.2-2.2-0.5-3.2c-0.8-2.6-3.5-3.9-5.4-5.9c-1.7-1.9-2.7-4.4-2.8-7
		c-0.3,3.1,0.7,6.1,2.8,8.4c1.8,2,4.6,3.3,5.4,5.9c0.3,1,0.2,2.2,0.5,3.2c0.7,2.2,2.5,3.7,4.7,4.1c2.6,0.4,4.8-0.8,6.8-2.4
		c1.7-1.6,4-2.6,6.4-2.6c3.6-0.1,9,1.2,11.3,4.1c1.8,2.4,1.9,5.6,1.9,8.6c0,2.8,0,5.5,0,8.2c0,2.4,0,5,1.1,7.2
		c1.1,2.1,3.7,3.8,6,3.1c2.8-0.9,4-4.5,6.8-5.2C889,279.3,891.2,280.9,892.1,282.8z"/>
	<path d="M919.2,273.7c-0.6,1.7-1.6,3.2-2.8,4.5l-10.9,13c-4.6,5.5-9.4,11.8-9,18.9c0.3-6.4,4.8-12.3,9-17.4l10.9-13
		c1.2-1.3,2.2-2.8,2.8-4.5c0.3-1.2,0.4-2.4,0.3-3.6C919.4,272.3,919.3,273,919.2,273.7z"/>
	<path d="M890.8,308c-0.2-0.6-0.3-1.2-0.3-1.8c-0.1,1.1,0,2.2,0.3,3.2c0.7,2.4,3.5,4.4,5.7,3.3c-0.1-0.5-0.1-1-0.1-1.4
		C894.2,312.2,891.5,310.3,890.8,308z"/>
</g>
<path class="st5" d="M781.5,769.2c0,0,3.4,6,15.9,0.7"/>
<path class="st5" d="M886.8,770.7c0,0,10.7,12.7,24.3,4.2"/>
<path class="st5" d="M918.1,621.1c0,0-7.6,4.7-7.8,7.5s3.9-2,3.9-2L918.1,621.1z"/>
<path class="st5" d="M921.1,657.5c-2.6,2.2-5.9,3.5-9.3,3.7c-5.7,0.2-5.2,7.7-1.5,5.4S921.1,657.5,921.1,657.5z"/>
<path class="st5" d="M922.5,662.2c0,0-3.6,17.9-6.6,14.4"/>
<linearGradient id="SVGID_4_" gradientUnits="userSpaceOnUse" x1="1005.7766" y1="41.3185" x2="1005.7766" y2="630.1049" gradientTransform="matrix(-1 0 0 -1 1323.71 839.86)">
	<stop  offset="0" style="stop-color:#808080;stop-opacity:0.25"/>
	<stop  offset="0.54" style="stop-color:#808080;stop-opacity:0.12"/>
	<stop  offset="1" style="stop-color:#808080;stop-opacity:0.1"/>
</linearGradient>
<path class="st20" d="M219.3,796.3c0,0,22.8,6.3,33.8-2.1s15.8-5.7,15.8-5.7s26.2-1.5,28.4-7.7s-10.1-28.7-10.1-28.7
	c-0.9-2-2.1-4.5-2.7-4.5l0.1-9.5l0,0l3.8-39.8c8.8-22.5,0.2-51.5,0.2-51.5l-1.6-7.2c-0.9-4.1-0.4-8.3,1.5-12l15.9-32
	c0.9-2.1,1.9-4.2,3-6.1c1-1.8,2.3-4.1,4-6.8c0.5-0.8,1-1.6,1.6-2.4c1.9-3,4.3-6.4,7.1-10.3c7-9.8,10.8-22,12.7-31l0.9,2.8h0h0.1l0,0
	l0.2,0l0,0h0.3h0.1l0.4,0.1h0.1l4.9,62.4c0.3,24.3,9.2,37.8,9.2,37.8l-1.2,53.7c1.7,12.9-2,30.2-3.7,37l-3.9,8.7
	c-3.1,1.5-5.2,4.5-5.7,7.9c-0.8,6.4-7.5,20.3-7.5,20.3c-2.6,3.3-8.3,12.3-8.3,12.3s-2.7,8.7-1,11.9s15.5,2.9,15.5,2.9
	c15.9,3.5,28-5,27.2-10.9s2.5-7.3,2.5-7.3c6.3-2,5.7-6.3,5.7-6.3c1.4-8.8-0.3-17.8-4.8-25.5l-1,2.3c-0.3-4.6,0.4-9.3,1.9-13.6
	l-0.6,0.4l-0.2,0.1h-0.1c1-8.8,10.2-25,10.2-25c16.9-29.7,10.8-69.9,10.8-69.9l-2.6-12.5l-0.1-4.7c-0.4-11.3,0.5-22.6,2.5-33.7
	c0.9-4.9,1.9-10.9,2.6-17.4c1.5-13.8,6.4-28.1,8.7-34.2l0.7-0.1h0.1c0.9-0.2,1.9-0.3,2.8-0.5h0.2c0,0,0.5-2.9,1-7.9
	c0.3-3.2,0.5-7.2,0.5-11.8c0.1-13.9-2.1-27.8-6.3-41.1l0.5-0.7c0,0,1.2-1.6,3.4-4.5l0,0c4.1-5.2,10.4-13,18.2-21.8
	c14-15.9,9.9-32,9.9-32s-10.1-37-14.6-59.2c-2.6-12.7-7.4-21.3-11.1-26.4c0.8-3.5,1.3-7.1,1.4-10.7c0.3-6.6,0.1-13.4-2.9-19.3
	c-3-5.9-9.3-10.6-15.8-9.8c-0.9,0.2-1.9,0.2-2.8,0c-0.8-0.3-1.4-0.9-1.9-1.6c-3.9-5.3-4.1-12.5-2.9-18.9s3.7-12.6,4.8-19.1
	c1.1-6.5,0.6-13.6-3.5-18.8c-4.8-6-13.2-7.7-19.5-12.2c-4.4-3.2-7.7-7.7-12.4-10.5s-9-1.7-14-0.7c-8.5,1.8-16.6,2.6-24.6,6.3
	c-8.1,3.7-15.4,9-21.4,15.6c-2.1,2.1-3.8,4.7-4.8,7.5c-2,6.6,1.9,13.6,1.1,20.5c-0.6,4.8-3.4,9.1-5.7,13.4c-2.3,4.3-4,9.5-2.2,14
	c2.8,7.1,11.9,8.6,18.6,12.4c0.9,0.4,1.6,1.1,2.2,1.9c1.6,2.9-1.7,5.8-3.8,8.4c-1.2,1.5-2.1,3.2-2.5,5.1c-5.6,2.3-9.7,7.2-10.9,13.1
	c-2.2,10.1,1.2,22.8,4.3,31.2c-3.3,18.7,1,26.1,4.2,28.9c3.2,2.8,5.2,6.7,5.6,10.9v0.4c0.2,3.4,0.6,6.8,1,10.2l0,0
	c-0.1-0.8-0.2-1.6-0.3-2c-2.6,4.8-7.6,17.2-10.4,37.9c-0.6,4.4-1.4,8.9-2.5,13.2c-2,7.7-2.7,15.7-2.1,23.6l0.5,6.7
	c-0.5,0-1-0.1-1.4-0.5l3.5,6.4v10.9c0,4.9-0.9,9.7-2.7,14.3c-0.2,0.7-0.5,1.3-0.8,2c-0.9,1.8-1.3,3.9-1.2,5.9
	c-7.5,11.6-24.9,76.4-24.9,76.4c-9.4,21.3,0.8,35,0.8,35s4.9,59.2,5.8,62.2s3,39.1,3,39.1l0,0c0,1,0,1.9,0,2.9
	c-0.5-0.2-1.1-0.4-1.7-0.5c-8.2-0.5-10.5,12.5-10.5,12.5L231,772.9c0,0-7.7-1.3-19,7.2S219.3,796.3,219.3,796.3z M387.5,454.2l0-0.2
	l-0.5,0.3l0,0l-0.2,0.1l-0.1,0.1l0,0l-7.8-27.4c-2.1-7.3-2.3-15.1-0.6-22.5l6-26.3l0,0v-6.3l19.1,50.8
	C404.6,429.6,393.3,446.2,387.5,454.2z"/>
<path class="st21" d="M395.8,536.9c0,0-7.7,18.7-9.7,36.7c-0.7,6.5-1.6,12.3-2.5,17.2c-2,11-2.8,22.1-2.5,33.3l0.1,4.7l2.5,12.4
	c0,0,6,39.7-10.6,69c0,0-9.8,17.5-10.1,25.8l-6.6,2.6l-13.4-3.8c0,0,6.5-23.3,4.4-39.6l1.2-53c0,0-8.7-13.3-9-37.3l-5.1-65.9
	L395.8,536.9z"/>
<path class="st21" d="M334.5,527.5c0,0-1.6,25.7-14.4,43.4s-15.4,25.4-15.4,25.4l-15.6,31.6c-1.8,3.7-2.3,7.8-1.5,11.8l1.5,7.1
	c0,0,8.5,28.7-0.1,50.9l-4.1,42.9h-23.9c0,0-2-35.7-2.9-38.7s-5.7-61.5-5.7-61.5s-10-13.6-0.8-34.6c0,0,20.9-78.5,26.4-77.2
	S334.5,527.5,334.5,527.5z"/>
<g class="st13">
	<path d="M286.8,646.9l-1.5-7.1c-0.9-4-0.4-8.2,1.5-11.9l15.6-31.7c0,0,2.7-7.7,15.4-25.4c12.2-17,14.2-41.4,14.3-43.2l2.4-0.1
		c0,0-1.6,25.7-14.4,43.4s-15.4,25.4-15.4,25.4l-15.6,31.6c-1.8,3.7-2.3,7.8-1.5,11.8l1.5,7.1c0,0,8.5,28.7-0.1,50.9l-4.1,42.9h-2.4
		l4.1-42.9C295.2,675.5,286.8,646.9,286.8,646.9z"/>
</g>
<path class="st5" d="M360.8,735.9c0.3-8.3,10.1-25.8,10.1-25.8c16.6-29.3,10.6-69,10.6-69l-2.6-12.4l-0.1-4.7
	c-0.4-11.1,0.5-22.3,2.5-33.3c0.9-4.9,1.8-10.7,2.5-17.2c1.9-17.3,9.1-35.3,9.6-36.6l2.5-0.1c0,0-7.7,18.7-9.7,36.7
	c-0.7,6.5-1.6,12.3-2.5,17.2c-2,11-2.8,22.1-2.5,33.3l0.1,4.7l2.5,12.4c0,0,6,39.7-10.6,69c0,0-9.8,17.5-10.1,25.8l-6.6,2.6
	l-1.4-0.4L360.8,735.9z"/>
<path class="st22" d="M353.1,735.6c3.7,1.4,7.8,0.9,11-1.4c-2.2,6.4-2.5,13.3-0.9,19.9c2.7,10.9-25.4-8.8-25.4-8.8l6-13.7
	C343.8,731.7,346.1,736.1,353.1,735.6z"/>
<path class="st5" d="M355.2,736.2c3.1,0.6,6.4-0.1,8.9-2c-2.2,6.4-2.5,13.3-0.9,19.9c2.7,10.9-25.4-8.8-25.4-8.8l6-13.7
	c0,0,1.7,3.3,6.9,3.9C352.2,735.8,353.7,736,355.2,736.2z"/>
<polygon class="st21" points="289.3,481.5 301.1,481.5 301.1,414.9 292.2,413.3 "/>
<polygon class="st18" points="289.3,481.5 301.1,481.5 301.1,414.9 292.2,413.3 "/>
<path class="st23" d="M346.4,740.8c0,0,7.4-0.5,10.7,6.2l4.1,3.2l2-4.7c4.3,7.6,6,16.5,4.6,25.2c0,0,0.6,4.2-5.6,6.2
	c0,0-3.2,1.5-2.4,7.2s-11.2,14.2-26.7,10.7c0,0-13.6,0.3-15.3-2.9s1.1-11.6,1.1-11.6s5.6-8.9,8.1-12.1c0,0,6.6-13.7,7.4-20
	S342.5,737.3,346.4,740.8z"/>
<path class="st22" d="M285.2,746.4l0.1-9.4c0,0-13.5,3.9-24.4-0.5c0,0,0.9,9.4-0.6,10.7s5.1,13.4,5.1,13.4l7.4,7.7l12.6-4.6
	l3.4-10.8C288.7,752.9,286.1,746.4,285.2,746.4z"/>
<path class="st5" d="M285.2,746.4l0.1-9.4c0,0-13.5,3.9-24.4-0.5c0,0,0.9,9.4-0.6,10.7s5.1,13.4,5.1,13.4l7.4,7.7l12.6-4.6l3.4-10.8
	C288.7,752.9,286.1,746.4,285.2,746.4z"/>
<path class="st23" d="M259.4,743c0,0,7.2,0.8,6.3,10s0.4,0,0.4,0s7.6,3.1,10.4,7.4s7.6-3.8,8-6.2s3.4-3.3,3.4-3.3s12,22.2,9.9,28.4
	s-27.9,7.5-27.9,7.5s-4.7-2.6-15.5,5.6s-33.2,2-33.2,2s-18.3-7.6-7.2-16c11.1-8.4,18.6-7.1,18.6-7.1l16.5-15.9
	C249.1,755.3,251.3,742.5,259.4,743z"/>
<path class="st24" d="M345.2,216.9c4.6,2.8,7.8,7.3,12.1,10.4c6.2,4.4,14.4,6.1,19.2,12c4,5.1,4.5,12.1,3.4,18.5
	c-1.1,6.4-3.5,12.5-4.7,18.8s-0.9,13.4,2.9,18.6c0.4,0.7,1.1,1.3,1.8,1.6c0.9,0.2,1.9,0.2,2.8,0c6.5-0.8,12.7,3.8,15.6,9.7
	s3.1,12.6,2.8,19.1c-0.2,5.3-0.9,10.8-3.2,15.6c-4,8.2-12.3,13.2-20.5,17.1c-5.3,2.5-10.8,4.7-16.4,6.6c-3.8,1.3-7.9,2.5-11.9,1.8
	c-6.8-1.2-11.7-7.4-18.1-9.8c-5.3-2-11.2-1.3-16.9-0.8c-4.8,0.4-10.3,0.4-13.6-3.1c-4.3-4.5-2.3-11.8-0.2-17.6
	c-6.9-0.4-12.2-6.4-11.7-13.3c0.2-2.6,1.2-5.2,2.9-7.2c2.1-2.5,5.4-5.4,3.7-8.3c-0.5-0.8-1.3-1.5-2.2-1.9
	c-6.5-3.7-15.5-5.2-18.2-12.2c-1.8-4.5-0.1-9.6,2.2-13.8c2.2-4.3,5-8.5,5.6-13.2c0.8-6.8-3-13.7-1.1-20.2c1-2.8,2.6-5.3,4.7-7.5
	c5.9-6.5,13-11.7,21-15.4c7.9-3.6,15.8-4.4,24.1-6.2C336.3,215.2,340.5,214.1,345.2,216.9z"/>
<path class="st21" d="M301,317.6c0,0-19.1-1-22.8,15.3s7.9,39.7,7.9,39.7L301,317.6z"/>
<path class="st18" d="M301,317.6c0,0-19.1-1-22.8,15.3s7.9,39.7,7.9,39.7L301,317.6z"/>
<path class="st21" d="M288.8,366.2l7.2,5.7l33.8,1.5l21.1-14.5l21.5-36.9c-13.1-3.3-18.4-12.4-20.4-20.9c-1.3-5.7-1.4-11.7-0.4-17.5
	c0,0-34.4-17.8-30.2,10c0.6,3.4,0.7,6.9,0.3,10.3c-2,16.3-17.8,13.2-17.8,13.2l-6.1,9.4l-7,23L288.8,366.2z"/>
<path class="st5" d="M321.5,293.7c0.6,3.4,0.7,6.9,0.3,10.3c9.9,4.5,21.4,3.4,30.3-2.8c-1.3-5.7-1.4-11.7-0.4-17.5
	C351.7,283.7,317.3,265.9,321.5,293.7z"/>
<circle class="st21" cx="334.5" cy="275" r="30.5"/>
<path class="st6" d="M312.9,360.3c0.7,0,1.5,0.1,2.2,0.2c4,0.4,20.7,1.3,30.2-10.1c10.6-12.7,24.8-28.4,25.4-29.1l0,0l14.4,4.4
	c0,0-11.4-4.1-19,17.2c-3.4,9.2-0.4,19.5,7.4,25.3c2.8,2,6,3.4,9.4,4c0,0,0,0,0,0v9.3l0,0l-5.9,26c-1.7,7.3-1.5,15,0.6,22.2l9,31.8
	l0,0c-1.4,0.9-57.2,38.9-94.5,12.7l0,0c0.1-1.1,4.8-38.5,1.5-56.7c-0.8-4.7-1.4-9.4-1.7-14.1c0-0.1,0-0.2,0-0.4
	c-0.3-4.2-2.3-8.1-5.5-10.8c-3.4-3-7.9-11-3.4-32.1c1.1-5.2,2.8-10.3,5-15.2l12.5-28.3l0,0l11.5,0.2 M312.3,317
	c-1,1.2-14.4,17.9-15.8,28.7c-1.4,10.2-3.2,13.4,16.5,14.6L312.3,317z"/>
<path class="st21" d="M394.9,330.7c0,0,11.3,9.7,15.7,31.6c4.4,21.9,14.3,58.4,14.3,58.4s4,15.9-9.7,31.6
	c-13.7,15.7-22.8,28-22.8,28l-9,13.3c-1.5,2.3-3.8,3.9-6.5,4.6c-4.1,1.1-10.4,1.9-15.9-1.1c-4.1-2.3-5.8-7.3-4-11.7l2-4.6
	c0,0-18.5,11.7-20.1,5.2s21.5-12.9,21.5-12.9s19.1-3.2,23-12.3c0,0,20.5-26.4,18.9-35.5l-19.8-53.2c0,0-24.8-3.3-16.3-31.1
	S394.9,330.7,394.9,330.7z"/>
<path class="st16" d="M276.3,531.3c0,0,45.3,9.1,56,7.8l1.1,3.8c0,0,17.2,3.8,56.1-2.3c2.5-0.4,5.2-0.8,7.9-1.3l0.9-0.2
	c0,0,0.5-2.9,1-7.8c0.9-11.2,1.3-32.7-6.6-54.8l-6.5-20.1c0,0-40.4,24.2-67.2,22c-2.4-0.2-4.8-0.4-7.1-0.5c-5.5-0.2-14,0-19.5-4.4
	l-11.6,2v33c0,4.8-0.9,9.6-2.6,14.1c-0.2,0.7-0.5,1.3-0.8,2C276.2,526.7,275.9,529,276.3,531.3z"/>
<path class="st5" d="M333.4,532.7V543c0,0,19.8,4.4,64.9-3.8c0,0,0.5-2.9,1-7.8C385.4,533.6,347.3,538.9,333.4,532.7z"/>
<path class="st5" d="M276.3,531.3c0,0,45.3,9.1,56,7.8l1.1,3.8v-10.3c-5.2,2.1-42-6.7-55.4-10.1c-0.2,0.7-0.5,1.3-0.8,2
	C276.2,526.7,275.9,529,276.3,531.3z"/>
<path class="st16" d="M386.1,519.9l3.4,20.8c2.5-0.4,5.2-0.8,7.9-1.3c-1-6.1-3.3-20-2.7-22.3l-4.2-3.6L386.1,519.9z"/>
<path class="st5" d="M386.6,519.4l3.4,20.8c2.5-0.4,5.2-0.9,7.9-1.3c-1-6.1-3.3-20-2.7-22.3l-4.2-3.6L386.6,519.4z"/>
<g class="st25">
	<path d="M316.5,478.4c-2.4-0.2-4.8-0.4-7.1-0.5c-5.3-0.2-13.5,0-19-4.1l1.9-0.3c5.6,4.4,14,4.2,19.5,4.4c2.4,0.1,4.8,0.3,7.1,0.5
		c0.8,0.1,1.6,0.1,2.4,0.1C319.8,478.6,318.1,478.5,316.5,478.4z"/>
	<path d="M387.1,540.7c2.5-0.4,5.2-0.8,7.9-1.3l0.9-0.2c0,0,0.5-2.9,0.9-7.8c0.9-11.2,1.3-32.7-6.6-54.8l-6.2-19
		c1.3-0.7,2-1.2,2-1.2l6.5,20.1c7.9,22.1,7.5,43.7,6.6,54.8c-0.4,4.9-1,7.8-1,7.8l-0.9,0.2c-2.7,0.5-5.4,0.9-7.9,1.3
		c-18.2,2.9-31.6,3.6-40.8,3.5C361.6,543.9,374.4,542.8,387.1,540.7z"/>
	<path d="M329.8,539.2v0.1h-1.3C329,539.2,329.5,539.2,329.8,539.2z"/>
</g>
<ellipse class="st22" cx="391.8" cy="520.2" rx="1.7" ry="3.5"/>
<path class="st21" d="M282.6,449c2.8-20.5,7.6-32.7,10.2-37.5c0.1,0.6,0.4,2.8,0.5,3.4c0.5,3,0.1,6.8,0.2,10.6l-2.6,46.4l3.4,14.5
	c3.2,11.5-8.7,2.4-8.7,2.4c-2.5,5.4-7,4.8-7,4.8l-0.6-8.3c-0.6-7.8,0.1-15.7,2.1-23.3C281.2,457.7,282.1,453.3,282.6,449z"/>
<path class="st18" d="M282.6,449c2.8-20.5,7.6-32.7,10.2-37.5c0.1,0.6,0.4,2.8,0.5,3.4c0.5,3,0.1,6.8,0.2,10.6l-2.6,46.4l3.4,14.5
	c3.2,11.5-8.7,2.4-8.7,2.4c-2.5,5.4-7,4.8-7,4.8l-0.6-8.3c-0.6-7.8,0.1-15.7,2.1-23.3C281.2,457.7,282.1,453.3,282.6,449z"/>
<path class="st21" d="M397.4,474c-2.2,2.8-3.4,4.4-3.4,4.4l-9,13.2c-1.5,2.3-3.8,3.9-6.5,4.6c-4.1,1.1-10.4,1.9-15.9-1.1
	c-4.1-2.3-5.8-7.3-4-11.7l2-4.6c0,0-18.5,11.7-20.1,5.2s21.5-12.9,21.5-12.9s19.1-3.2,23-12.3c0,0,1.7-2.1,4-5.4"/>
<path class="st16" d="M386.1,496.2c0,0-21.9-2.1-28.9-14.7l-3.2,10.3c0,0,23,15.9,28.2,13.8L386.1,496.2z"/>
<path class="st5" d="M385.4,496.1c0,0-21.9-2.1-28.9-14.7l-3.2,10.3c0,0,23,15.9,28.2,13.8L385.4,496.1z"/>
<path class="st16" d="M286.4,490.3c0,0-7.7,2.7-9.2,1.2l3.5,6.3l6.5-5L286.4,490.3z"/>
<path class="st5" d="M286.4,490.3c0,0-7.7,2.7-9.2,1.2l3.5,6.3l6.5-5L286.4,490.3z"/>
<polygon class="st5" points="333.4,532.7 333.4,519.5 330.3,533 "/>
<path class="st5" d="M364.5,258.9c-1.9,2.6-5.1,3.9-8.2,4.3s-6.4,0.1-9.5,0c-5-0.1-10.3,0.7-14.4,3.6c-2.6,1.9-4.6,4.5-6.6,7
	c-6.2,7.5-14.8,14.6-24.5,13.8c-1.7,0-3.4-0.7-4.5-1.9c-0.8-1.2-1.2-2.7-1.2-4.1c-0.4-6.2-0.2-12.5,0.6-18.7
	c0.4-3.8,1.3-7.6,2.8-11.1c1.7-3.6,4-6.8,6.8-9.7c3.3-3.9,7.3-7.1,11.8-9.5c4.5-2.4,9.8-3.1,14.8-1.9c5.8,1.6,10.4,6.2,15.9,8.5
	C354.6,242,371.4,249.1,364.5,258.9z"/>
<path class="st24" d="M364.5,257.7c-1.9,2.6-5.1,3.9-8.2,4.3s-6.4,0.1-9.5,0c-5-0.1-10.3,0.7-14.4,3.6c-2.6,1.9-4.6,4.5-6.6,7
	c-6.2,7.5-14.8,14.6-24.5,13.8c-1.7,0-3.4-0.7-4.5-1.9c-0.8-1.2-1.2-2.7-1.2-4.1c-0.4-6.2-0.2-12.5,0.6-18.7
	c0.4-3.8,1.3-7.6,2.8-11.1c1.7-3.6,4-6.8,6.8-9.7c3.3-3.9,7.3-7.1,11.8-9.5c4.5-2.4,9.8-3.1,14.8-1.9c5.8,1.6,10.4,6.1,15.9,8.5
	C354.6,240.8,371.4,247.9,364.5,257.7z"/>
<polygon class="st21" points="292.3,473.5 292.2,477.1 291.4,473.6 "/>
<polygon class="st18" points="292.3,473.5 292.2,477.1 291.4,473.6 "/>
<g class="st25">
	<path d="M369.4,339.2c-8.5,27.9,16.2,31.1,16.2,31.1l19.8,53.2c1.6,9.1-18.9,35.5-18.9,35.5c-1.4,3.4-5,6-8.9,7.9
		c2.3-1.4,4.1-3.4,5.3-5.8c0,0,20.5-26.4,18.9-35.4L382,372.3c0,0-24.7-3.3-16.2-31.1c2.8-9.3,7-13.5,11.2-15.1
		C374.1,328.5,371.4,332.5,369.4,339.2z"/>
</g>
<g class="st13">
	<path d="M369.8,364.5c1.2,1.4,2.5,2.7,4,3.8c2.8,2,6,3.4,9.4,4c0,0,0,0,0,0v1c-3.1-0.7-6-1.9-8.6-3.8
		C372.8,368.1,371.2,366.4,369.8,364.5z"/>
	<path d="M293.1,404.3c0,0.1,0,0.2,0,0.3c0.3,4.8,0.9,9.5,1.7,14.2c3,17.2-0.9,51.5-1.5,56.2c-0.3-0.2-0.6-0.4-1-0.6l0,0
		c0.1-1.1,4.8-38.5,1.6-56.7c-0.8-4.7-1.4-9.4-1.7-14.1c0-0.1,0-0.2,0-0.4c-0.2-2.7-1.1-5.4-2.7-7.6
		C291.6,398.1,292.9,401.1,293.1,404.3z"/>
	<path d="M311.5,318.1l-9.8-0.2c0,0,0,0,0,0l-12.5,28.3c-2.2,4.9-3.9,10-5,15.2c-3.6,17.1-1.4,25.6,1.4,29.8
		c-3.1-3.7-6.4-12.1-2.3-31c1.1-5.2,2.8-10.3,5-15.2l12.6-28.3l0,0l11.5,0.2 M312.4,317c-0.1,0.1-0.4,0.5-0.8,1.1L312.4,317z"/>
	<path d="M385.2,325.7l0.2,0L385.2,325.7z"/>
	<path d="M381.6,325.6l-9.8-3 M371.8,322.6c-0.6,0.6-14.8,16.4-25.4,29.1c-9.5,11.4-26.2,10.5-30.2,10.1c-0.7-0.1-1.5-0.1-2.2-0.2
		c-10.9-0.7-15.2-2-16.7-4.8c2,2,6.6,3,15.8,3.6c0.7,0,1.5,0.1,2.2,0.2c4,0.4,20.7,1.3,30.2-10.1c10.6-12.7,24.8-28.4,25.4-29.1l0,0
		l14.3,4.3c-1.1-0.3-2.3-0.3-3.5-0.2L371.8,322.6z"/>
</g>
<path class="st5" d="M265.6,757.5c0,0-13.8,3.8-16.5-2.2"/>
<path class="st5" d="M353.2,754.7c0,0-16,4.1-19.7-2.3"/>
<ellipse class="st0" cx="192.6" cy="716.1" rx="26.9" ry="4.5"/>
<ellipse class="st0" cx="86.5" cy="780.6" rx="26.9" ry="4.5"/>
</svg>
