<?xml version="1.0" encoding="utf-8"?>
<!-- Generator: Adobe Illustrator 22.0.1, SVG Export Plug-In . SVG Version: 6.00 Build 0)  -->
<svg version="1.1" id="_x36_b5bbc3a-7ba8-40c4-8b79-fdc85beb38a1"
	 xmlns="http://www.w3.org/2000/svg" xmlns:xlink="http://www.w3.org/1999/xlink" x="0px" y="0px" viewBox="0 0 1032.2 832.6"
	 style="enable-background:new 0 0 1032.2 832.6;" xml:space="preserve">
<style type="text/css">
	.st0{opacity:0.1;fill:#7ADDF4;enable-background:new    ;}
	.st1{fill:#0AB9F1;}
	.st2{opacity:0.1;fill:#0AB9F1;enable-background:new    ;}
	.st3{opacity:0.1;fill:#FFFFFF;enable-background:new    ;}
	.st4{fill:#464353;}
	.st5{opacity:0.1;enable-background:new    ;}
	.st6{fill:url(#SVGID_1_);}
	.st7{opacity:0.1;}
	.st8{opacity:6.000000e-02;enable-background:new    ;}
	.st9{fill:#FBBEBE;}
	.st10{fill:#FFFFFF;}
	.st11{fill:#FED253;}
	.st12{fill:url(#SVGID_2_);}
	.st13{fill:#D6D8E1;}
	.st14{fill:#F86D70;}
</style>
<ellipse class="st0" cx="541.5" cy="416.3" rx="466.5" ry="362.7"/>
<g>
	<path class="st1" d="M398.2,412v-99.4h29.5v24.9h18.8v-24.9h29.5V412H398.2z M427.7,384.1h18.8V366h-18.8V384.1z M495.4,426.2
		c20.7,0,37.6,16.2,37.6,37.6c0,20.4-16.8,36.3-37.6,36.3c-20.1,0-37.2-15.9-37.2-36.3C458.1,442.4,475.3,426.2,495.4,426.2z
		 M495.4,473.2c5.8,0,9.4-4.5,9.4-9.4c0-5.2-3.6-9.4-9.4-9.4c-4.9,0-9.1,4.2-9.1,9.4C486.3,468.6,490.5,473.2,495.4,473.2z
		 M506.4,412V290.8h31.1v46.6h29.5V366h-29.5v46H506.4z"/>
	<path class="st1" d="M664.1,383.5V412h-77.7v-74.5h77.7V366h-46.6v17.5H664.1z M660.2,488.1v-62.2h31.1v33.7h34.3v28.5H660.2z
		 M694.5,412V290.8h31.1v46.6h29.5V366h-29.5v46H694.5z"/>
	<path class="st1" d="M843.5,337.5V412h-31.1v-46h-40.8v-28.5H843.5z M881.4,412V290.8h31.1V412H881.4z"/>
</g>
<title>warning</title>
<ellipse class="st2" cx="556.6" cy="658.2" rx="108.8" ry="18.4"/>
<ellipse class="st2" cx="660.2" cy="488.1" rx="270.8" ry="30.5"/>
<path class="st3" d="M257.1,571.1c2.7,7.4,3.7,16,0,24.3l-14.5,7.2c0,0-39-16.5-34.3-50.4c0,0,1.3-7,14.7-6.5
	C238.5,546.5,252,556.5,257.1,571.1z"/>
<path class="st3" d="M241.6,482c-0.5-11.9,6-16,11.3-17.3c-2.3-2.3-5.4-3.7-8.6-4c-3.7,3.1-6.3,7.3-7.5,12L223.2,539
	C223.2,539,242.4,502,241.6,482z"/>
<path class="st4" d="M477.6,657.8h163.1c5,0,9.1-4.1,9.1-9.2c0-1.5-0.4-3-1.1-4.3l-81.5-151.5c-2.4-4.4-7.9-6.1-12.4-3.7
	c-1.6,0.8-2.9,2.1-3.7,3.7l-81.6,151.5c-2.4,4.4-0.7,10,3.7,12.4C474.6,657.5,476.1,657.8,477.6,657.8z M569.5,630.2h-20.8v-20.8
	h20.8V630.2z M569.5,595.6h-20.8v-41.5h20.8V595.6z"/>
<path class="st5" d="M477.6,657.8h163.1c5,0,9.1-4.1,9.1-9.2c0-1.5-0.4-3-1.1-4.3l-81.5-151.5c-2.4-4.4-7.9-6.1-12.4-3.7
	c-1.6,0.8-2.9,2.1-3.7,3.7l-81.6,151.5c-2.4,4.4-0.7,10,3.7,12.4C474.6,657.5,476.1,657.8,477.6,657.8z M569.5,630.2h-20.8v-20.8
	h20.8V630.2z M569.5,595.6h-20.8v-41.5h20.8V595.6z"/>
<path class="st4" d="M477.6,662.8h163.1c5,0,9.1-4.1,9.1-9.2c0-1.5-0.4-3-1.1-4.3l-81.5-151.5c-2.4-4.4-7.9-6.1-12.4-3.7
	c-1.6,0.8-2.9,2.1-3.7,3.7l-81.6,151.5c-2.4,4.4-0.7,10,3.7,12.4C474.6,662.5,476.1,662.8,477.6,662.8z M569.5,635.2h-20.8v-20.8
	h20.8V635.2z M569.5,600.6h-20.8v-41.5h20.8V600.6z"/>
<linearGradient id="SVGID_1_" gradientUnits="userSpaceOnUse" x1="86.9326" y1="376.7465" x2="402.7855" y2="376.7465" gradientTransform="matrix(1 0 0 -1 -83.88 800.32)">
	<stop  offset="0" style="stop-color:#808080;stop-opacity:0.25"/>
	<stop  offset="0.54" style="stop-color:#808080;stop-opacity:0.12"/>
	<stop  offset="1" style="stop-color:#808080;stop-opacity:0.1"/>
</linearGradient>
<path class="st6" d="M316.1,622.8c-0.7-0.5-1.5-0.8-2.3-1.1c-2.7-1-5.5-1.3-8.2-2.2c-1.5-0.5-2.9-1.4-4.1-2.4
	c-0.2-0.2-0.4-0.4-0.6-0.6c1-0.6,1.9-1.3,2.9-1.8c-3-4.9-7.1-9.1-12.1-12c1.6-2.4,5.2-2.2,7.4-4.1c1.1-1.1,1.8-2.4,2-3.9
	c0.8-3.9-0.2-8-1.2-11.9c-1.9-7.6-3.8-15.2-6.9-22.3c-1.4-2.9-2.7-6-3.7-9.1c-2.6-8.6-0.8-18-2.7-26.8c-0.6-2.8-1.6-5.8-0.9-8.5
	c1.1-4.3,5.9-6.9,7-11.2c3.8-15.5,4.5-31.5,6.7-47.2c0.5-3,0.8-6,0.8-9.1c0-3.2-0.6-6.4-0.8-9.5c-0.6-8.9,1.2-17.9,1.9-26.8
	c1.7,2.8,2.9,5.8,3.6,9c0.4,2.9,0.5,5.9,0.2,8.9c-0.1,2-0.3,4-0.6,5.9c-0.5,2.3-1.4,4.5-1.9,6.9c-1.2,4.6-0.9,9.4,1,13.8
	c1.4,3,4.4,5.8,7.5,4.9c2.1-0.6,3.5-2.8,4.4-4.8c3-6.4,4.7-13.7,2.6-20.5c-1.3-4.5-4.2-8.6-4.5-13.3c0-1.9,0.1-3.8,0.4-5.6
	c1.2-10.9-1.5-21.8-2-32.7c-0.2-2.9,0.1-6.5-0.5-9.5c-0.1-0.4-0.2-0.7-0.3-1.1c0.3,0.1,0.5,0.2,0.7,0.3c0.8-1.8,0.7-3.8-0.1-5.6
	c-0.4-0.6-0.7-1.2-0.9-1.8c-0.4-1-0.3-2.2-0.8-3.1c-0.3-0.5-0.6-1-1-1.5c-1.3-1.9-1.4-4.3-1.4-6.6c-0.2-11.8-0.5-23.7-1-35.5
	c-0.3-6-0.6-12.1-2.7-17.8c-1.8-5-5.1-9.3-9.4-12.5c-0.7-0.5-1.4-0.9-2.1-1.3c0.4-0.9,0.6-1.8,0.6-2.7c0-0.3,0-0.6,0-0.9l-0.1-0.5
	l0,0c-0.4-2.1-1-4.1-2-6c-1.1-2-1.7-4.3-1.9-6.6c0-0.4,0-0.8,0.1-1.2l0,0c0.3-2.9,1.8-5.6,2.4-8.5c0.2-0.9,0.2-1.8,0.2-2.7
	c0-0.3,0-0.6,0-1l0,0c-0.4-3.5-1.5-7-3.2-10.1c-0.5-1-1-2-1.6-3c-0.3-1.9-0.5-3.7-0.8-5.6c-0.2-1.1-0.3-2.2-0.6-3.2
	c-0.1-0.5-0.2-1.1-0.4-1.6c1.5-1.5,0.6-3.6-0.3-5.6c-1.9-3.8-1.5-8.2-2.3-12.4c-0.6-2.9-1.6-5.7-2.9-8.3c-0.8-1.9-1.8-3.7-3.2-5.2
	c-1.2-1.2-2.6-2.2-4.1-3c-1.3-0.8-2.6-1.5-4.1-1.9c-0.9-0.2-1.8-0.2-2.7-0.4c-0.6-0.1-1.1-0.3-1.7-0.6c-1.1-0.6-2.3-1.1-3.6-1.3
	c-1.2,0-2.4,0.2-3.5,0.7c-1.2,0.5-2.4,0.9-3.7,1c-0.5,0-0.9,0-1.4,0c-0.7-0.1-1.3,0.1-1.9,0.5c-0.3,0.3-0.6,0.5-0.8,0.8
	c-0.7,0.7-1.5,1.2-2.4,1.6c-7.2,4.2-11.6,12-11.7,20.3c0.1,1.1,0,2.2-0.3,3.3c-0.3,0.8-0.9,1.6-1.1,2.4c-0.2,0.7-0.2,1.5-0.1,2.3
	c0.1,1.2,0.2,2.3,0.3,3.5l0,0c-0.7,0.9-1.2,2.1-1.5,3.2l0,0c0,0.2-0.1,0.4-0.1,0.6v0.1l0,0c-0.1,2.1,0.9,4,1.5,6
	c1,3.9,0.9,8-0.3,11.8c-0.7,2.6-1.8,5.4-2,8l0,0c0,0.1,0,0.1,0,0.2c-0.1,1.4,0,2.7,0.5,4c0.3,0.9,0.8,1.8,1.1,2.7
	c1.1,3.3-0.5,6.7-2.5,9.5l0,0c-0.3,0.5-0.6,0.9-1,1.3h0l0,0l2.1,1.5c-0.6,0.3-1.2,0.7-1.8,1c-2.4,0.4-4.7,1.2-6.8,2.5
	c-2,1-3.8,2.2-5.5,3.7c-1.8,1.8-3.2,3.8-4.3,6c-1.4,2.5-2.6,5.1-3.7,7.8c-0.9,2.1-1.6,4.4-1.9,6.7c-0.9,1.8-1.6,3.8-2.4,5.6
	c-0.4,0.9-0.8,1.8-1.2,2.7l-34.4-84.3l-5.3,2.2l0.4,1l-1.1,0.5l1.5,3.7c-0.2,0.1-0.4,0.3-0.6,0.5l-0.3,0.2l-0.6,0.4l-0.3,0.2
	l-0.6,0.5l-0.2,0.2l-0.7,0.6l0,0c-0.8,0.7-1.5,1.4-2.2,2.1l-1.8,1.9l-0.4,0.4l-0.6,0.6l-0.3,0.4l-0.9,0.9l-0.1,0.1l-0.5,0.5
	l-0.3,0.3c-0.1,0.1-0.3,0.3-0.4,0.4l-0.4,0.4l-0.7,0.6l-0.2,0.2l-0.9,0.7c-1.3,1-2.6,1.8-4,2.6c-5.5,2.8-11.3,5.2-16.6,8.2
	c-2.9,1.6-5.7,3.6-8.2,5.8c-3.5,3.1-6.5,7-10.6,9.3l-0.4,0.2c-7.2,3.7-15.8,1.5-24,1.3c-1.2,0-2.4,0-3.6,0.1
	c-6.7,0.5-12.8,3.2-18.7,6.5c-4.2,2.3-8.2,5-12.3,7.3c-2.6,1.5-5.2,3.1-7.8,4.8c-6.6,4.2-13.3,8.6-20.2,11.8c-6.4,2.9-13,4.8-20,4.5
	H5.1c-0.7,0-1.3-0.1-2-0.2c-0.7,5.2,3.6,9.5,6.3,14.1c1.3,2,2.2,4.3,2.4,6.7c0,0.9,0,1.8-0.2,2.7c-0.6,3.2-2.1,6.4-1.7,9.7
	c0.2,1.9,1,3.7,2.1,5.3c1.8,2.5,4.2,4.8,5.9,7.5c2.5,4,3.2,8.9,4.2,13.6c0.5,3.3,1.7,6.5,3.3,9.4c2.2,3.5,5.5,6,8.6,8.7
	c0.6,0.5,1.1,1,1.7,1.5c0.4,0.4,0.8,0.7,1.2,1.1c3.6,3.7,6.3,9.4,4.1,14.1c-0.1,0.2-0.2,0.3-0.2,0.5c0.2,0.1,0.4,0.2,0.6,0.3
	c2.8,1.4,6.3-0.8,8.6-3.1c1.1-1.1,2.2-2.3,3.2-3.5c2.8-3.1,5.4-6.5,8-9.7c0.7-0.9,1.4-1.7,2.2-2.6c2.8-3.2,6.1-5.9,9.9-8
	c1.9-1,4-1.8,6.1-2.5c3.1-1,6.3-1.7,9.4-2.7c4.3-1.4,8.4-3.1,12.4-5.2c6.9-3.7,13.6-7.9,20-12.4l1-0.6c2.2-1.4,4.1-3,6-4.8
	c0.3-0.4,0.6-0.7,0.9-1.1c1.6-2,2.6-4.4,4-6.5c1.5-2.1,3.4-4,5.6-5.4c6.2-4.1,14.4-5.7,21.7-8h0.1c12.8-3.9,24.6-10.9,34.2-20.3
	l5.5,13.4c-0.6,1.6-1.1,3.2-1.6,4.8c-1.2,4-2.2,8.1-4.6,11.5c-0.8,0.9-1.4,2-1.7,3.1c0,0.8-0.2,1.7-0.4,2.5c-0.3,0.7-1,1.1-1.3,1.8
	c-0.4,1,0.1,2.3-0.4,3.2c-0.3,0.4-0.6,0.7-1,1c-1.4,1.3-1.8,3.3-1.8,5.1c0.1,1.9,0,3.7-0.5,5.5c0.4-0.2,0.8-0.5,1.3-0.7
	c-0.1,0.3-0.1,0.7-0.1,1c0,0.9,0.1,1.9,0.4,2.8c0.7,2.1,1.7,4,2.9,5.8c0.9,1.6,2,3.1,3.1,4.5c2,2.2,4.2,4.2,6.6,5.9l10.1,7.8l-1,4.2
	c-2.2,8.8-4.4,17.8-4.5,26.9c0,4.3,0.3,8.6,0.8,12.9l0.9,8.8c0.7,7.1,1.4,14.1,2.2,21.2c0.5,4.5,1,9,2.6,13.2
	c2.4,6.4-0.2,13.7,0.8,20.4c0.8,5.3,2.4,10.8,0.8,15.9c-0.6,2-1.8,3.9-2.6,5.9c-2,4.9-2.3,10.4-2.4,15.7c-0.3,4.7-0.2,9.4,0.5,14
	c0.9,4.8,2.8,9.5,2.4,14.3c-0.5,6.9-5.6,12.8-6.2,19.7c-0.5,5.5,1.9,10.8,4.5,15.7c1.9,3.6-0.8,8.2-1.8,12.2
	c-2,7.8,1.3,15.8,5.4,22.7c0.1,0.2,0.3,0.4,0.5,0.5c0.5,0.2,0.9-0.3,1.2-0.7s0.4-0.5,0.6-0.7c0,0.3,0.1,0.6,0.1,0.9c0,0.7,0,1.3,0,2
	c0,2.5,0.4,5,1.4,7.4c0.2,0.5,0.3,0.9,0.6,1.3c0.2,0.6,0.6,1.1,1,1.6c1.1,1,2.5,1.6,4,1.7c3.3,0.4,6.7-0.3,10-0.6
	c3.5-0.3,7-0.2,10.6-0.2c0.3,0,0.5,0,0.8-0.2c0.2-0.2,0.4-0.4,0.5-0.7c0.4-1.3,0.4-2.6,0.2-3.9c-0.2-1.1-0.4-2.1-0.8-3.1
	c-0.5-1.7-0.9-3.3-1.3-5c-0.1-0.3-0.1-0.6-0.2-0.9l0.2,0.1c2.2-4.8,4.3-9.7,6.5-14.5c1.1-2.5,2.2-5.1,1.7-7.7
	c-0.4-1.9-1.6-3.5-2.4-5.2c-2-4.1-2.1-8.8-2.1-13.3l-0.1-25.7c5-6.4,8.1-13.9,10-21.8c3,11.1,3.2,22.8,0.6,34
	c-0.5,1.7-0.8,3.4-1,5.2c-0.4,7.1,5.2,13.2,6.6,20.2c0.1,0.5,0.2,1.1,0.1,1.6c-0.2,0.7-0.4,1.3-0.8,1.9c-2.7,4.9-2.4,10.8-2,16.3
	l1.2,0.2c0.3,0.5,0.7,0.9,1.2,1.2l0,0c0.5,0.3,1,0.5,1.5,0.6c1.9,0.4,3.9,0.7,5.8,0.9c2.8,0.3,5.6,0.6,8.5,0.7
	c1.1,0.1,2.2,0.1,3.4,0.2c1.6,0,3.1,0.1,4.7,0.3c1.7,0.4,3.4,0.8,5,1.5c7.3,2.4,15.5,3.8,22.5,0.8c1.6-0.6,3-1.6,4.1-2.9
	c1.8-2,1.7-5-0.3-6.8C316.9,623.2,316.5,622.9,316.1,622.8L316.1,622.8z M219.4,337.7c1.1,2.1,2.1,4.2,3,6.4c1.7,4.2,2.8,9,1.7,13.4
	c-0.3,1.3-2.4,2.3-2.4,3.6c-0.1,0.1-0.1,0.2-0.2,0.3l-6.5-16C216.3,342.8,217.7,340.2,219.4,337.7z M212.2,371.7
	c-1.4-1.9-2.6-3.9-3.5-6.1c-0.1-0.3-0.2-0.5-0.4-0.8c0.4-0.2,0.7-0.4,1-0.7c1-1.3,0.5-3.1,0.6-4.7c0.2-1.4,0.8-2.8,1.6-4l6.1,15
	c-0.6,1.6-1.2,3.3-1.7,4.9C214.6,374.2,213.4,373,212.2,371.7z"/>
<path class="st4" d="M233.8,236.7c-0.1,2.1,0.9,4,1.5,6c1,3.9,0.9,7.9-0.3,11.7c-1.1,4-3,8.2-1.6,12.1c0.3,0.9,0.8,1.8,1.1,2.7
	c1.2,3.8-1.1,7.8-3.6,10.9l9.9,6.9c1.4,1.2,3.2,2,5,2.4c1.9,0.2,4-0.8,4.4-2.6c0.1-0.6,0-1.3,0.1-1.9c0.2-1.7,1.3-3.1,2.8-3.8
	c1.5-0.7,3.1-1,4.8-0.9c6.1,0.3,11.2,4.3,16.8,6.9c3.6,1.6,7.4,2.8,11.3,3.7c2.2,0.6,4.6,1.1,6.6,0s2.9-3.6,2.7-5.9
	c-0.3-2.3-1-4.5-2.1-6.5c-1.1-2-1.7-4.3-1.9-6.5c0-3.4,1.8-6.4,2.5-9.7c0.9-4.7-0.9-9.5-3.1-13.7s-4.8-8.4-5.8-13
	c-0.2-1.4-0.6-2.8-1.1-4.1c-0.5-1-1.2-1.9-2-2.7c-3.7-3.7-9-5.4-14.2-5.8s-10.4,0.5-15.5,1.4c-2,0.3-3.9,0.7-5.8,1.4
	c-2.7,1.1-5.2,2.4-7.6,4.1C236.4,231.4,234,233.8,233.8,236.7z"/>
<g class="st7">
	<path d="M291.3,269.9c0,0.3,0,0.6,0.1,0.9c0.3-2.9,1.9-5.7,2.4-8.6c0.2-1.2,0.3-2.4,0.2-3.6c0,0.5-0.1,1-0.2,1.6
		C293.1,263.5,291.2,266.5,291.3,269.9z"/>
	<path d="M236,246.7c0.1-2-0.1-4.1-0.7-6c-0.6-1.5-1.1-3.1-1.5-4.7c0,0.2-0.1,0.4-0.1,0.6c-0.1,2.1,0.9,4,1.5,6
		C235.7,244,236,245.4,236,246.7z"/>
	<path d="M295.3,284.5c-0.1,1.8-1.1,3.4-2.7,4.4c-2,1.1-4.4,0.6-6.6,0c-3.9-0.9-7.6-2.2-11.3-3.8c-5.5-2.5-10.7-6.5-16.8-6.9
		c-1.6-0.1-3.3,0.2-4.8,0.9c-1.5,0.8-2.5,2.2-2.8,3.8c-0.1,0.6,0,1.3-0.1,1.9c-0.4,1.8-2.5,2.8-4.4,2.6c-1.8-0.4-3.6-1.2-5-2.4
		l-8.9-6.2c-0.3,0.5-0.7,0.9-1,1.3l9.9,6.9c1.4,1.2,3.2,2,5,2.4c1.9,0.2,4-0.8,4.4-2.6c0.1-0.6,0-1.3,0.1-1.9
		c0.2-1.7,1.3-3.1,2.8-3.8c1.5-0.7,3.1-1,4.8-0.9c6.1,0.3,11.2,4.3,16.8,6.9c3.6,1.6,7.4,2.8,11.3,3.8c2.2,0.6,4.6,1.1,6.6,0
		s2.9-3.6,2.7-5.9C295.3,284.8,295.3,284.6,295.3,284.5z"/>
	<path d="M234.6,269.2c0.1,0.4,0.2,0.8,0.3,1.2c0.2-1.1,0.1-2.2-0.3-3.2c-0.3-0.9-0.8-1.8-1.1-2.7c-0.2-0.7-0.4-1.4-0.5-2.1
		c-0.1,1.4,0,2.8,0.5,4.1C233.8,267.5,234.3,268.3,234.6,269.2z"/>
</g>
<path class="st4" d="M246.4,648.7c-0.1,0.3-0.2,0.5-0.5,0.7c-0.2,0.1-0.5,0.2-0.8,0.2c-3.6,0.1-7.1,0-10.7,0.2
	c-3.4,0.3-6.7,1-10.1,0.6c-2.2,0.1-4.2-1.2-5-3.3c-0.2-0.4-0.4-0.9-0.6-1.3c-0.9-2.4-1.4-4.9-1.4-7.4c0-0.7,0-1.3,0-2
	c0-0.7-0.1-1.5-0.3-2.2c-0.3-0.8-0.3-1.7,0.1-2.5c1.4-2.6,4.9-3.1,7.5-3.3c6.1-0.5,12.3,0,18.2,1.3c0.5,2.3,1,4.6,1.6,6.9
	c0.4,1.7,0.9,3.3,1.3,5c0.3,1,0.6,2.1,0.8,3.1C246.9,646,246.8,647.4,246.4,648.7z"/>
<path class="st8" d="M246.4,648.7c-0.1,0.3-0.2,0.5-0.5,0.7c-0.2,0.1-0.5,0.2-0.8,0.2c-3.6,0.1-7.1,0-10.7,0.2
	c-3.4,0.3-6.7,1-10.1,0.6c-2.2,0.1-4.2-1.2-5-3.3c-0.2-0.4-0.4-0.9-0.6-1.3h1.3c4.2,0,8.4-0.2,12.6-0.2c1.3,0,2.5-0.1,3.8-0.2
	s2.3-0.4,3.4-0.5c1.7-0.2,3.5-0.2,5.2-0.2h1.4C246.8,646.1,246.8,647.4,246.4,648.7z"/>
<path class="st4" d="M320,630.1c-1.1,1.3-2.5,2.3-4.1,2.9c-7.1,3-15.4,1.7-22.7-0.8c-1.6-0.6-3.3-1.1-5-1.5
	c-1.6-0.2-3.1-0.3-4.7-0.3c-1.1,0-2.3-0.1-3.4-0.2c-2.9-0.2-5.7-0.5-8.5-0.7c-2-0.1-3.9-0.4-5.9-0.9c-0.5-0.1-1.1-0.4-1.6-0.6l0,0
	c-0.9-0.4-1.4-1.2-1.4-2.2c0.1-1.3,1.4-2,2.6-2.5c10.3-4.5,21.5-6.4,32.6-7.9c1.1-0.2,2.2-0.5,3.3-1c1.2-0.5,1.4,0.3,2,1.2
	c0.3,0.4,0.6,0.8,1,1.2c1.2,1.1,2.6,1.9,4.2,2.4c2.7,1,5.6,1.3,8.3,2.2c0.8,0.3,1.6,0.7,2.3,1.1c2.3,1.3,3.2,4.2,1.9,6.5
	C320.5,629.5,320.2,629.8,320,630.1L320,630.1z"/>
<path class="st8" d="M320,630.1c-1.1,1.3-2.5,2.3-4.1,2.9c-7.1,3-15.4,1.7-22.7-0.8c-1.6-0.6-3.3-1.1-5-1.5
	c-1.6-0.2-3.1-0.3-4.7-0.3c-1.1,0-2.3-0.1-3.4-0.2c0.9-0.9,1.9-1.7,2.8-2.5c0.7-0.7,1.5-1.2,2.4-1.6c1.1-0.4,2.2-0.4,3.4-0.2
	c5.7,0.8,10.9,4.8,16.6,4.5c2.7-0.3,5.3-1.1,7.6-2.5c1.9-0.8,3.6-2,5-3.6c0.4-0.5,0.7-1.1,0.9-1.8c2.3,1.3,3.2,4.2,1.9,6.5
	C320.5,629.5,320.3,629.8,320,630.1L320,630.1z"/>
<path class="st9" d="M318,456.3c-1,2-2.3,4.2-4.4,4.8c-3.1,0.9-6.2-1.9-7.5-4.9c-1.9-4.3-2.2-9.2-1-13.8c0.6-2.3,1.4-4.5,1.9-6.9
	c0.4-2,0.6-3.9,0.6-5.9c0.3-3,0.2-5.9-0.2-8.9c-1.6-8.6-9-15-11.5-23.4c-1.2-4.2-1.2-8.7-1.1-13.1c0-1.1,0.1-2.2,0.3-3.3
	c0.1-0.3,0.2-0.6,0.3-0.9c1.6-3.7,6.5-4.2,9.9-6.3c1.9-1.2,6.1-4.9,7.7-1.5c0.3,0.8,0.6,1.6,0.8,2.4c0.6,3.1,0.4,6.6,0.5,9.5
	c0.6,10.9,3.3,21.8,2.1,32.7c-0.3,1.9-0.4,3.7-0.4,5.6c0.3,4.7,3.2,8.8,4.6,13.3C322.7,442.6,321,450,318,456.3z"/>
<path class="st5" d="M313.9,374.8c-0.7-0.3-1.6-0.3-2.3,0l-6.8,2c-2.4,0.6-4.7,1.5-6.9,2.5c-1,0.5-1.9,1-2.8,1.7
	c0.1-0.3,0.2-0.6,0.3-0.9c1.6-3.7,6.5-4.2,9.9-6.3c1.9-1.2,6.1-4.9,7.7-1.5C313.5,373.1,313.8,373.9,313.9,374.8z"/>
<path class="st4" d="M314.4,374c-0.8-0.5-1.8-0.6-2.7-0.2l-6.8,2c-2.4,0.6-4.7,1.5-6.9,2.5c-1.2,0.6-2.3,1.3-3.3,2.1
	c-3.2-5.5-4-12-4.6-18.3c-0.3-3.7-0.6-7.4-0.7-11c-0.2-2.6-0.1-5.3,0.2-7.9c0.4-3,1.2-5.9,1.8-8.9c0.3-1.7,0.5-3.5,0.6-5.3
	c0.3-3.9,0.1-7.8-0.5-11.6c-0.6-4.1-1.5-8.1-2.8-12c-0.6-1.8-1.4-3.5-2.1-5.3l-0.2-0.6c-1.3-3.2-2.3-6.5-3.1-9.9
	c-0.3-1.4-0.3-2.8-1.4-3.8c1-0.1,2-0.2,3-0.1c0.2,0,0.4,0,0.6,0c4.1,0.3,8.1,1.6,11.4,4c4.3,3.1,7.6,7.5,9.5,12.5
	c2.1,5.6,2.5,11.8,2.7,17.8c0.5,11.8,0.9,23.6,1,35.5c0,2.3,0.1,4.7,1.4,6.6c0.4,0.5,0.7,0.9,1,1.5c0.5,1,0.4,2.1,0.8,3.1
	c0.3,0.6,0.6,1.2,1,1.8C315.1,370.2,315.2,372.2,314.4,374z"/>
<path class="st9" d="M247.8,256.6c-1-0.3-2-0.7-3-1l2.1,0.2C247.2,256,247.6,256.3,247.8,256.6z"/>
<path class="st9" d="M288.8,292.7c-0.2,0.7-0.4,1.4-0.6,2c-0.5,1.6-1.1,3.3-1.9,4.8c-1.1,2.6-2.7,4.9-4.7,6.9
	c-0.7,0.7-1.5,1.2-2.4,1.6c-0.8,0.2-1.5,0.3-2.3,0.2c-2.7,0-5.3,0-8-0.1c-2.1,0-4.1-0.2-6.2-0.6c-2.2-0.6-4.4-1.6-6.3-2.8
	c-7.5-4.6-13.6-11.7-16.2-20c-0.3-1.1-0.6-2.3,0.2-3.2c0.7-0.6,1.6-0.9,2.5-0.9h0.1c2.1-0.3,4.2-1,6.1-2.1c1.2-0.6,2.2-1.6,2.8-2.8
	c0.4-1.5,0.4-3-0.1-4.4l-2.2-10.1c-0.2-1.6-0.8-3.2-1.8-4.5c0.6,0.2,1.3,0.4,2,0.6c6.2,1.7,12.9,0.7,19,2.9c2.3,0.9,4.6,2.4,5.3,4.8
	c1.2,4-2.7,8.1-1.6,12.1c0.8,2.7,3.5,4.3,6,5.6l1.7,0.9l4.6,2.4l0.6,0.3l0.1,0c1.5,0.7,3,1.7,3.5,3.2
	C289.3,290.5,289.2,291.7,288.8,292.7z"/>
<path class="st5" d="M301,316.2c-0.2,2.6-0.8,5.1-1.8,7.4c-2,4-3.1,8.5-3.1,13c-0.8,13.5-5.9,29.6,1.5,40.9c0.2,0.3,0.4,0.6,0.5,0.9
	c-1.2,0.6-2.3,1.3-3.3,2.1c-3.2-5.5-4-12-4.6-18.3c-0.3-3.7-0.6-7.4-0.7-11c-0.2-2.6-0.1-5.3,0.2-7.9c0.4-3,1.2-5.9,1.8-8.9
	c0.3-1.7,0.5-3.5,0.6-5.3c0.3-3.9,0.1-7.8-0.5-11.6c-0.6-4.1-1.5-8.1-2.8-12c-0.6-1.8-1.4-3.5-2.1-5.3l-0.2-0.6
	c-1.1,2.6-2.7,4.9-4.7,6.9c-0.7,0.7-1.5,1.2-2.4,1.6c-0.8,0.2-1.5,0.3-2.3,0.2c-2.7,0-5.3,0-8-0.1c-2.1,0-4.1-0.2-6.2-0.6
	c-2.2-0.6-4.4-1.6-6.3-2.8c-7.5-4.6-13.6-11.7-16.2-20c-0.3-1.1-0.6-2.3,0.2-3.2c0.7-0.6,1.6-0.9,2.5-0.9h0.1l9,11.1
	c1,1.2,1.9,2.5,2.6,3.9c0.1,0.5,0.4,0.9,0.8,1.2c0.3,0.1,0.7,0.2,1,0.2c8.5,0,19.7,0,28.2,0c0-1.5-0.4-3-1.2-4.2
	c-0.3,0.1-0.6,0.1-0.1-0.1c-0.5-3.2-1.5-6.4-3.1-9.3c-0.1-0.2-0.2-0.4-0.3-0.6c-0.7-1-1.2-2.1-1.5-3.2c1.1-0.3,2.2-0.3,3.3,0
	c1.2,0.5,1.9,1.9,2.4,3.1c0.5,1,0.9,2.1,1.3,3.1c0,0.1,0.1,0.2,0.1,0.3c0.9,2.1,1.4,4.3,1.7,6.5c0.1,0.8,0.3,1.9,0.9,2.1
	c0.1,0,0.2,0.1,0.3,0.1c1.4-0.5,3.1-0.1,4.1,1c1,1.1,1.7,2.5,2,3.9c0.3,1.5,0.8,2.9,1.4,4.2c1.3,2.5-0.7,3.6,1.6,5.1
	c1.1,0.6,2,1.4,2.7,2.5C301,313.1,301.2,314.7,301,316.2z"/>
<path class="st5" d="M242.9,629.8c0.5,2.3,1,4.6,1.6,6.9l-0.1,0.1c-4.6-2-9.2-4.1-14.2-4.5c-4.6-0.4-9.7,0.8-12.8,4.2
	c0-0.7-0.1-1.5-0.3-2.2c-0.3-0.8-0.3-1.7,0.1-2.5c1.4-2.6,4.9-3.1,7.5-3.3C230.8,628,236.9,628.4,242.9,629.8z"/>
<path class="st5" d="M282.3,294.7C282.8,294.7,282.6,294.7,282.3,294.7C282.1,294.8,281.7,294.9,282.3,294.7z"/>
<path class="st5" d="M304,616.8c-4.5,2.8-8.7,6.1-12.5,9.7c-1.1,1.2-2.5,2.2-4,2.9c-1.5,0.5-3.2,0.7-4.8,0.5
	c-6.3-0.3-12.6-0.9-18.8-1.9l0,0c-0.9-0.4-1.4-1.2-1.4-2.2c0.1-1.3,1.4-2,2.6-2.5c10.3-4.5,21.5-6.4,32.6-7.9c1.1-0.2,2.2-0.5,3.3-1
	c1.2-0.5,1.4,0.3,2,1.2C303.3,616.1,303.6,616.5,304,616.8z"/>
<path class="st1" d="M230.6,283.1c1.5,1.3,3.1,2.4,4.6,3.6c4,3.4,6.5,8.1,9,12.8c-1.5,0.5-3.1,0.6-4.6,0.3c-0.8,4.4-0.7,9,0.4,13.4
	c-2,1.4-3.6,3.3-4.5,5.5c-0.7,2.3-1.2,4.6-1.5,7c-1.4,10.4-2.9,20.8-4.3,31.2c0,1-0.4,2-1,2.8c-0.3,0.2-0.5,0.5-0.8,0.8
	c-0.3,0.7-0.4,1.4-0.4,2.1c-0.1,0.7-0.5,1.6-1.3,1.5c-0.4-0.1-0.7-0.3-0.9-0.6c-0.7-0.8-1.4-1.6-2-2.5c-5.9,11.3-8.7,23.5-11.9,35.9
	c-2.2,8.8-4.5,17.7-4.6,26.8c0,4.3,0.3,8.6,0.8,12.9l0.9,8.8c0.7,7.1,1.4,14.1,2.2,21.2c0.5,4.5,1,9,2.6,13.2
	c2.4,6.4-0.3,13.6,0.8,20.4c0.8,5.3,2.4,10.8,0.8,15.9c-0.6,2-1.8,3.9-2.6,5.9c-2.1,4.9-2.3,10.4-2.5,15.7c-0.3,4.7-0.1,9.4,0.5,14
	c0.9,4.8,2.8,9.5,2.4,14.3c-0.5,6.9-5.6,12.8-6.2,19.7c-0.5,5.5,1.9,10.8,4.5,15.7c1.9,3.6-0.8,8.2-1.8,12.2
	c-2,7.7,1.3,15.8,5.4,22.7c0.1,0.2,0.3,0.4,0.5,0.5c0.5,0.2,0.9-0.3,1.2-0.7c3.1-3.9,8.5-5.4,13.5-5s9.7,2.5,14.2,4.5l6.5-14.4
	c1.1-2.5,2.2-5.1,1.7-7.7c-0.4-1.9-1.6-3.5-2.5-5.2c-2-4.1-2.1-8.8-2.1-13.3l-0.1-25.7c5.1-6.4,8.1-13.9,10.1-21.8
	c3,11.1,3.2,22.8,0.6,34c-0.5,1.7-0.8,3.4-1,5.2c-0.4,7.1,5.2,13.2,6.7,20.1c0.1,0.5,0.2,1.1,0.1,1.6c-0.2,0.7-0.4,1.3-0.8,1.9
	c-2.7,4.9-2.4,10.8-2,16.3c7,1.2,14.1,2,21.2,2.3c1.6,0.2,3.2,0,4.8-0.5c1.5-0.7,2.8-1.7,4-2.9c4.5-4.3,9.5-8,14.9-11.2
	c-3-5-7.2-9.1-12.1-12c1.6-2.4,5.3-2.2,7.4-4.1c1.1-1.1,1.8-2.4,2-3.9c0.8-3.9-0.2-8-1.2-11.8c-1.9-7.6-3.9-15.2-7-22.3
	c-1.4-2.9-2.7-6-3.8-9c-2.6-8.6-0.8-18-2.8-26.8c-0.6-2.8-1.7-5.7-1-8.5c1.1-4.3,6-6.9,7.1-11.2c3.9-15.5,4.6-31.5,6.8-47.2
	c0.5-3,0.8-6.1,0.8-9.1c0-3.2-0.6-6.4-0.8-9.5c-0.9-12.7,3.2-25.4,2.1-38.1c-0.7-7.8-3.2-15.4-7.5-22c-7.4-11.4-2.2-27.4-1.5-40.9
	c0.1-4.5,1.1-9,3.1-13c1.1-2.3,1.7-4.8,1.9-7.4c0.3-1.6,0.1-3.2-0.6-4.7c-0.7-1-1.6-1.9-2.7-2.5c-2.3-1.5-0.4-2.6-1.6-5.1
	c-0.6-1.4-1.1-2.8-1.4-4.2c-0.3-1.5-1-2.8-2-3.9c-1-1.1-2.7-1.5-4.1-1c-1,0-1.2-1.3-1.3-2.2c-0.3-3.5-1.7-6.8-3.1-10
	c-0.5-1.2-1.2-2.6-2.4-3.1c-1.1-0.3-2.2-0.3-3.3,0c0.3,1.2,0.8,2.3,1.5,3.2c1.7,3,2.9,6.4,3.4,9.8c-1,0.3,1,0,0,0
	c0.9,1.2,1.4,2.8,1.3,4.3c-8.4,0-19.7,0-28.1,0c-0.3,0-0.7,0-1-0.2c-0.4-0.3-0.7-0.7-0.8-1.2c-0.7-1.4-1.6-2.7-2.6-3.9l-9.9-12.2
	c-0.2-0.3-0.5-0.6-0.9-0.8c-0.4-0.1-0.8-0.1-1.2,0C235.8,280.1,233.4,281.5,230.6,283.1z"/>
<path class="st5" d="M266.2,448.5c1.7,0,3.4,0.4,4.9,1.3c1.5,0.9,2.4,2.5,2.4,4.2c-0.1,1.9-1.6,3.4-2.6,5c-0.6,1-1.2,2-1.5,3.2
	c-0.1,0.3-0.1,0.5-0.1,0.8c0.1,0.4,0.5,0.6,0.9,0.7c2.6,1.2,4.3,3.7,4.4,6.6c-0.1,3.9-3.9,7.1-3.7,11c0.1,0.8,0.2,1.6,0.4,2.4
	c0.5,3.4,0,6.8-1.4,9.9c-1.2,3.1-2.9,6.1-4.2,9.2c-3.5,8.5-4.3,17.8-4,27c0.2,6.2-2,12.2-4,18.1c1.1-12,1.4-24,0.9-36
	c-0.1-3.3-0.5-6.3-0.4-9.6c0.2-5.2,3.1-9.9,3.9-15c0.4-2.9,0.1-5.9,0.2-8.8c0.1-6,1.8-11.9,1.9-17.9
	C264.4,456.3,264,451.9,266.2,448.5z"/>
<path class="st4" d="M224.4,285.2c-2,1-3.8,2.2-5.5,3.7c-1.8,1.8-3.2,3.8-4.4,6c-1.4,2.5-2.6,5.1-3.7,7.8c-1.4,3.4-2.6,7.2-1.6,10.8
	c0.9,3.2,3.4,5.8,5.1,8.7s2.7,6.3,4,9.5c1.8,4.2,4.2,8.2,5.9,12.4s2.8,9,1.7,13.4c-0.3,1.3-2.4,2.3-2.4,3.6c0,2.2,3.2,4.6,5.3,5.2
	c2.4,0.8,5.1-0.4,7.1-2c3.6-2.9,5.9-7.2,7.5-11.6c2.6-7,4-14.4,5.3-21.8c0.9-5.4,1.8-10.9,2.3-16.3c0.5-4.9,0.6-10-0.7-14.7
	c-1.2-4.3-3.6-8.3-6.8-11.4c-2.6-2.5-6.9-5.9-10.6-6C229.8,282.6,227,283.8,224.4,285.2z"/>
<path class="st9" d="M252.9,405.8c-0.2,1.4-1,2.6-2.2,3.3c-1.2,0.7-2.5,1.2-3.8,1.6c-2.7,0.8-5.5,1.5-8.2,0.8
	c-2.1-0.7-4.1-1.8-5.8-3.3L202.5,385c-2.4-1.7-4.7-3.7-6.7-5.9c-1.1-1.4-2.2-2.9-3.2-4.5c-1.3-1.8-2.3-3.8-2.9-5.8
	c-0.2-0.9-0.4-1.9-0.4-2.8c0-0.9,0.2-1.8,0.6-2.6c0.7-1.2,2.3-1.5,3.6-1.8c4.3-1.1,8.8-1.4,13.2-1c0.8,0,1.5,0.5,1.8,1.2
	c0.7,1.2,1.2,2.5,1.9,3.8c0.9,2.2,2.1,4.2,3.6,6.1c1.4,1.5,2.9,3,4.5,4.3c3.2,3,5.8,6.6,9.2,9.4c4,3.2,8.8,5.1,13.2,7.5
	s8.9,5.4,11.2,10C252.6,403.7,252.9,404.7,252.9,405.8z"/>
<path class="st5" d="M287.9,244.1c0,13.7-11.1,24.8-24.8,24.8c-13.7,0-24.8-11.1-24.8-24.8c0-13.7,11.1-24.8,24.8-24.8
	c11.4,0,21.4,7.8,24.1,19C287.7,240.2,287.9,242.1,287.9,244.1z"/>
<path class="st9" d="M287.9,243.1c0,13.7-11.1,24.8-24.8,24.8c-13.7,0-24.8-11.1-24.8-24.8c0-13.7,11.1-24.8,24.8-24.8
	c11.4,0,21.4,7.8,24.1,19C287.7,239.2,287.9,241.1,287.9,243.1z"/>
<path class="st5" d="M210.4,365.5c-1.1,0.7-2.8,0.5-4.2,0.2c-5.6-1.2-11.7-2.1-16.8,0.2c0-0.9,0.2-1.8,0.6-2.6
	c0.7-1.2,2.3-1.5,3.6-1.8c4.3-1.1,8.8-1.4,13.2-1c0.8,0,1.5,0.5,1.8,1.2C209.2,363,209.8,364.2,210.4,365.5z"/>
<path class="st4" d="M200,331.9c-1.2,4-2.2,8.1-4.6,11.5c-0.8,0.9-1.4,1.9-1.8,3.1c0,0.8-0.2,1.7-0.4,2.5c-0.3,0.7-1.1,1.1-1.4,1.8
	c-0.4,1,0.1,2.3-0.4,3.2c-0.3,0.4-0.6,0.7-1,1c-1.4,1.3-1.7,3.3-1.7,5.1s0.1,3.8-0.5,5.5c5.3-3.1,12-2.2,18-0.9
	c1.7,0.4,3.7,0.6,4.8-0.7s0.5-3.1,0.6-4.7c0.2-2.1,1.6-3.8,2.5-5.8c1-2.1,1.3-4.5,2.1-6.8c1.6-4.7,5-8.5,7.2-13
	c0.8-1.5,1.3-3.2,1.4-4.9c-0.1-2.2-0.7-4.4-1.7-6.4c-2.1-4.6-4.6-9-7.4-13.2c-1.3-1.9-3.5-5.3-5.4-2.3c-1.6,2.4-2.6,5.5-3.8,8.1
	C204,320.5,201.8,326.1,200,331.9z"/>
<path class="st4" d="M290.2,293c-6.1,0.4-12-1.9-16.2-6.4c-0.3-0.3-0.6-0.7-0.7-1.2c-0.1-0.6,0.1-1.2,0.5-1.6
	c1.2-1.9,3.3-3.1,4.2-5.1s0.6-4.3,0.7-6.5c0.2-3.9,1.7-7.8,1.8-11.6c0-1,0-2-0.2-2.9c-0.5-1.4-0.7-2.9-0.8-4.4
	c0.1-2.9,2.8-5.2,3.2-8.1c0.6-3.7-2.5-6.9-5.5-9c-2.3-1.6-4.9-2.9-7.6-3.9c-1.6-0.6-3.3-1-5.1-1.2c-3.2-0.4-6.5-0.1-9.6,1.1
	c-1.3,0.5-2.5,1.1-3.6,1.9c-0.7,0.4-1.2,1-1.6,1.6c-0.3,0.8-0.5,1.6-0.4,2.4c-0.1,4.1,0.4,8.4-1.5,12c-1,1.9-2.7,3.5-3.5,5.5
	c-0.3,0.8-0.6,1.7-0.6,2.6c-0.1,0.9-0.2,1.9-0.1,2.8c-0.1,5.3,0,10.8,2.7,15.4c0.9,1.4,1.8,2.8,2.6,4.3c0.8,1.5,0.7,3.3-0.2,4.8
	c-0.5,0.6-1.2,1.2-2,1.5c-4,1.9-8.6,2.1-12.8,0.5c4.9-4.6,6.4-11.9,3.8-18.1c-0.7-1.2-1.2-2.6-1.4-4c0.1-1.3,0.4-2.5,1-3.7
	c1.4-3.8,1.6-7.8,0.6-11.7c-0.6-2.4-1.7-4.7-1.9-7.1c-0.2-1.8-0.1-3.7,0.2-5.5c1.1-6.7,5.9-12.2,12.3-14.2c0.5-0.2,1-0.3,1.6-0.5
	c2.4-0.5,4.9-0.8,7.4-0.8c5.5-0.2,11.2-0.3,16.5,1.1c3.1,0.8,6.1,2.3,8.6,4.4c1.8,1.5,3.2,3.4,4.1,5.5c0.5,1.2,0.9,2.5,1.2,3.8
	c0.2,1.1,0.4,2.1,0.6,3.2c1.2,7.7,2.4,15.5,1.1,23.2c-0.5,3-1.4,6-1.8,9.1C286.7,279.2,288.5,286.2,290.2,293z"/>
<circle class="st10" cx="254.7" cy="301.1" r="1.9"/>
<circle class="st10" cx="286.1" cy="300.2" r="1.9"/>
<path class="st5" d="M254.7,207.1l-4-7.5c0.3-0.3,0.5-0.6,0.8-0.8c0.6-0.4,1.3-0.5,1.9-0.5L254.7,207.1z"/>
<path class="st5" d="M265.7,197.9l-4.5,6.7l-2.6-7.4c1.1-0.5,2.3-0.7,3.5-0.7C263.4,196.8,264.6,197.2,265.7,197.9z"/>
<g class="st7">
	<path d="M248.5,283.5c-0.5,0.6-1.2,1.2-2,1.5c-3.5,1.7-7.6,2-11.4,1c-0.4,0.5-0.9,1-1.4,1.5c4.1,1.6,8.8,1.5,12.8-0.5
		c0.8-0.3,1.5-0.9,2-1.5c0.7-1,0.9-2.3,0.6-3.5C249,282.6,248.8,283.1,248.5,283.5z"/>
	<path d="M237.6,250.1c0.3,1.3,0.5,2.7,0.6,4c0.1-2-0.1-4-0.6-6c-0.6-2.4-1.7-4.7-1.9-7.1c0-0.3,0-0.6,0-0.9c0,1,0,2,0,2.9
		C236,245.4,237,247.7,237.6,250.1z"/>
	<path d="M289.4,263.1c0.4-2.6,0.6-5.3,0.5-8c0,2-0.2,4-0.5,6c-0.5,3-1.4,6-1.8,9.1c-0.2,1.6-0.3,3.3-0.2,5c0-1,0.1-2,0.2-3
		C288,269.1,288.9,266.2,289.4,263.1z"/>
	<path d="M237.4,267.4c-0.5-1-0.9-2-1.3-3.1c-0.1,0.4-0.1,0.7-0.1,1.1c0.2,1.4,0.7,2.8,1.4,4c0.7,1.7,1.2,3.5,1.2,5.3
		C238.9,272.2,238.5,269.7,237.4,267.4z"/>
	<path d="M280.3,257.7c0.1,0.5,0.2,0.9,0.2,1.4c0-0.1,0-0.3,0-0.4c0-1,0-2-0.2-2.9c-0.2-1-0.6-2.1-0.8-3.1c0,0.2-0.1,0.5-0.1,0.7
		C279.6,254.8,279.8,256.3,280.3,257.7z"/>
	<path d="M274,284.6c-0.2-0.2-0.3-0.3-0.4-0.5c-0.2,0.4-0.3,0.9-0.3,1.3c0.1,0.5,0.4,0.9,0.7,1.2c4.2,4.5,10.1,6.8,16.2,6.4
		c-0.2-0.7-0.3-1.3-0.5-2C283.8,291.3,278.1,288.9,274,284.6z"/>
	<path d="M282.7,243.3c0,0,0-0.1,0-0.1c0.6-3.7-2.5-6.9-5.5-9c-2.3-1.6-4.9-2.9-7.6-3.9c-1.6-0.6-3.3-1-5.1-1.2
		c-3.2-0.4-6.5-0.1-9.6,1.1c-1.3,0.5-2.5,1.1-3.6,1.9c-0.7,0.4-1.2,1-1.6,1.6c-0.3,0.8-0.5,1.6-0.4,2.4c0,0.7,0,1.4,0,2.1v-0.1
		c0-0.8,0.1-1.6,0.4-2.4c0.4-0.7,0.9-1.2,1.6-1.6c1.1-0.8,2.3-1.4,3.6-1.9c3.1-1.1,6.3-1.5,9.6-1.1c1.7,0.2,3.4,0.6,5.1,1.2
		c2.7,1,5.2,2.3,7.6,3.9C279.7,237.9,282.2,240.4,282.7,243.3z"/>
	<path d="M247.8,248.1c-1,1.9-2.7,3.5-3.5,5.5c-0.3,0.8-0.6,1.7-0.6,2.6c-0.1,0.9-0.2,1.9-0.1,2.8c0,0.9,0,1.7,0,2.6
		c0-0.2,0-0.4,0-0.6c0-0.9,0-1.9,0.1-2.8c0.1-0.9,0.3-1.8,0.6-2.6c0.8-2,2.5-3.6,3.5-5.5c1.6-3,1.6-6.5,1.5-9.9
		C249.5,242.9,249,245.6,247.8,248.1z"/>
</g>
<path class="st5" d="M287.7,236.7c-0.1,0.2-0.3,0.4-0.5,0.5c-0.4,0.3-0.7,0.5-1.2,0.7c-2.9,1.3-2.8-2.9-4.3-4.3
	c-1-0.7-2.2-1.1-3.4-1c-2.9-0.1-5.9-0.3-8.8-0.4c-4.9-0.2-9.8-0.3-14.6-0.2c-2.3,0-4.7,0.1-7,0.3c-2.7,0.2-5.6,0.5-7.9,1.8
	c-0.8,0.4-1.5,1-2.1,1.6c-0.5,0.6-1.1,1.4-1.9,1.5c1.1-6.7,5.9-12.2,12.3-14.2c10.6-7.9,25.6-6.1,34,4.2c1.8,1.5,3.2,3.4,4.1,5.5
	C287,234.2,287.4,235.4,287.7,236.7z"/>
<path class="st11" d="M286.1,236c-2.9,1.3-2.8-2.9-4.3-4.3c-1-0.7-2.2-1.1-3.4-1c-10.1-0.7-20.3-0.8-30.4-0.3
	c-3.6,0.2-7.6,0.8-10,3.5c-0.6,0.7-1.3,1.6-2.2,1.5c-0.3-2-0.5-4.1-0.7-6.1c-0.1-0.8-0.1-1.5,0.1-2.3c0.2-0.9,0.8-1.6,1.1-2.4
	c0.3-1.1,0.4-2.2,0.3-3.3c0.1-8.3,4.5-15.9,11.7-20.2c0.9-0.4,1.7-1,2.4-1.6c0.3-0.3,0.5-0.6,0.8-0.8c0.6-0.4,1.3-0.5,1.9-0.5
	c0.5,0,1,0,1.4,0c1.3-0.1,2.6-0.5,3.8-1c1.1-0.5,2.3-0.7,3.5-0.7c1.3,0.2,2.5,0.7,3.6,1.3c0.5,0.3,1.1,0.5,1.7,0.6
	c0.9,0.2,1.9,0.2,2.8,0.4c1.5,0.4,2.9,1,4.1,1.8c1.5,0.8,2.9,1.8,4.2,3c1.4,1.6,2.4,3.3,3.2,5.2c1.3,2.6,2.3,5.4,3,8.3
	c0.8,4.1,0.4,8.6,2.3,12.4C288.2,232,289.2,234.6,286.1,236z"/>
<path class="st5" d="M235.4,232.8c0,0,20.7-18.9,51.6-3.2C287,229.6,252.1,221.7,235.4,232.8z"/>
<linearGradient id="SVGID_2_" gradientUnits="userSpaceOnUse" x1="2127.3599" y1="475.675" x2="2369.0986" y2="475.675" gradientTransform="matrix(-1 0 0 -1 2372.1201 800.32)">
	<stop  offset="0" style="stop-color:#808080;stop-opacity:0.25"/>
	<stop  offset="0.54" style="stop-color:#808080;stop-opacity:0.12"/>
	<stop  offset="1" style="stop-color:#808080;stop-opacity:0.1"/>
</linearGradient>
<path class="st12" d="M9.5,329.2c-2.8-4.6-7.1-8.9-6.4-14.1c7.8,0.9,15.1-1,22.2-4.3s13.7-7.6,20.4-11.8c2.6-1.6,5.2-3.3,7.8-4.8
	c4.1-2.4,8.2-5,12.4-7.3c6-3.3,12.1-6,18.9-6.5c1.2-0.1,2.4-0.1,3.7-0.1c8.3,0.2,16.9,2.4,24.2-1.3l0.4-0.2
	c4.1-2.3,7.1-6.1,10.7-9.3c2.6-2.2,5.3-4.1,8.3-5.8c5.4-3,11.2-5.4,16.7-8.2c1.4-0.7,2.7-1.6,4-2.6l0.9-0.8l0.2-0.2
	c0.2-0.2,0.5-0.4,0.7-0.6l0.4-0.4l0.4-0.4l0.3-0.3l0.6-0.5l0.1-0.1l0.9-0.9l0.4-0.4l0.6-0.6l0.4-0.4c0.6-0.6,1.2-1.3,1.8-1.9
	s1.5-1.5,2.2-2.1l0,0l0.7-0.6l0.2-0.2l0.6-0.5l0.3-0.2l0.6-0.4l0.3-0.2c0.3-0.2,0.6-0.4,0.9-0.6c0.3-0.2,0.5-0.3,0.8-0.5l-1.9-4.5
	l5.4-2.2l74.2,180.1l-5.4,2.2l-42.4-103l-0.3,0.3c-9.8,9.7-21.9,16.9-35.1,20.9h-0.1c-7.4,2.2-15.7,3.8-21.9,8
	c-2.2,1.4-4.1,3.3-5.6,5.4c-1.5,2.1-2.5,4.5-4,6.5c-0.3,0.4-0.6,0.7-0.9,1.1c-1.8,1.8-3.8,3.4-6,4.8l-0.9,0.6
	c-6.4,4.5-13.2,8.7-20.1,12.4c-4,2.1-8.2,3.8-12.5,5.2c-3.1,1-6.4,1.7-9.5,2.7c-2.1,0.6-4.2,1.5-6.1,2.5c-5.3,2.8-9.4,7.1-13.2,11.7
	c-3.4,4.1-6.6,8.4-10.3,12.1c-2.3,2.3-5.9,4.5-8.7,3.1l-0.6-0.3c0.1-0.1,0.2-0.3,0.2-0.5c2.2-4.6-0.5-10.4-4.2-14.1
	c-0.4-0.4-0.8-0.8-1.2-1.1s-1.1-1-1.7-1.5c-3.1-2.7-6.5-5.2-8.6-8.7c-1.7-2.9-2.8-6.1-3.3-9.4c-1-4.7-1.7-9.6-4.2-13.6
	c-1.7-2.6-4.2-4.9-6-7.5c-1.2-1.5-1.9-3.3-2.2-5.1c-0.4-3.2,1.1-6.4,1.7-9.7c0.2-0.9,0.2-1.8,0.2-2.7
	C11.7,333.5,10.8,331.2,9.5,329.2z"/>
<rect x="200.8" y="228.9" transform="matrix(0.9245 -0.3811 0.3811 0.9245 -108.3411 102.1001)" class="st13" width="5.7" height="191.5"/>
<path class="st14" d="M20,360.2c2.5,4,3.2,8.7,4.2,13.3c0.5,3.3,1.6,6.4,3.3,9.3c2.1,3.4,5.4,5.9,8.5,8.5c0.6,0.5,1.1,1,1.7,1.5
	c0.4,0.4,0.8,0.7,1.2,1.1c3.6,3.6,6.3,9.3,4.1,13.8c-0.1,0.2-0.1,0.3-0.2,0.5c0.2,0.1,0.4,0.2,0.6,0.3c2.8,1.3,6.2-0.8,8.5-3.1
	c3.6-3.6,6.8-7.9,10.1-11.9c3.8-4.6,7.8-8.8,13-11.5c1.9-1,3.9-1.8,6-2.4c3.1-1,6.2-1.7,9.3-2.7c4.2-1.4,8.3-3.1,12.3-5.1
	c6.8-3.7,13.5-7.7,19.8-12.2l0.9-0.6c2.1-1.3,4.1-2.9,5.9-4.7c0.3-0.3,0.6-0.7,0.9-1.1c1.5-2,2.5-4.3,4-6.3c1.5-2.1,3.4-3.9,5.6-5.3
	c6.1-4.1,14.2-5.6,21.5-7.8h0.1c13-4,24.8-11,34.5-20.5c0.8-0.7,1.4-1.5,1.7-2.5c0.3-1.4-0.5-2.8-1.2-4c-0.9-1.5-1.7-2.9-2.5-4.4
	c-3.7-6.7-7-13.6-9.9-20.7c-0.6-1.6-1.2-3.1-1.8-4.7c-1.5-4-2.9-8.1-4.1-12.2c-0.4-1.4-0.8-2.7-1.2-4.1c-0.1-0.3-0.1-0.5-0.2-0.8
	c-1.7-6.7-3.9-22.3-10.7-17.6c-2,1.5-3.9,3.1-5.6,4.9c-1.3,1.4-2.6,2.7-4,4.1c-1.1,1.1-2.3,2.1-3.5,3.1c-1.3,1-2.6,1.8-4,2.5
	c-5.4,2.8-11.2,5.1-16.5,8.1c-2.9,1.6-5.6,3.5-8.2,5.7c-3.5,3.1-6.4,6.9-10.5,9.1l-0.4,0.2c-7.2,3.6-15.6,1.5-23.8,1.3
	c-1.2,0-2.4,0-3.6,0.1c-6.6,0.5-12.7,3.2-18.6,6.4c-4.1,2.3-8.1,4.9-12.2,7.2c-2.6,1.5-5.1,3.1-7.7,4.7c-6.5,4.1-13.2,8.4-20,11.6
	c-7,3.2-14.2,5.1-21.9,4.2c-0.7,5.1,3.5,9.3,6.3,13.9c1.3,2,2.1,4.2,2.3,6.6c0,0.9,0,1.8-0.2,2.6c-0.6,3.2-2,6.3-1.6,9.5
	c0.3,1.8,1,3.6,2.2,5C15.9,355.4,18.3,357.6,20,360.2z"/>
<path class="st9" d="M223.3,381c0,0,8.8,7.6,17.6,11.7s3,18.7,3,18.7s-9.4,2.2-16-7S223.3,381,223.3,381z"/>
<path class="st2" d="M516.5,114.8h-6.3c2.4,0,4.4-2,4.4-4.4c0-2.4-2-4.4-4.4-4.4h-50.9c-2.4,0-4.4,2-4.4,4.4c0,2.4,2,4.4,4.4,4.4
	l0,0h6.3c-2.4,0.1-4.3,2.2-4.2,4.6c0.1,2.3,1.9,4.1,4.2,4.2h-8.8c-2.4,0-4.4,2-4.4,4.4c0,2.4,2,4.4,4.4,4.4h50.9
	c2.4,0,4.4-2,4.4-4.4c0-2.4-2-4.4-4.4-4.4h8.8c2.4,0.1,4.5-1.8,4.6-4.2c0.1-2.4-1.8-4.5-4.2-4.6
	C516.8,114.8,516.6,114.8,516.5,114.8z"/>
<path class="st2" d="M714.1,269.7h-6.3c2.4-0.1,4.3-2.2,4.2-4.6c-0.1-2.3-1.9-4.1-4.2-4.2h-50.9c-2.4-0.1-4.5,1.8-4.6,4.2
	c-0.1,2.4,1.8,4.5,4.2,4.6c0.1,0,0.3,0,0.4,0h6.3c-2.4,0.1-4.3,2.2-4.2,4.6c0.1,2.3,1.9,4.1,4.2,4.2h-8.8c-2.4,0-4.4,2-4.4,4.4
	c0,2.4,2,4.4,4.4,4.4c0,0,0,0,0,0h50.9c2.4,0,4.4-2,4.4-4.4c0-2.4-2-4.4-4.4-4.4h8.8c2.4,0.1,4.5-1.8,4.6-4.2
	c0.1-2.4-1.8-4.5-4.2-4.6C714.4,269.7,714.3,269.7,714.1,269.7z"/>
<path class="st2" d="M421.3,241H415c2.4,0.1,4.5-1.8,4.6-4.2c0.1-2.4-1.8-4.5-4.2-4.6c-0.1,0-0.3,0-0.4,0h-50.9
	c-2.4-0.1-4.5,1.8-4.6,4.2c-0.1,2.4,1.8,4.5,4.2,4.6c0.1,0,0.3,0,0.4,0h6.3c-2.4-0.1-4.5,1.8-4.6,4.2c-0.1,2.4,1.8,4.5,4.2,4.6
	c0.1,0,0.3,0,0.4,0h-8.8c-2.4,0-4.4,2-4.4,4.4c0,2.4,2,4.4,4.4,4.4h50.9c2.4,0,4.4-2,4.4-4.4c0-2.4-2-4.4-4.4-4.4h8.8
	c2.4,0.1,4.5-1.8,4.6-4.2c0.1-2.4-1.8-4.5-4.2-4.6C421.5,241,421.4,241,421.3,241L421.3,241z"/>
</svg>
