<?xml version="1.0" encoding="utf-8"?>
<!-- Generator: Adobe Illustrator 22.0.1, SVG Export Plug-In . SVG Version: 6.00 Build 0)  -->
<svg version="1.1" id="c9110790-68f5-421a-bd61-01bf55405315"
	 xmlns="http://www.w3.org/2000/svg" xmlns:xlink="http://www.w3.org/1999/xlink" x="0px" y="0px" viewBox="0 0 915.3 848.8"
	 style="enable-background:new 0 0 915.3 848.8;" xml:space="preserve">
<style type="text/css">
	.st0{fill:#0AB9F1;}
	.st1{fill:#E9E9F4;enable-background:new    ;}
	.st2{fill:#FF6584;}
	.st3{opacity:0.1;enable-background:new    ;}
	.st4{fill:url(#SVGID_1_);}
	.st5{fill:url(#SVGID_2_);}
	.st6{fill:#FBBEBE;}
	.st7{fill:#3F3D56;}
	.st8{opacity:0.1;}
	.st9{fill:#FFFFFF;}
	.st10{fill:#FFD037;}
	.st11{fill:#A8A8A8;}
	.st12{opacity:0.2;enable-background:new    ;}
	.st13{fill:none;stroke:#535461;stroke-width:2;stroke-miterlimit:10;}
</style>
<title>super thank you</title>
<ellipse class="st0" cx="491.9" cy="831.9" rx="221.1" ry="16.9"/>
<ellipse class="st1" cx="491.9" cy="831.9" rx="221.1" ry="16.9"/>
<path class="st0" d="M282.7,82.5c31-27.7,79.8-33.3,124.2-31.1c139.4,6.9,265.2,74.2,374,150.3c39.4,27.6,78.2,57.3,103.8,95.2
	c52.1,77.2,36.6,184.2-35.8,247.9c-24.6,21.7-54.5,38.2-85.1,53c-54.5,26.2-113.3,47.2-175.2,53.1c-44.1,4.3-88.8,0.8-132.6-5.2
	c-122.5-16.7-242.8-53.4-343.6-116.3C68.1,501.9,26.4,467.6,8.2,423C-10,378.4,1.7,321.9,46.8,295.5c18.7-10.9,41-15.9,62.8-20.5
	c32.2-6.8,64.9-13.5,93.9-27.4c30-14.3,65.5-42,59.5-73.7C256.7,140,251.7,110.1,282.7,82.5z"/>
<path class="st1" d="M282.7,82.5c31-27.7,79.8-33.3,124.2-31.1c139.4,6.9,265.2,74.2,374,150.3c39.4,27.6,78.2,57.3,103.8,95.2
	c52.1,77.2,36.6,184.2-35.8,247.9c-24.6,21.7-54.5,38.2-85.1,53c-54.5,26.2-113.3,47.2-175.2,53.1c-44.1,4.3-88.8,0.8-132.6-5.2
	c-122.5-16.7-242.8-53.4-343.6-116.3C68.1,501.9,26.4,467.6,8.2,423C-10,378.4,1.7,321.9,46.8,295.5c18.7-10.9,41-15.9,62.8-20.5
	c32.2-6.8,64.9-13.5,93.9-27.4c30-14.3,65.5-42,59.5-73.7C256.7,140,251.7,110.1,282.7,82.5z"/>
<path class="st2" d="M590.1,72.9v0.6c0,0.2,0,0.3,0,0.5s0,0.4,0,0.6c0,0.5,0,1-0.1,1.5v0.3c0,0.4,0,0.9-0.1,1.3v0.4
	c0,0.1,0,0.1,0,0.2c0,0.4-0.1,0.8-0.1,1.2s-0.1,0.6-0.1,0.9c-0.1,0.8-0.2,1.5-0.3,2.3c-0.1,0.5-0.2,1-0.2,1.5c0,0,0,0.1,0,0.1
	c0,0.2-0.1,0.5-0.1,0.8s0,0.3-0.1,0.4s0,0.3-0.1,0.4s-0.1,0.5-0.2,0.8s-0.1,0.5-0.2,0.8s-0.1,0.4-0.1,0.6s-0.2,0.7-0.2,1
	c0,0,0,0,0,0.1l-0.2,0.7l-0.2,0.8c-0.1,0.3-0.2,0.7-0.3,1c0,0.1,0,0.2-0.1,0.3l-0.3,1c-0.3,1.1-0.7,2.1-1,3.2l-0.4,1l-0.2,0.6
	c-2.4,6.3-5.7,12.2-9.8,17.5c-0.2,0.3-0.5,0.7-0.8,1c-1.9,2.5-4,4.8-6.2,7L466.7,225.6L364.5,123.4c-2.9-2.9-5.6-6.1-8-9.5
	c-1.5-2.1-2.9-4.4-4.2-6.6c-6.9-12.5-10-26.8-8.7-41.1c0.1-1.3,0.3-2.6,0.4-3.9c0.3-2.3,0.8-4.6,1.3-6.9c0.1-0.5,0.2-0.9,0.4-1.4
	c0.1-0.2,0.1-0.5,0.2-0.7s0.1-0.3,0.1-0.4l0.3-1l0,0l0,0c0.2-0.8,0.5-1.6,0.7-2.4l0.4-1.1c0.5-1.5,1.1-3,1.8-4.5l0.4-0.9
	c0.2-0.4,0.4-0.9,0.6-1.3c0.3-0.7,0.7-1.4,1-2.2l0.1-0.2l0,0l0,0c0.2-0.3,0.3-0.6,0.5-1l0.6-1.1c0.2-0.5,0.5-0.9,0.8-1.3
	c0.1-0.2,0.2-0.4,0.4-0.6s0.2-0.2,0.2-0.4c0,0,0,0,0-0.1l0,0c0.2-0.3,0.3-0.5,0.5-0.8s0.4-0.6,0.6-0.9c0.4-0.7,0.8-1.3,1.3-1.9
	l0.5-0.7l0.6-0.8c0.2-0.3,0.4-0.6,0.6-0.8l0.8-1c0.2-0.3,0.5-0.6,0.7-0.9l0.2-0.3l0.5-0.6c0.3-0.3,0.5-0.6,0.8-0.9l0.4-0.4l0.1-0.1
	l0.6-0.7l0.7-0.8c0.6-0.7,1.3-1.4,2-2l0.8-0.8l1.2-1.2c0.3-0.2,0.5-0.5,0.8-0.7c0.3-0.2,0.6-0.6,1-0.9l0.6-0.5
	c0.2-0.2,0.4-0.4,0.6-0.5c0.4-0.4,0.9-0.7,1.3-1l0.7-0.5c1.1-0.8,2.2-1.7,3.3-2.4l0.7-0.5l0.7-0.5l0.7-0.4l1-0.6l0.5-0.3l0.7-0.4
	c0.9-0.5,1.9-1.1,2.8-1.6l0.6-0.3l0.9-0.5l0.7-0.4l0.7-0.3l0.7-0.3l0.7-0.3L387,6c1-0.4,2-0.8,3-1.2l0.7-0.4l0.8-0.3l0.7-0.2
	l0.6-0.2l1.4-0.4l0.7-0.2l0.6-0.2l0.6-0.2c0.3-0.1,0.7-0.2,1-0.3l1.3-0.3c1.4-0.3,2.7-0.6,4.1-0.9l0.6-0.1l0.8-0.1l0.8-0.1l1-0.1
	l0.6-0.1c1.3-0.2,2.6-0.3,4-0.4h0.7h0.4h0.6l0,0h0.5h0.2h0.7h0.8h3.2h0.8h0.7h0.2h0.5h0.1c0.3,0,0.7,0,1,0.1h0.1h0.6
	c1.1,0.1,2.1,0.2,3.2,0.3l1.4,0.2l1,0.1l0.8,0.1l0.8,0.1l0.5,0.1c1.4,0.3,2.7,0.5,4.1,0.9l1.7,0.4l0.5,0.1l0.7,0.2
	c0.5,0.1,0.9,0.3,1.4,0.4l0.6,0.2c1,0.3,2,0.6,3,1l0.7,0.2l0.9,0.3l1.3,0.5c0.5,0.2,1,0.4,1.5,0.7l0.6,0.3l0.8,0.4l0.7,0.3l0.7,0.4
	l0.9,0.5l0.7,0.4c0.6,0.3,1.1,0.6,1.7,0.9l0.7,0.4c0.8,0.5,1.6,1,2.4,1.5l0.7,0.4l0.7,0.5l0.7,0.5l0,0l0.5,0.3
	c1,0.7,1.9,1.4,2.8,2.1l0.7,0.5c0.4,0.3,0.9,0.7,1.3,1c0.2,0.2,0.4,0.3,0.6,0.5l0.6,0.5l1,0.9c0.3,0.2,0.5,0.5,0.8,0.7l1.2,1.2
	l0.8,0.8l0.8-0.8l1.2-1.2c0.3-0.2,0.5-0.5,0.8-0.7s0.6-0.6,1-0.9l0.6-0.5c0.2-0.2,0.4-0.4,0.6-0.5c0.4-0.4,0.9-0.7,1.3-1l0.7-0.5
	c1.1-0.8,2.2-1.7,3.3-2.4l0.7-0.5l0.7-0.5l0.7-0.4l1-0.6l0.5-0.3l0.7-0.4c0.9-0.5,1.9-1.1,2.8-1.6l0.6-0.3l0.9-0.5l0.7-0.4l0.7-0.3
	l0.7-0.3l0.7-0.3l0.7-0.3c1-0.4,2-0.8,3-1.2c0.2-0.1,0.5-0.2,0.7-0.3l0.8-0.3l0.7-0.2l0.6-0.2l1.4-0.4l0.7-0.2l0.6-0.2l0.6-0.2
	c0.3-0.1,0.7-0.2,1-0.3l1.3-0.3c1.4-0.3,2.7-0.6,4.1-0.9l0.6-0.1l0.8-0.1l0.8-0.1l1-0.1l0.6-0.1c1.3-0.2,2.6-0.3,4-0.4h0.7h0.4h0.6
	l0,0h0.5h0.2h0.7h0.8h3.2h0.8h0.7h0.2h0.5h0c0.3,0,0.7,0,1,0.1h0.1h0.6c1.1,0.1,2.1,0.2,3.2,0.3l1.4,0.2l1,0.1l0.8,0.1l0.8,0.1
	l0.5,0.1c1.4,0.3,2.7,0.5,4.1,0.9l1.7,0.4l0.5,0.1l0.7,0.2c0.5,0.1,0.9,0.3,1.4,0.4l0.6,0.2c1,0.3,2,0.6,3,1l0.7,0.2l0.9,0.3
	l1.3,0.5c0.5,0.2,1,0.4,1.5,0.7l0.6,0.3l0.8,0.4l0.7,0.3l0.7,0.4l0.9,0.5l0.7,0.4c0.5,0.3,1.1,0.6,1.7,0.9l0.7,0.4
	c0.8,0.5,1.6,1,2.4,1.5l0.7,0.4l0.7,0.5l0.7,0.5h0l0.5,0.3c1,0.7,1.9,1.4,2.8,2.1l0.7,0.5c0.4,0.3,0.9,0.7,1.3,1
	c0.2,0.2,0.4,0.3,0.6,0.5l0.6,0.5l0.8,0.7c0.3,0.2,0.6,0.5,0.8,0.8l0.5,0.4l0,0c0,0,0,0,0.1,0.1c0.3,0.2,0.5,0.5,0.8,0.8l0.4,0.3
	c0.1,0.2,0.3,0.3,0.4,0.4l0.8,0.8c0.4,0.4,0.8,0.8,1.2,1.3c0.2,0.2,0.5,0.5,0.7,0.7c0.4,0.4,0.8,0.8,1.1,1.3l1.2,1.4
	c1.3,1.7,2.6,3.4,3.8,5.1l0.5,0.7c0.2,0.3,0.3,0.5,0.5,0.8l0.4,0.7c0.2,0.4,0.5,0.8,0.7,1.2l0.6,1.1c0.1,0.2,0.3,0.4,0.4,0.7
	l0.3,0.5l0.3,0.5l0.4,0.8l0.4,0.8c0.9,1.8,1.8,3.7,2.6,5.6l0.3,0.8c0.3,0.8,0.6,1.6,0.9,2.4l0.2,0.7c0.1,0.3,0.2,0.7,0.3,1
	s0.2,0.6,0.3,0.9l0.2,0.6c0.1,0.3,0.2,0.6,0.2,0.8s0.2,0.7,0.3,1c0.2,0.6,0.3,1.1,0.4,1.7l0.2,0.9c0.1,0.4,0.2,0.8,0.3,1.3
	c0,0.2,0.1,0.4,0.1,0.5s0.1,0.5,0.1,0.7s0.1,0.4,0.1,0.6l0.1,0.5c0,0.2,0,0.3,0.1,0.4s0,0.3,0.1,0.4l0.2,0.9c0,0.3,0.1,0.6,0.1,0.9
	s0.1,0.7,0.1,1s0.1,0.6,0.1,1l0.1,0.6c0,0.3,0.1,0.7,0.1,1c0,0.2,0,0.3,0,0.5c0,0.3,0.1,0.7,0.1,1c0,0,0,0,0,0.1c0,0.2,0,0.4,0,0.6
	v0.7c0,0.4,0,0.7,0,1.1l0,0c0,0.4,0,0.7,0,1.1C590.2,71.5,590.2,72.2,590.1,72.9z"/>
<path class="st3" d="M590.1,72.9v0.6c0,0.2,0,0.3,0,0.5s0,0.4,0,0.6c0,0.5,0,1-0.1,1.5v0.3c0,0.4,0,0.9-0.1,1.3v0.4
	c0,0.1,0,0.1,0,0.2c0,0.4-0.1,0.8-0.1,1.2s-0.1,0.6-0.1,0.9c-0.1,0.8-0.2,1.5-0.3,2.3c-0.1,0.5-0.2,1-0.2,1.5c0,0,0,0.1,0,0.1
	c0,0.2-0.1,0.5-0.1,0.8s0,0.3-0.1,0.4s0,0.3-0.1,0.4s-0.1,0.5-0.2,0.8s-0.1,0.5-0.2,0.8s-0.1,0.4-0.1,0.6s-0.2,0.7-0.2,1
	c0,0,0,0,0,0.1l-0.2,0.7l-0.2,0.8c-0.1,0.3-0.2,0.7-0.3,1c0,0.1,0,0.2-0.1,0.3l-0.3,1c-0.3,1.1-0.7,2.1-1,3.2l-0.4,1l-0.2,0.6
	c7.2-30.1-5.4-61.4-31.5-78c-1.3-0.8-2.6-1.6-3.9-2.3C521.9,2,486.8,7,464.1,29.9c-2.7-2.7-5.7-5.2-8.8-7.5l0,0
	c-2.4-1.7-4.9-3.3-7.5-4.7c-21.7-11.9-47.9-11.9-69.6,0c-3.6,2-7.1,4.3-10.3,6.9c-5.3,4.3-10.1,9.2-14,14.8c-1.4,2-2.8,4.1-4,6.3
	c0,0,0,0.1,0,0.1c-1.1,2-2.2,4.1-3.1,6.2c-0.5,1.2-1,2.3-1.5,3.5c0.1-0.5,0.2-0.9,0.4-1.4c0.1-0.2,0.1-0.5,0.2-0.7s0.1-0.3,0.1-0.4
	l0.3-1l0,0c0.2-0.8,0.5-1.6,0.7-2.4l0.4-1.1c0.5-1.5,1.1-3,1.8-4.5l0.4-0.9c0.2-0.4,0.4-0.9,0.6-1.3c0.3-0.7,0.7-1.4,1-2.2l0.1-0.2
	l0,0l0,0c0.2-0.3,0.3-0.6,0.5-1l0.6-1.1c0.2-0.5,0.5-0.9,0.8-1.3c0.1-0.2,0.2-0.4,0.4-0.6s0.2-0.2,0.2-0.4c0,0,0,0,0-0.1l0,0
	c0.2-0.3,0.3-0.5,0.5-0.8s0.4-0.6,0.6-0.9c0.4-0.7,0.8-1.3,1.3-1.9l0.5-0.7l0.6-0.8c0.2-0.3,0.4-0.6,0.6-0.8l0.8-1
	c0.2-0.3,0.5-0.6,0.7-0.9l0.2-0.3l0.5-0.6c0.3-0.3,0.5-0.6,0.8-0.9l0.4-0.4l0.1-0.1l0.6-0.7l0.7-0.8c0.6-0.7,1.3-1.4,2-2l0.8-0.8
	l1.2-1.2c0.3-0.2,0.5-0.5,0.8-0.7c0.3-0.2,0.6-0.6,1-0.9l0.6-0.5c0.2-0.2,0.4-0.4,0.6-0.5c0.4-0.4,0.9-0.7,1.3-1l0.7-0.5
	c1.1-0.8,2.2-1.7,3.3-2.4l0.7-0.5l0.7-0.5l0.7-0.4l1-0.6l0.5-0.3l0.7-0.4c0.9-0.5,1.9-1.1,2.8-1.6l0.6-0.3l0.9-0.5l0.7-0.4l0.7-0.3
	l0.7-0.3l0.7-0.3L387,6c1-0.4,2-0.8,3-1.2l0.7-0.4l0.8-0.3l0.7-0.2l0.6-0.2l1.4-0.4l0.7-0.2l0.6-0.2l0.6-0.2c0.3-0.1,0.7-0.2,1-0.3
	l1.3-0.3c1.4-0.3,2.7-0.6,4.1-0.9l0.6-0.1l0.8-0.1l0.8-0.1l1-0.1l0.6-0.1c1.3-0.2,2.6-0.3,4-0.4h0.7h0.4h0.6l0,0h0.5h0.2h0.7h0.8
	h3.2h0.8h0.7h0.2h0.5h0.1c0.3,0,0.7,0,1,0.1h0.1h0.6c1.1,0.1,2.1,0.2,3.2,0.3l1.4,0.2l1,0.1l0.8,0.1l0.8,0.1l0.5,0.1
	c1.4,0.3,2.7,0.5,4.1,0.9l1.7,0.4l0.5,0.1l0.7,0.2c0.5,0.1,0.9,0.3,1.4,0.4l0.6,0.2c1,0.3,2,0.6,3,1l0.7,0.2l0.9,0.3l1.3,0.5
	c0.5,0.2,1,0.4,1.5,0.7l0.6,0.3l0.8,0.4l0.7,0.3l0.7,0.4l0.9,0.5l0.7,0.4c0.6,0.3,1.1,0.6,1.7,0.9l0.7,0.4c0.8,0.5,1.6,1,2.4,1.5
	l0.7,0.4l0.7,0.5l0.7,0.5l0,0l0.5,0.3c1,0.7,1.9,1.4,2.8,2.1l0.7,0.5c0.4,0.3,0.9,0.7,1.3,1c0.2,0.2,0.4,0.3,0.6,0.5l0.6,0.5l1,0.9
	c0.3,0.2,0.5,0.5,0.8,0.7l1.2,1.2l0.8,0.8l0.8-0.8l1.2-1.2c0.3-0.2,0.5-0.5,0.8-0.7s0.6-0.6,1-0.9l0.6-0.5c0.2-0.2,0.4-0.4,0.6-0.5
	c0.4-0.4,0.9-0.7,1.3-1l0.7-0.5c1.1-0.8,2.2-1.7,3.3-2.4l0.7-0.5l0.7-0.5l0.7-0.4l1-0.6l0.5-0.3l0.7-0.4c0.9-0.5,1.9-1.1,2.8-1.6
	l0.6-0.3l0.9-0.5l0.7-0.4l0.7-0.3l0.7-0.3l0.7-0.3l0.7-0.3c1-0.4,2-0.8,3-1.2c0.2-0.1,0.5-0.2,0.7-0.3l0.8-0.3l0.7-0.2l0.6-0.2
	l1.4-0.4l0.7-0.2l0.6-0.2l0.6-0.2c0.3-0.1,0.7-0.2,1-0.3l1.3-0.3c1.4-0.3,2.7-0.6,4.1-0.9l0.6-0.1l0.8-0.1l0.8-0.1l1-0.1l0.6-0.1
	c1.3-0.2,2.6-0.3,4-0.4h0.7h0.4h0.6l0,0h0.5h0.2h0.7h0.8h3.2h0.8h0.7h0.2h0.5h0c0.3,0,0.7,0,1,0.1h0.1h0.6c1.1,0.1,2.1,0.2,3.2,0.3
	l1.4,0.2l1,0.1l0.8,0.1l0.8,0.1l0.5,0.1c1.4,0.3,2.7,0.5,4.1,0.9l1.7,0.4l0.5,0.1l0.7,0.2c0.5,0.1,0.9,0.3,1.4,0.4l0.6,0.2
	c1,0.3,2,0.6,3,1l0.7,0.2l0.9,0.3l1.3,0.5c0.5,0.2,1,0.4,1.5,0.7l0.6,0.3l0.8,0.4l0.7,0.3l0.7,0.4l0.9,0.5l0.7,0.4
	c0.5,0.3,1.1,0.6,1.7,0.9l0.7,0.4c0.8,0.5,1.6,1,2.4,1.5l0.7,0.4l0.7,0.5l0.7,0.5h0l0.5,0.3c1,0.7,1.9,1.4,2.8,2.1l0.7,0.5
	c0.4,0.3,0.9,0.7,1.3,1c0.2,0.2,0.4,0.3,0.6,0.5l0.6,0.5l0.8,0.7c0.3,0.2,0.6,0.5,0.8,0.8l0.5,0.4l0,0c0,0,0,0,0.1,0.1
	c0.3,0.2,0.5,0.5,0.8,0.8l0.4,0.3c0.1,0.2,0.3,0.3,0.4,0.4l0.8,0.8c0.4,0.4,0.8,0.8,1.2,1.3c0.2,0.2,0.5,0.5,0.7,0.7
	c0.4,0.4,0.8,0.8,1.1,1.3l1.2,1.4c1.3,1.7,2.6,3.4,3.8,5.1l0.5,0.7c0.2,0.3,0.3,0.5,0.5,0.8l0.4,0.7c0.2,0.4,0.5,0.8,0.7,1.2
	l0.6,1.1c0.1,0.2,0.3,0.4,0.4,0.7l0.3,0.5l0.3,0.5l0.4,0.8l0.4,0.8c0.9,1.8,1.8,3.7,2.6,5.6l0.3,0.8c0.3,0.8,0.6,1.6,0.9,2.4
	l0.2,0.7c0.1,0.3,0.2,0.7,0.3,1s0.2,0.6,0.3,0.9l0.2,0.6c0.1,0.3,0.2,0.6,0.2,0.8s0.2,0.7,0.3,1c0.2,0.6,0.3,1.1,0.4,1.7l0.2,0.9
	c0.1,0.4,0.2,0.8,0.3,1.3c0,0.2,0.1,0.4,0.1,0.5s0.1,0.5,0.1,0.7s0.1,0.4,0.1,0.6l0.1,0.5c0,0.2,0,0.3,0.1,0.4s0,0.3,0.1,0.4
	l0.2,0.9c0,0.3,0.1,0.6,0.1,0.9s0.1,0.7,0.1,1s0.1,0.6,0.1,1l0.1,0.6c0,0.3,0.1,0.7,0.1,1c0,0.2,0,0.3,0,0.5c0,0.3,0.1,0.7,0.1,1
	c0,0,0,0,0,0.1c0,0.2,0,0.4,0,0.6v0.7c0,0.4,0,0.7,0,1.1l0,0c0,0.4,0,0.7,0,1.1C590.2,71.5,590.2,72.2,590.1,72.9z"/>
<path class="st2" d="M757.5,295.8v0.4c0,0.1,0,0.1,0,0.2s0,0.3,0,0.5v0.1v0.4v0.1c0,0,0,0,0,0.1v0.3v0.3l-0.1,0.7
	c0,0.2,0,0.3-0.1,0.5l0,0c0,0.1,0,0.2,0,0.2v0.1c0,0,0,0.1,0,0.1c0,0.1,0,0.2,0,0.2c0,0.1,0,0.2,0,0.2c0,0.1,0,0.1,0,0.2
	s0,0.2-0.1,0.3l0,0l-0.1,0.2l-0.1,0.2l-0.1,0.3c0,0,0,0.1,0,0.1c0,0-0.1,0.2-0.1,0.3c-0.1,0.3-0.2,0.7-0.3,1c0,0.1-0.1,0.2-0.1,0.3
	c0,0.1,0,0.1-0.1,0.2c-0.7,1.9-1.7,3.7-2.9,5.3l-0.2,0.3c-0.6,0.7-1.2,1.5-1.9,2.1l-31.5,31.2l-31.2-31.2c-0.9-0.9-1.7-1.9-2.5-2.9
	c-0.5-0.6-0.9-1.3-1.3-2c-2.1-3.8-3-8.2-2.7-12.5c0-0.4,0.1-0.8,0.1-1.2c0.1-0.7,0.2-1.4,0.4-2.1c0-0.1,0.1-0.3,0.1-0.4l0.1-0.2
	v-0.1l0.1-0.3l0,0c0.1-0.2,0.2-0.5,0.2-0.7s0.1-0.2,0.1-0.3c0.2-0.5,0.3-0.9,0.5-1.4l0.1-0.3l0.2-0.4c0.1-0.2,0.2-0.4,0.3-0.6v0l0,0
	l0.2-0.3l0.2-0.3c0.1-0.1,0.2-0.3,0.2-0.4l0.1-0.2l0.1-0.1l0,0l0,0c0-0.1,0.1-0.2,0.1-0.2c0-0.1,0.1-0.2,0.2-0.3
	c0-0.1,0.3-0.4,0.4-0.6l0.1-0.2l0.2-0.2l0.2-0.2l0.2-0.3l0.2-0.3l0.1-0.1l0.2-0.2l0.2-0.3l0.1-0.1l0,0l0.2-0.2
	c0.1-0.1,0.1-0.2,0.2-0.2s0.4-0.4,0.6-0.6l0.2-0.2l0.4-0.4l0.2-0.2l0.3-0.3l0.2-0.2l0.2-0.2l0.4-0.3l0.2-0.2c0.3-0.2,0.7-0.5,1-0.7
	l0.2-0.1l0.2-0.1l0.2-0.1l0.3-0.2l0.1-0.1l0.2-0.1c0.3-0.2,0.6-0.3,0.9-0.5l0.2-0.1l0.3-0.1l0.2-0.1l0.2-0.1l0.2-0.1l0.2-0.1
	l0.2-0.1l0.9-0.4l0.2-0.1l0.2-0.1l0.2-0.1l0.2-0.1l0.4-0.1l0.2-0.1l0.2,0l0.2,0l0.3-0.1l0.4-0.1c0.4-0.1,0.8-0.2,1.2-0.3h0.2h0.2
	h0.2h0.3h0.2c0.4,0,0.8-0.1,1.2-0.1h2.8h0.3h0.2l1,0.1l0.4,0.1h0.3h0.2h0.2h0.2c0.4,0.1,0.8,0.2,1.2,0.3l0.5,0.1h0.1l0.2,0.1
	l0.4,0.1l0.2,0c0.3,0.1,0.6,0.2,0.9,0.3l0.2,0.1l0.3,0.1l0.4,0.2l0.5,0.2l0.2,0.1l0.2,0.1l0.2,0.1l0.2,0.1l0.3,0.1l0.2,0.1l0.5,0.3
	l0.2,0.1c0.2,0.1,0.5,0.3,0.7,0.5l0.2,0.1l0.2,0.1l0.2,0.1l0,0l0.1,0.1l0.9,0.6c0.1,0.1,0.1,0.1,0.2,0.2l0.4,0.3l0.2,0.2l0.2,0.2
	l0.3,0.3l0.2,0.2l0.4,0.4c0.1,0.1,0.2,0.1,0.2,0.2c0.1-0.1,0.2-0.2,0.2-0.2l0.4-0.4l0.2-0.2l0.3-0.3l0.2-0.2l0.2-0.2l0.4-0.3
	c0.1,0,0.1-0.1,0.2-0.2l1-0.7l0.2-0.1l0.2-0.1l0.2-0.1l0.3-0.2l0.2-0.1l0.2-0.1c0.3-0.2,0.6-0.3,0.9-0.5l0.2-0.1l0.3-0.1l0.2-0.1
	l0.2-0.1l0.2-0.1l0.2-0.1l0.2-0.1l0.9-0.4l0.2-0.1l0.2-0.1l0.2-0.1l0.2-0.1l0.4-0.1l0.2-0.1l0.2,0l0.2,0l0.3-0.1l0.4-0.1
	c0.4-0.1,0.8-0.2,1.3-0.3h0.2h0.2h0.2h0.3h0.2c0.4,0,0.8-0.1,1.2-0.1h2.8h0.3h0.2l1,0.1c0.2,0,0.3,0,0.4,0.1h0.3h0.2h0.2h0.2
	c0.4,0.1,0.8,0.2,1.2,0.3l0.5,0.1h0.1l0.2,0.1l0.4,0.1l0.2,0c0.3,0.1,0.6,0.2,0.9,0.3l0.2,0.1l0.3,0.1l0.4,0.2l0.5,0.2l0.2,0.1
	l0.2,0.1l0.2,0.1l0.2,0.1l0.3,0.1l0.2,0.1l0.5,0.3l0.2,0.1c0.2,0.1,0.5,0.3,0.7,0.5l0.2,0.1l0.2,0.1l0.2,0.1l0,0l0.1,0.1
	c0.3,0.2,0.6,0.4,0.9,0.6l0.2,0.2l0.4,0.3l0.2,0.2l0.2,0.2l0.3,0.2l0.2,0.2l0.1,0.1l0,0l0,0l0.2,0.2l0.1,0.1l0.1,0.1l0.2,0.2
	l0.4,0.4c0.1,0.1,0.1,0.2,0.2,0.2l0.3,0.4l0.4,0.4c0.4,0.5,0.8,1,1.2,1.6l0.2,0.2l0.2,0.2l0.1,0.2l0.2,0.4l0.2,0.3l0.1,0.2l0.1,0.2
	l0.1,0.2c0,0.1,0.1,0.2,0.1,0.2l0.1,0.2c0.3,0.6,0.5,1.1,0.8,1.7c0,0.1,0.1,0.2,0.1,0.2l0.3,0.7c0,0.1,0,0.2,0.1,0.2
	s0.1,0.2,0.1,0.3c0,0.1,0.1,0.2,0.1,0.3l0.1,0.2c0,0.1,0,0.2,0.1,0.3l0.1,0.3c0,0.2,0.1,0.3,0.1,0.5c0,0.1,0.1,0.2,0.1,0.3
	c0,0.1,0.1,0.3,0.1,0.4s0,0.1,0,0.2c0,0,0,0.1,0,0.2v0.2v0.1v0.1v0.1c0,0.1,0,0.2,0,0.3c0,0.1,0,0.2,0,0.3c0,0.1,0,0.2,0,0.3
	c0,0.1,0,0.2,0,0.3v0.2v0.3c0,0,0,0.1,0,0.2s0,0.2,0,0.3l0,0c0,0.1,0,0.1,0,0.2c0,0.1,0,0.1,0,0.2c0,0.1,0,0.2,0,0.3l0,0
	c0,0.1,0,0.2,0,0.3S757.5,295.6,757.5,295.8z"/>
<path class="st3" d="M757.5,295.8v0.4c0,0.1,0,0.1,0,0.2s0,0.3,0,0.5v0.1v0.4v0.1c0,0,0,0,0,0.1v0.3v0.3l-0.1,0.7
	c0,0.2,0,0.3-0.1,0.5l0,0c0,0.1,0,0.2,0,0.2v0.1c0,0,0,0.1,0,0.1c0,0.1,0,0.2,0,0.2c0,0.1,0,0.2,0,0.2c0,0.1,0,0.1,0,0.2
	s0,0.2-0.1,0.3l0,0l-0.1,0.2l-0.1,0.2l-0.1,0.3c0,0,0,0.1,0,0.1c0,0-0.1,0.2-0.1,0.3c-0.1,0.3-0.2,0.7-0.3,1c0,0.1-0.1,0.2-0.1,0.3
	c0,0.1,0,0.1-0.1,0.2c0.4-1.8,0.6-3.5,0.6-5.4c-0.1-7.5-3.9-14.4-10.2-18.5c-0.4-0.3-0.8-0.5-1.2-0.7c-6.6-3.6-14.6-3.6-21.2,0
	c-0.7,0.4-1.4,0.8-2.1,1.3c-1,0.7-2,1.5-2.9,2.4c-0.8-0.8-1.7-1.6-2.7-2.3l0,0c-0.7-0.5-1.5-1-2.3-1.5c-7.8-4.3-17.4-3.5-24.4,2.1
	c-0.6,0.5-1.3,1.1-1.8,1.7c-0.9,0.9-1.7,1.8-2.4,2.9c-0.4,0.6-0.8,1.3-1.2,1.9l0,0c-0.3,0.6-0.7,1.2-0.9,1.9
	c-0.2,0.4-0.3,0.7-0.4,1.1c0-0.1,0.1-0.3,0.1-0.4l0.1-0.2v-0.1l0.1-0.3l0,0c0.1-0.2,0.2-0.5,0.2-0.7s0.1-0.2,0.1-0.3
	c0.2-0.5,0.3-0.9,0.5-1.4l0.1-0.3l0.2-0.4c0.1-0.2,0.2-0.4,0.3-0.7v0l0,0l0.2-0.3l0.2-0.3c0.1-0.1,0.2-0.3,0.2-0.4l0.1-0.2l0.1-0.1
	l0,0l0,0c0-0.1,0.1-0.2,0.1-0.2c0-0.1,0.1-0.2,0.2-0.3c0-0.1,0.3-0.4,0.4-0.6l0.1-0.2l0.2-0.2l0.2-0.2l0.2-0.3l0.2-0.3l0.1-0.1
	l0.2-0.2l0.2-0.3l0.1-0.1l0,0l0.2-0.2c0.1-0.1,0.1-0.1,0.2-0.2s0.4-0.4,0.6-0.6l0.2-0.2l0.4-0.4l0.2-0.2l0.3-0.3l0.2-0.2l0.2-0.2
	l0.4-0.3l0.2-0.2c0.3-0.2,0.7-0.5,1-0.7l0.2-0.1l0.2-0.1l0.2-0.1l0.3-0.2l0.1-0.1l0.2-0.1c0.3-0.2,0.6-0.3,0.9-0.5l0.2-0.1l0.3-0.1
	l0.2-0.1l0.2-0.1l0.2-0.1l0.2-0.1l0.2-0.1l0.9-0.4l0.2-0.1l0.2-0.1l0.2-0.1l0.2-0.1l0.4-0.1l0.2-0.1l0.2,0l0.2,0l0.3-0.1l0.4-0.1
	c0.4-0.1,0.8-0.2,1.2-0.3h0.2h0.2h0.2h0.3h0.2c0.4,0,0.8-0.1,1.2-0.1h2.8h0.3h0.2l1,0.1l0.4,0.1h0.3h0.2h0.2h0.2
	c0.4,0.1,0.8,0.2,1.2,0.3l0.5,0.1h0.1l0.2,0.1l0.4,0.1l0.2,0c0.3,0.1,0.6,0.2,0.9,0.3l0.2,0.1l0.3,0.1l0.4,0.2l0.5,0.2l0.2,0.1
	l0.2,0.1l0.2,0.1l0.2,0.1l0.3,0.1l0.2,0.1l0.5,0.3l0.2,0.1c0.2,0.1,0.5,0.3,0.7,0.5l0.2,0.1l0.2,0.1l0.2,0.1l0,0l0.1,0.1l0.9,0.6
	c0.1,0.1,0.1,0.1,0.2,0.2l0.4,0.3l0.2,0.2l0.2,0.2l0.3,0.3l0.2,0.2l0.4,0.4c0.1,0.1,0.2,0.1,0.2,0.2c0.1-0.1,0.2-0.2,0.2-0.2
	l0.4-0.4l0.2-0.2l0.3-0.3l0.2-0.2l0.2-0.2l0.4-0.3c0.1,0,0.1-0.1,0.2-0.2l1-0.7l0.2-0.1l0.2-0.1l0.2-0.1l0.3-0.2l0.2-0.1l0.2-0.1
	c0.3-0.2,0.6-0.3,0.9-0.5l0.2-0.1l0.3-0.1l0.2-0.1l0.2-0.1l0.2-0.1l0.2-0.1l0.2-0.1l0.9-0.4l0.2-0.1l0.2-0.1l0.2-0.1l0.2-0.1
	l0.4-0.1l0.2-0.1l0.2,0l0.2,0l0.3-0.1l0.4-0.1c0.4-0.1,0.8-0.2,1.3-0.3h0.2h0.2h0.2h0.3h0.2c0.4,0,0.8-0.1,1.2-0.1h2.8h0.3h0.2
	l1,0.1c0.2,0,0.3,0,0.4,0.1h0.3h0.2h0.2h0.2c0.4,0.1,0.8,0.2,1.2,0.3l0.5,0.1h0.1l0.2,0.1l0.4,0.1l0.2,0c0.3,0.1,0.6,0.2,0.9,0.3
	l0.2,0.1l0.3,0.1l0.4,0.2l0.5,0.2l0.2,0.1l0.2,0.1l0.2,0.1l0.2,0.1l0.3,0.1l0.2,0.1l0.5,0.3l0.2,0.1c0.2,0.1,0.5,0.3,0.7,0.5
	l0.2,0.1l0.2,0.1l0.2,0.1l0,0l0.1,0.1c0.3,0.2,0.6,0.4,0.9,0.6l0.2,0.2l0.4,0.3l0.2,0.2l0.2,0.2l0.3,0.2l0.2,0.2l0.1,0.1l0,0l0,0
	l0.2,0.2l0.1,0.1l0.1,0.1l0.2,0.2l0.4,0.4c0.1,0.1,0.1,0.1,0.2,0.2l0.3,0.4l0.4,0.4c0.4,0.5,0.8,1,1.2,1.6l0.2,0.2l0.2,0.2l0.1,0.2
	l0.2,0.4l0.2,0.3l0.1,0.2l0.1,0.2l0.1,0.2c0,0.1,0.1,0.2,0.1,0.2l0.1,0.2c0.3,0.6,0.5,1.1,0.8,1.7c0,0.1,0.1,0.2,0.1,0.2l0.3,0.7
	c0,0.1,0,0.1,0.1,0.2s0.1,0.2,0.1,0.3c0,0.1,0.1,0.2,0.1,0.3l0.1,0.2c0,0.1,0,0.2,0.1,0.3l0.1,0.3c0,0.2,0.1,0.3,0.1,0.5
	c0,0.1,0.1,0.2,0.1,0.3c0,0.1,0.1,0.3,0.1,0.4s0,0.1,0,0.2c0,0.1,0,0.2,0,0.2v0.2v0.1v0.1v0.1c0,0.1,0,0.2,0,0.3c0,0.1,0,0.2,0,0.3
	c0,0.1,0,0.2,0,0.3c0,0.1,0,0.2,0,0.3v0.2v0.3c0,0,0,0.1,0,0.2s0,0.2,0,0.3l0,0c0,0.1,0,0.1,0,0.2c0,0.1,0,0.1,0,0.2
	c0,0.1,0,0.2,0,0.3l0,0c0,0.1,0,0.2,0,0.3S757.5,295.6,757.5,295.8z"/>
<path class="st2" d="M612.8,254.4v0.2c0,0.1,0,0.1,0,0.2v0.2c0,0.2,0,0.3,0,0.5v0.1v0.4v0.2v0.4c0,0.1,0,0.2,0,0.3
	c0,0.2,0,0.5-0.1,0.7s0,0.3-0.1,0.5l0,0c0,0.1,0,0.2,0,0.2c0,0,0,0.1,0,0.1v0.1c0,0.1,0,0.2,0,0.2l-0.1,0.2c0,0.1,0,0.1,0,0.2
	c0,0.1,0,0.2-0.1,0.3l0,0c0,0.1,0,0.1,0,0.2c0,0.1-0.1,0.2-0.1,0.3l-0.1,0.3c0,0,0,0.1,0,0.1l-0.1,0.3c-0.1,0.3-0.2,0.6-0.3,1
	c0,0.1-0.1,0.2-0.1,0.3l-0.1,0.2c-0.7,1.9-1.7,3.7-2.9,5.3l-0.2,0.3c-0.6,0.8-1.2,1.5-1.9,2.1L575.5,301l-31.2-31.2
	c-0.9-0.9-1.7-1.9-2.4-2.9c-0.5-0.6-0.9-1.3-1.3-2c-2.1-3.8-3-8.2-2.7-12.5c0-0.4,0.1-0.8,0.1-1.2c0.1-0.7,0.2-1.4,0.4-2.1
	c0-0.1,0.1-0.3,0.1-0.4c0-0.1,0-0.1,0-0.2c0,0,0-0.1,0-0.1l0.1-0.3l0,0c0.1-0.2,0.1-0.5,0.2-0.7l0.1-0.3c0.2-0.5,0.3-0.9,0.5-1.4
	l0.1-0.3c0.1-0.1,0.1-0.3,0.2-0.4s0.2-0.4,0.3-0.7v0l0,0l0.2-0.3l0.2-0.3l0.2-0.4c0-0.1,0.1-0.1,0.1-0.2l0.1-0.1l0,0l0,0l0.2-0.2
	c0-0.1,0.1-0.2,0.2-0.3l0.4-0.6l0.2-0.2l0.2-0.2l0.2-0.3l0.2-0.3c0.1-0.1,0.1-0.2,0.2-0.3c0,0,0-0.1,0.1-0.1l0.2-0.2l0.2-0.3
	l0.1-0.1l0,0l0.2-0.2l0.2-0.2l0.6-0.6l0.2-0.2l0.4-0.4c0.1-0.1,0.2-0.2,0.2-0.2l0.3-0.3l0.2-0.2l0.2-0.2l0.4-0.3l0.2-0.2
	c0.3-0.3,0.7-0.5,1-0.7l0.2-0.1l0.2-0.1l0.2-0.1l0.3-0.2l0.1-0.1l0.2-0.1c0.3-0.2,0.6-0.3,0.9-0.5l0.2-0.1l0-0.2l0.2-0.1l0.2-0.1
	l0.2-0.1l0.2-0.1l0.2-0.1l0.9-0.4l0.2-0.1l0.2-0.1l0.2-0.1l0.2-0.1l0.4-0.1l0.2-0.1l0.2,0l0.2,0l0.3-0.1l0.4-0.1l1.2-0.3h0.2h0.2
	h0.2h0.3h0.2c0.4,0,0.8-0.1,1.2-0.1h0.2h3.1c0.3,0,0.7,0,1,0.1l0.4,0.1h0.3h0.2h0.2h0.2c0.4,0.1,0.8,0.2,1.2,0.3l0.5,0.1h0.1
	c0.1,0,0.1,0,0.2,0.1l0.4,0.1l0.2,0.1l0.9,0.3l0.2,0.1l0.3,0.1l0.4,0.2l0.5,0.2l0.2,0.1l0.2,0.1l0.2,0.1l0.2,0.1l0.3,0.1l0.2,0.1
	l0.5,0.3l0.2,0.1l0.7,0.5l0.2,0.1l0.2,0.1l0.2,0.1l0,0l0.1,0.1c0.3,0.2,0.6,0.4,0.9,0.6c0.1,0,0.1,0.1,0.2,0.2
	c0.1,0.1,0.3,0.2,0.4,0.3l0.2,0.2l0.2,0.2l0.3,0.3c0.1,0.1,0.2,0.1,0.2,0.2l0.4,0.4l0.2,0.2l0.2-0.2l0.4-0.4l0.2-0.2l0.3-0.3
	l0.2-0.2l0.2-0.2c0.1-0.1,0.3-0.2,0.4-0.3c0.1-0.1,0.1-0.1,0.2-0.2c0.3-0.3,0.7-0.5,1-0.7l0.2-0.1l0.2-0.1l0.2-0.1l0.3-0.2l0.1-0.1
	l0.2-0.1c0.3-0.2,0.6-0.3,0.9-0.5l0.2-0.1l0.3-0.1l0.2-0.1l0.2-0.1l0.2-0.1l0.2-0.1l0.2-0.1l0.9-0.4l0.2-0.1l0.2-0.1l0.2-0.1
	l0.2-0.1l0.4-0.1l0.2-0.1l0.2,0l0.2,0l0.3-0.1l0.4-0.1c0.4-0.1,0.8-0.2,1.2-0.3h0.2h0.2h0.2h0.3h0.2c0.4,0,0.8-0.1,1.2-0.1h0.2h3.1
	l1,0.1l0.4,0.1h0.3h0.2h0.2h0.2c0.4,0.1,0.8,0.2,1.2,0.3l0.5,0.1h0.1c0.1,0,0.1,0,0.2,0.1l0.4,0.1l0.2,0.1l0.9,0.3l0.2,0.1l0.3,0.1
	l0.4,0.2l0.5,0.2l0.2,0.1l0.2,0.1l0.2,0.1l0.2,0.1l0.3,0.1l0.2,0.1l0.5,0.3l0.2,0.1l0.7,0.5l0.2,0.1l0.2,0.1l0.2,0.1l0,0l0.1,0.1
	l0.9,0.6l0.2,0.2l0.4,0.3l0.2,0.2l0.2,0.2l0.2,0.2l0.3,0.2l0.1,0.1l0,0l0,0l0.2,0.2l0.1,0.1l0.1,0.1l0.2,0.2l0.4,0.4l0.2,0.2
	c0.1,0.1,0.2,0.2,0.3,0.4l0.4,0.4c0.4,0.5,0.8,1,1.2,1.6l0.2,0.2l0.2,0.2c0,0.1,0.1,0.1,0.1,0.2c0.1,0.1,0.2,0.2,0.2,0.4
	s0.1,0.2,0.2,0.3l0.1,0.2l0.1,0.2l0.1,0.2l0.1,0.2c0,0.1,0.1,0.2,0.1,0.2c0.3,0.6,0.5,1.1,0.8,1.7c0,0.1,0.1,0.2,0.1,0.2
	c0.1,0.2,0.2,0.5,0.3,0.7c0,0.1,0,0.1,0.1,0.2l0.1,0.3l0.1,0.3c0,0.1,0,0.1,0,0.2s0,0.2,0.1,0.2l0.1,0.3c0,0.2,0.1,0.4,0.1,0.5
	l0.1,0.3l0.1,0.4v0.2c0,0.1,0,0.1,0,0.2c0,0.1,0,0.1,0,0.2c0,0,0,0.1,0,0.1v0.1c0,0,0,0.1,0,0.1c0,0.1,0,0.2,0,0.3
	c0,0.1,0,0.2,0,0.3c0,0.1,0,0.2,0,0.3v0.3v0.2v0.3c0,0,0,0.1,0,0.1v0.3l0,0c0,0.1,0,0.1,0,0.2s0,0.1,0,0.2s0,0.2,0,0.3l0,0v0.3
	C612.8,253.9,612.8,254.2,612.8,254.4z"/>
<path class="st3" d="M612.8,254.4v0.2c0,0.1,0,0.1,0,0.2v0.2c0,0.2,0,0.3,0,0.5v0.1v0.4v0.2v0.4c0,0.1,0,0.2,0,0.3
	c0,0.2,0,0.5-0.1,0.7s0,0.3-0.1,0.5l0,0c0,0.1,0,0.2,0,0.2c0,0,0,0.1,0,0.1v0.1c0,0.1,0,0.2,0,0.2l-0.1,0.2c0,0.1,0,0.1,0,0.2
	c0,0.1,0,0.2-0.1,0.3l0,0c0,0.1,0,0.1,0,0.2c0,0.1-0.1,0.2-0.1,0.3l-0.1,0.3c0,0,0,0.1,0,0.1l-0.1,0.3c-0.1,0.3-0.2,0.6-0.3,1
	c0,0.1-0.1,0.2-0.1,0.3l-0.1,0.2c0.9-3.6,0.8-7.3-0.2-10.9c-1.4-5.3-4.8-9.9-9.5-12.9c-0.4-0.2-0.8-0.5-1.2-0.7
	c-6.6-3.6-14.6-3.6-21.2,0c-0.7,0.4-1.4,0.8-2.1,1.3c-1,0.7-2,1.5-2.9,2.4c-0.8-0.8-1.7-1.6-2.7-2.3l0,0c-0.7-0.5-1.5-1-2.3-1.4
	c-8.6-4.7-19.3-3.2-26.2,3.7c-1,0.9-2,1.8-2.8,2.9c-0.4,0.6-0.8,1.3-1.2,1.9l0,0c-0.3,0.6-0.7,1.2-0.9,1.9c-0.2,0.4-0.3,0.7-0.4,1.1
	c0-0.1,0.1-0.3,0.1-0.4c0-0.1,0-0.1,0-0.2c0,0,0-0.1,0-0.1l0.1-0.3l0,0c0.1-0.2,0.1-0.5,0.2-0.7l0.1-0.3c0.2-0.5,0.3-0.9,0.5-1.4
	l0.1-0.3c0.1-0.1,0.1-0.3,0.2-0.4s0.2-0.4,0.3-0.7v0l0,0l0.2-0.3l0.2-0.3l0.2-0.4c0-0.1,0.1-0.1,0.1-0.2l0.1-0.1l0,0l0,0l0.2-0.2
	c0-0.1,0.1-0.2,0.2-0.3l0.4-0.6l0.2-0.2l0.2-0.2l0.2-0.3l0.2-0.3c0.1-0.1,0.1-0.2,0.2-0.3c0,0,0-0.1,0.1-0.1l0.2-0.2l0.2-0.3
	l0.1-0.1l0,0l0.2-0.2l0.2-0.2l0.6-0.6l0.2-0.2l0.4-0.4c0.1-0.1,0.2-0.2,0.2-0.2l0.3-0.3l0.2-0.2l0.2-0.2l0.4-0.3l0.2-0.2
	c0.3-0.3,0.7-0.5,1-0.7l0.2-0.1l0.2-0.1l0.2-0.1l0.3-0.2l0.1-0.1l0.2-0.1c0.3-0.2,0.6-0.3,0.9-0.5l0.2-0.1l0.4-0.2l0.2-0.1l0.2-0.1
	l0.2-0.1l0.2-0.1l0.2-0.1l0.9-0.4l0.2-0.1l0.2-0.1l0.2-0.1l0.2-0.1l0.4-0.1l0.2-0.1l0.2,0l0.2,0l0.3-0.1l0.4-0.1l1.2-0.3h0.2h0.2
	h0.2h0.3h0.2c0.4,0,0.8-0.1,1.2-0.1h0.2h3.1c0.3,0,0.7,0,1,0.1l0.4,0.1h0.3h0.2h0.2h0.2c0.4,0.1,0.8,0.2,1.2,0.3l0.5,0.1h0.1
	c0.1,0,0.1,0,0.2,0.1l0.4,0.1l0.2,0.1l0.9,0.3l0.2,0.1l0.3,0.1l0.4,0.2l0.5,0.2l0.2,0.1l0.2,0.1l0.2,0.1l0.2,0.1l0.3,0.1l0.2,0.1
	l0.5,0.3l0.2,0.1l0.7,0.5l0.2,0.1l0.2,0.1l0.2,0.1l0,0l0.1,0.1c0.3,0.2,0.6,0.4,0.9,0.6c0.1,0,0.1,0.1,0.2,0.2
	c0.1,0.1,0.3,0.2,0.4,0.3l0.2,0.2l0.2,0.2l0.3,0.3c0.1,0.1,0.2,0.1,0.2,0.2l0.4,0.4l0.2,0.2l0.2-0.2l0.4-0.4l0.2-0.2l0.3-0.3
	l0.2-0.2l0.2-0.2c0.1-0.1,0.3-0.2,0.4-0.3c0.1-0.1,0.1-0.1,0.2-0.2c0.3-0.3,0.7-0.5,1-0.7l0.2-0.1l0.2-0.1l0.2-0.1l0.3-0.2l0.1-0.1
	l0.2-0.1c0.3-0.2,0.6-0.3,0.9-0.5l0.2-0.1l0.3-0.1l0.2-0.1l0.2-0.1l0.2-0.1l0.2-0.1l0.2-0.1l0.9-0.4l0.2-0.1l0.2-0.1l0.2-0.1
	l0.2-0.1l0.4-0.1l0.2-0.1l0.2,0l0.2,0l0.3-0.1l0.4-0.1c0.4-0.1,0.8-0.2,1.2-0.3h0.2h0.2h0.2h0.3h0.2c0.4,0,0.8-0.1,1.2-0.1h0.2h3.1
	l1,0.1l0.4,0.1h0.3h0.2h0.2h0.2c0.4,0.1,0.8,0.2,1.2,0.3l0.5,0.1h0.1c0.1,0,0.1,0,0.2,0.1l0.4,0.1l0.2,0.1l0.9,0.3l0.2,0.1l0.3,0.1
	l0.4,0.2l0.5,0.2l0.2,0.1l0.2,0.1l0.2,0.1l0.2,0.1l0.3,0.1l0.2,0.1l0.5,0.3l0.2,0.1l0.7,0.5l0.2,0.1l0.2,0.1l0.2,0.1l0,0l0.1,0.1
	l0.9,0.6l0.2,0.2l0.4,0.3l0.2,0.2l0.2,0.2l0.2,0.2l0.3,0.2l0.1,0.1l0,0l0,0l0.2,0.2l0.1,0.1l0.1,0.1l0.2,0.2l0.4,0.4l0.2,0.2
	c0.1,0.1,0.2,0.2,0.3,0.4l0.4,0.4c0.4,0.5,0.8,1,1.2,1.6l0.2,0.2l0.2,0.2c0,0.1,0.1,0.1,0.1,0.2c0.1,0.1,0.2,0.2,0.2,0.4
	s0.1,0.2,0.2,0.3l0.1,0.2l0.1,0.2l0.1,0.2l0.1,0.2c0,0.1,0.1,0.2,0.1,0.2c0.3,0.6,0.5,1.1,0.8,1.7c0,0.1,0.1,0.2,0.1,0.2
	c0.1,0.2,0.2,0.5,0.3,0.7c0,0.1,0,0.1,0.1,0.2l0.1,0.3l0.1,0.3c0,0.1,0,0.1,0,0.2s0,0.2,0.1,0.2l0.1,0.3c0,0.2,0.1,0.4,0.1,0.5
	l0.1,0.3l0.1,0.4v0.2c0,0.1,0,0.1,0,0.2c0,0.1,0,0.1,0,0.2c0,0,0,0.1,0,0.1v0.1c0,0,0,0.1,0,0.1c0,0.1,0,0.2,0,0.3
	c0,0.1,0,0.2,0,0.3c0,0.1,0,0.2,0,0.3v0.3v0.2v0.3c0,0,0,0.1,0,0.1v0.3l0,0c0,0.1,0,0.1,0,0.2s0,0.1,0,0.2s0,0.2,0,0.3l0,0v0.3
	C612.8,253.9,612.8,254.2,612.8,254.4z"/>
<path class="st2" d="M317.8,276.3c0,0.1,0,0.1,0,0.2v0.4v0.5v0.1v0.4v0.2v0.3c0,0.1,0,0.2,0,0.3c0,0.2,0,0.5-0.1,0.7
	c0,0.2,0,0.3-0.1,0.5l0,0c0,0.1,0,0.2,0,0.2c0,0,0,0.1,0,0.1v0.1c0,0.1,0,0.2,0,0.2l-0.1,0.2c0,0.1,0,0.1,0,0.2c0,0.1,0,0.2-0.1,0.3
	l0,0c0,0.1,0,0.1,0,0.2c0,0.1-0.1,0.2-0.1,0.2l-0.1,0.3c0,0,0,0.1,0,0.1l-0.1,0.3c-0.1,0.3-0.2,0.7-0.3,1c0,0.1-0.1,0.2-0.1,0.3
	l-0.1,0.2c-0.7,1.9-1.7,3.7-2.9,5.3l-0.2,0.3c-0.6,0.7-1.2,1.5-1.9,2.1l-31.2,31.2l-31.2-31.2c-0.9-0.9-1.7-1.9-2.5-2.9
	c-0.5-0.7-0.9-1.3-1.3-2c-2.1-3.8-3-8.2-2.7-12.5c0-0.4,0.1-0.8,0.1-1.2c0.1-0.7,0.2-1.4,0.4-2.1c0-0.1,0.1-0.3,0.1-0.4l0.1-0.2
	c0,0,0-0.1,0-0.1c0-0.1,0-0.2,0.1-0.3l0,0c0.1-0.2,0.1-0.5,0.2-0.7s0.1-0.2,0.1-0.3c0.2-0.5,0.3-0.9,0.5-1.4l0.1-0.3
	c0.1-0.1,0.1-0.3,0.2-0.4s0.2-0.4,0.3-0.6v0l0,0l0.1-0.3l0.2-0.3l0.2-0.4l0.1-0.2l0.1-0.1l0,0l0,0l0.1-0.2c0-0.1,0.1-0.2,0.2-0.3
	l0.4-0.6l0.1-0.2l0.2-0.2c0.1-0.1,0.1-0.2,0.2-0.2c0.1-0.1,0.1-0.2,0.2-0.3l0.2-0.3l0.1-0.1l0.1-0.2l0.2-0.3l0.1-0.1l0,0l0.2-0.2
	l0.2-0.2l0.6-0.6l0.2-0.2l0.4-0.4l0.2-0.2l0.3-0.3l0.2-0.2l0.2-0.2l0.4-0.3l0.2-0.2c0.3-0.2,0.7-0.5,1-0.7l0.2-0.1l0.2-0.1l0.2-0.1
	c0.1-0.1,0.2-0.1,0.3-0.2l0.1-0.1l0.2-0.1c0.3-0.2,0.6-0.3,0.9-0.5l0.2-0.1l0.1-0.1l0.2-0.1l0.2-0.1l0.2-0.1l0.2-0.1l0.2-0.1
	l0.9-0.4l0.2-0.1l0.2-0.1l0.2-0.1l0.2-0.1l0.4-0.1l0.2-0.1l0.2,0h0.2l0.3-0.1l0.4-0.1c0.4-0.1,0.8-0.2,1.2-0.3h0.2h0.2h0.2l0.3,0
	h0.2c0.4,0,0.8-0.1,1.2-0.1h2.8h0.3h0.2l1,0.1l0.4,0l0.3,0h0.2h0.2h0.1c0.4,0.1,0.8,0.2,1.2,0.3l0.5,0.1h0.1l0.2,0.1l0.4,0.1l0.2,0
	c0.3,0.1,0.6,0.2,0.9,0.3l0.2,0.1l0.3,0.1l0.4,0.2l0.5,0.2l0.2,0.1l0.2,0.1l0.2,0.1l0.2,0.1l0.3,0.1l0.2,0.1l0.5,0.3l0.2,0.1
	c0.2,0.1,0.5,0.3,0.7,0.5l0.2,0.1l0.2,0.1l0.2,0.1l0,0c0.1,0,0.1,0.1,0.1,0.1c0.3,0.2,0.6,0.4,0.9,0.6l0.2,0.2l0.4,0.3l0.2,0.2
	l0.2,0.2l0.3,0.3l0.2,0.2l0.4,0.4l0.2,0.2l0.2-0.2l0.4-0.4l0.2-0.2l0.3-0.3l0.2-0.2l0.2-0.2l0.4-0.3l0.2-0.2c0.3-0.2,0.7-0.5,1-0.7
	l0.2-0.1l0.2-0.1l0.2-0.1l0.3-0.2l0.1-0.1l0.2-0.1c0.3-0.2,0.6-0.3,0.9-0.5c0.1,0,0.1-0.1,0.2-0.1l0.3-0.1l0.2-0.1l0.2-0.1l0.2-0.1
	l0.2-0.1l0.2-0.1l0.9-0.4l0.2-0.1l0.2-0.1l0.2-0.1l0.2-0.1l0.4-0.1l0.2-0.1l0.2,0h0.2l0.3-0.1l0.4-0.1c0.4-0.1,0.8-0.2,1.2-0.3h0.2
	h0.2h0.2l0.3,0h0.2c0.4,0,0.8-0.1,1.2-0.1h2.8h0.3h0.2l1,0.1l0.4,0l0.3,0h0.2h0.2h0.2c0.4,0.1,0.8,0.2,1.2,0.3l0.5,0.1h0.1l0.2,0.1
	l0.4,0.1l0.2,0c0.3,0.1,0.6,0.2,0.9,0.3l0.2,0.1l0.3,0.1l0.4,0.2l0.5,0.2l0.2,0.1l0.2,0.1l0.2,0.1l0.2,0.1l0.3,0.1l0.2,0.1l0.5,0.3
	l0.2,0.1c0.2,0.1,0.5,0.3,0.7,0.5l0.2,0.1l0.2,0.1l0.2,0.1l0,0l0.1,0.1l0.9,0.6l0.2,0.2l0.4,0.3l0.2,0.2l0.2,0.2l0.2,0.2
	c0.1,0.1,0.2,0.1,0.2,0.2l0.2,0.1l0,0l0,0l0.2,0.2l0.1,0.1l0.1,0.1l0.2,0.2l0.4,0.4l0.2,0.2l0.3,0.4l0.4,0.4c0.4,0.5,0.8,1,1.2,1.6
	l0.1,0.2l0.2,0.2c0,0.1,0.1,0.1,0.1,0.2c0.1,0.1,0.1,0.2,0.2,0.4s0.1,0.2,0.2,0.3l0.1,0.2l0.1,0.2l0.1,0.2l0.1,0.2
	c0,0.1,0.1,0.2,0.1,0.2c0.3,0.6,0.5,1.1,0.8,1.7l0.1,0.2c0.1,0.2,0.2,0.5,0.3,0.7l0.1,0.2c0,0.1,0.1,0.2,0.1,0.3l0.1,0.3
	c0,0.1,0,0.1,0,0.2l0.1,0.3c0,0.1,0.1,0.2,0.1,0.3c0,0.2,0.1,0.3,0.1,0.5l0.1,0.3l0.1,0.4v0.2c0,0.1,0,0.1,0,0.2c0,0.1,0,0.1,0,0.2
	c0,0,0,0.1,0,0.1v0.1c0,0,0,0.1,0,0.1c0,0,0,0.2,0,0.3c0,0.1,0,0.2,0,0.3c0,0.1,0,0.2,0,0.3c0,0.1,0,0.2,0,0.3v0.2v0.3
	c0,0,0,0.1,0,0.2c0,0.1,0,0.2,0,0.3l0,0c0,0.1,0,0.1,0,0.2c0,0.1,0,0.1,0,0.2s0,0.2,0,0.3l0,0c0,0.1,0,0.2,0,0.3
	S317.8,276.1,317.8,276.3z"/>
<path class="st3" d="M317.8,276.3c0,0.1,0,0.1,0,0.2v0.4v0.5v0.1v0.4v0.2v0.3c0,0.1,0,0.2,0,0.3c0,0.2,0,0.5-0.1,0.7
	c0,0.2,0,0.3-0.1,0.5l0,0c0,0.1,0,0.2,0,0.2c0,0,0,0.1,0,0.1v0.1c0,0.1,0,0.2,0,0.2l-0.1,0.2c0,0.1,0,0.1,0,0.2c0,0.1,0,0.2-0.1,0.3
	l0,0c0,0.1,0,0.1,0,0.2c0,0.1-0.1,0.2-0.1,0.2l-0.1,0.3c0,0,0,0.1,0,0.1l-0.1,0.3c-0.1,0.3-0.2,0.7-0.3,1c0,0.1-0.1,0.2-0.1,0.3
	l-0.1,0.2c0.9-3.6,0.8-7.3-0.1-10.9c-1.5-5.4-5.1-10-9.9-12.8c-0.4-0.3-0.8-0.5-1.2-0.7c-6.6-3.6-14.6-3.6-21.2,0
	c-0.7,0.4-1.4,0.8-2.1,1.3c-1,0.7-2,1.5-2.9,2.4c-0.8-0.8-1.7-1.6-2.7-2.3l0,0c-0.7-0.5-1.5-1-2.3-1.5c-6.6-3.6-14.6-3.6-21.2,0
	c-1.1,0.6-2.2,1.3-3.1,2.1c-0.6,0.5-1.3,1.1-1.9,1.6c-0.9,0.9-1.7,1.8-2.4,2.9c-0.4,0.6-0.8,1.3-1.2,1.9l0,0
	c-0.3,0.6-0.7,1.2-0.9,1.9c-0.2,0.4-0.3,0.7-0.4,1.1c0-0.1,0.1-0.3,0.1-0.4l0.1-0.2c0,0,0-0.1,0-0.1c0-0.1,0-0.2,0.1-0.3l0,0
	c0.1-0.2,0.1-0.5,0.2-0.7s0.1-0.2,0.1-0.3c0.2-0.5,0.3-0.9,0.5-1.4l0.1-0.3c0.1-0.1,0.1-0.3,0.2-0.4s0.2-0.4,0.3-0.6v0l0,0l0.1-0.3
	l0.2-0.3l0.2-0.4l0.1-0.2l0.1-0.1l0,0l0,0l0.1-0.2c0-0.1,0.1-0.2,0.2-0.3l0.4-0.6l0.1-0.2l0.2-0.2c0.1-0.1,0.1-0.2,0.2-0.2
	c0.1-0.1,0.1-0.2,0.2-0.3l0.2-0.3l0.1-0.1l0.1-0.2l0.2-0.3l0.1-0.1l0,0l0.2-0.2l0.2-0.2l0.6-0.6l0.2-0.2l0.4-0.4l0.2-0.2l0.3-0.3
	l0.2-0.2l0.2-0.2l0.4-0.3l0.2-0.2c0.3-0.2,0.7-0.5,1-0.7l0.2-0.1l0.2-0.1l0.2-0.1c0.1-0.1,0.2-0.1,0.3-0.2l0.1-0.1l0.2-0.1
	c0.3-0.2,0.6-0.3,0.9-0.5l0.2-0.1l0.5-0.1l0.2-0.1l0.2-0.1l0.2-0.1l0.2-0.1l0.2-0.1l0.9-0.4l0.2-0.1l0.2-0.1l0.2-0.1l0.2-0.1
	l0.4-0.1l0.2-0.1l0.2,0h0.2l0.3-0.1l0.4-0.1c0.4-0.1,0.8-0.2,1.2-0.3h0.2h0.2h0.2l0.3,0h0.2c0.4,0,0.8-0.1,1.2-0.1h2.8h0.3h0.2
	l1,0.1l0.4,0l0.3,0h0.2h0.2h0.1c0.4,0.1,0.8,0.2,1.2,0.3l0.5,0.1h0.1l0.2,0.1l0.4,0.1l0.2,0c0.3,0.1,0.6,0.2,0.9,0.3l0.2,0.1
	l0.3,0.1l0.4,0.2l0.5,0.2l0.2,0.1l0.2,0.1l0.2,0.1l0.2,0.1l0.3,0.1l0.2,0.1l0.5,0.3l0.2,0.1c0.2,0.1,0.5,0.3,0.7,0.5l0.2,0.1
	l0.2,0.1l0.2,0.1l0,0c0.1,0,0.1,0.1,0.1,0.1c0.3,0.2,0.6,0.4,0.9,0.6l0.2,0.2l0.4,0.3l0.2,0.2l0.2,0.2l0.3,0.3l0.2,0.2l0.4,0.4
	l0.2,0.2l0.2-0.2l0.4-0.4l0.2-0.2l0.3-0.3l0.2-0.2l0.2-0.2l0.4-0.3l0.2-0.2c0.3-0.2,0.7-0.5,1-0.7l0.2-0.1l0.2-0.1l0.2-0.1l0.3-0.2
	l0.1-0.1l0.2-0.1c0.3-0.2,0.6-0.3,0.9-0.5c0.1,0,0.1-0.1,0.2-0.1l0.3-0.1l0.2-0.1l0.2-0.1l0.2-0.1l0.2-0.1l0.2-0.1l0.9-0.4l0.2-0.1
	l0.2-0.1l0.2-0.1l0.2-0.1l0.4-0.1l0.2-0.1l0.2,0h0.2l0.3-0.1l0.4-0.1c0.4-0.1,0.8-0.2,1.2-0.3h0.2h0.2h0.2l0.3,0h0.2
	c0.4,0,0.8-0.1,1.2-0.1h2.8h0.3h0.2l1,0.1l0.4,0l0.3,0h0.2h0.2h0.2c0.4,0.1,0.8,0.2,1.2,0.3l0.5,0.1h0.1l0.2,0.1l0.4,0.1l0.2,0
	c0.3,0.1,0.6,0.2,0.9,0.3l0.2,0.1l0.3,0.1l0.4,0.2l0.5,0.2l0.2,0.1l0.2,0.1l0.2,0.1l0.2,0.1l0.3,0.1l0.2,0.1l0.5,0.3l0.2,0.1
	c0.2,0.1,0.5,0.3,0.7,0.5l0.2,0.1l0.2,0.1l0.2,0.1l0,0l0.1,0.1l0.9,0.6l0.2,0.2l0.4,0.3l0.2,0.2l0.2,0.2l0.2,0.2
	c0.1,0.1,0.2,0.1,0.2,0.2l0.2,0.1l0,0l0,0l0.2,0.2l0.1,0.1l0.1,0.1l0.2,0.2l0.4,0.4l0.2,0.2l0.3,0.4l0.4,0.4c0.4,0.5,0.8,1,1.2,1.6
	l0.1,0.2l0.2,0.2c0,0.1,0.1,0.1,0.1,0.2c0.1,0.1,0.1,0.2,0.2,0.4s0.1,0.2,0.2,0.3l0.1,0.2l0.1,0.2l0.1,0.2l0.1,0.2
	c0,0.1,0.1,0.2,0.1,0.2c0.3,0.6,0.5,1.1,0.8,1.7l0.1,0.2c0.1,0.2,0.2,0.5,0.3,0.7l0.1,0.2c0,0.1,0.1,0.2,0.1,0.3l0.1,0.3
	c0,0.1,0,0.1,0,0.2l0.1,0.3c0,0.1,0.1,0.2,0.1,0.3c0,0.2,0.1,0.3,0.1,0.5l0.1,0.3l0.1,0.4v0.2c0,0.1,0,0.1,0,0.2c0,0.1,0,0.1,0,0.2
	c0,0,0,0.1,0,0.1v0.1c0,0,0,0.1,0,0.1c0,0,0,0.2,0,0.3c0,0.1,0,0.2,0,0.3c0,0.1,0,0.2,0,0.3c0,0.1,0,0.2,0,0.3v0.2v0.3
	c0,0,0,0.1,0,0.2c0,0.1,0,0.2,0,0.3l0,0c0,0.1,0,0.1,0,0.2c0,0.1,0,0.1,0,0.2s0,0.2,0,0.3l0,0c0,0.1,0,0.2,0,0.3
	S317.8,276.1,317.8,276.3z"/>
<path class="st2" d="M308.1,435.5v0.4c0,0.1,0,0.1,0,0.2c0,0.1,0,0.3,0,0.5v0.1v0.4v0.1c0,0,0,0,0,0.1v0.4v0.3l-0.1,0.7
	c0,0.1,0,0.3-0.1,0.5l0,0c0,0.1,0,0.2,0,0.2v0.1c0,0,0,0.1,0,0.1c0,0.1,0,0.2,0,0.2c0,0.1,0,0.2,0,0.2c0,0.1,0,0.1,0,0.2
	s0,0.2-0.1,0.3l0,0l-0.1,0.2l-0.1,0.3l-0.1,0.3c0,0,0,0,0,0.1c0,0-0.1,0.2-0.1,0.3c-0.1,0.3-0.2,0.6-0.3,1l-0.1,0.3
	c0,0.1,0,0.1-0.1,0.2c-0.7,1.9-1.7,3.7-2.9,5.3l-0.2,0.3c-0.6,0.7-1.2,1.5-1.9,2.1l-31.2,31.2l-31.2-31.2c-0.9-0.9-1.7-1.9-2.5-2.9
	c-0.5-0.6-0.9-1.3-1.3-2c-2.1-3.8-3-8.2-2.7-12.5c0-0.4,0.1-0.8,0.1-1.2c0.1-0.7,0.2-1.4,0.4-2.1c0-0.1,0.1-0.3,0.1-0.4l0.1-0.2
	v-0.1l0.1-0.3l0,0c0.1-0.2,0.1-0.5,0.2-0.7l0.1-0.3c0.2-0.5,0.3-0.9,0.5-1.4l-0.1-0.3l0.2-0.4c0.1-0.2,0.2-0.4,0.3-0.7v0l0,0
	l0.2-0.3l0.2-0.3c0.1-0.1,0.1-0.3,0.2-0.4l0.1-0.2l0.1-0.1l0,0l0,0c0-0.1,0.1-0.2,0.1-0.2c0.1-0.1,0.1-0.2,0.2-0.3l0.4-0.6
	c0-0.1,0.1-0.1,0.1-0.2l0.2-0.2l0.2-0.3l0.2-0.3l0.2-0.3l0.1-0.1l0.1-0.2l0.2-0.3l0.1-0.1l0,0l0.2-0.2l0.3-0.2
	c0.2-0.2,0.4-0.4,0.6-0.6l0.2-0.2l0.4-0.4l0.2-0.2l0.3-0.3l0.2-0.2l0.2-0.2c0.1-0.1,0.3-0.2,0.4-0.3c0.1-0.1,0.1-0.1,0.2-0.2
	c0.3-0.3,0.7-0.5,1-0.7l0.2-0.1c0.1-0.1,0.1-0.1,0.2-0.1l0.2-0.1l0.3-0.2l0.1-0.1l0.2-0.1c0.3-0.2,0.6-0.3,0.9-0.5l0.2-0.1l0.3-0.1
	l0.2-0.1l0.2-0.1l0.2-0.1l0.2-0.1l0.2-0.1l0.9-0.4l0.2-0.1l0.2-0.1l0.2-0.1l0.2-0.1l0.4-0.1l0.2-0.1l0.2,0h0.2l0.3-0.1l0.4-0.1
	c0.4-0.1,0.8-0.2,1.2-0.3h0.2h0.2h0.2h0.3h0.2c0.4,0,0.8-0.1,1.2-0.1h0.2h2.6h0.3l0,0h0.2l1,0.1l0.4,0.1h0.3h0.2h0.2h0.2
	c0.4,0.1,0.8,0.2,1.2,0.3l0.5,0.1h0.1l0.2,0.1l0.4,0.1l0.2,0.1c0.3,0.1,0.6,0.2,0.9,0.3l0.2,0.1l0.3,0.1l0.4,0.2l0.5,0.2l0.2,0.1
	l0.2,0.1l0.2,0.1l0.2,0.1l0.3,0.1l0.2,0.1l0.5,0.3l0.2,0.1c0.2,0.1,0.5,0.3,0.7,0.5l0.2,0.1l0.2,0.1l0.2,0.1l0,0l0.1,0.1l0.9,0.6
	l0.2,0.2l0.4,0.3l0.2,0.2l0.2,0.2l0.3,0.3l0.2,0.2l0.4,0.4l0.2,0.2l0.2-0.2l0.4-0.4l0.2-0.2l0.3-0.3l0.2-0.2l0.2-0.2l0.4-0.3
	l0.2-0.2c0.3-0.3,0.7-0.5,1-0.7l0.2-0.1l0.2-0.1l0.2-0.1l0.3-0.2l0.2-0.1l0.2-0.1l0.9-0.5l0.2-0.1l0.3-0.1l0.2-0.1l0.2-0.1l0.2-0.1
	l0.2-0.1l0.2-0.1l0.9-0.4l0.2-0.1l0.2-0.1l0.2-0.1l0.2-0.1l0.4-0.1l0.2-0.1l0.2,0h0.2l0.3-0.1l0.4-0.1c0.4-0.1,0.8-0.2,1.2-0.3h0.2
	h0.2h0.2h0.3h0.2l1.2-0.1h0.2h2.6h0.3l0,0h0.2c0.3,0,0.6,0,1,0.1l0.4,0.1h0.3h0.2h0.2h0.2c0.4,0.1,0.8,0.2,1.2,0.3l0.5,0.1h0.1
	l0.2,0.1l0.4,0.1l0.2,0.1c0.3,0.1,0.6,0.2,0.9,0.3l0.2,0.1l0.3,0.1l0.4,0.2l0.5,0.2l0.2,0.1l0.2,0.1l0.2,0.1l0.2,0.1l0.3,0.1
	l0.2,0.1c0.2,0.1,0.3,0.2,0.5,0.3l0.2,0.1l0.7,0.5l0.2,0.1l0.2,0.1l0.2,0.1l0,0l0.1,0.1c0.3,0.2,0.6,0.4,0.9,0.6l0.2,0.2l0.4,0.3
	l0.2,0.2l0.2,0.2l0.3,0.2l0.2,0.2l0.1,0.1l0,0l0,0l0.2,0.2l0.1,0.1l0.1,0.1l0.2,0.2l0.4,0.4l0.2,0.2l0.3,0.4l0.4,0.4
	c0.4,0.5,0.8,1,1.2,1.6l0.2,0.2l0.1,0.2l0.1,0.2l0.2,0.4l0.2,0.3l0.1,0.2l0.1,0.2c0,0,0,0.1,0.1,0.2c0,0.1,0.1,0.2,0.1,0.2
	c0,0.1,0.1,0.2,0.1,0.2c0.3,0.6,0.5,1.1,0.8,1.7c0,0.1,0.1,0.2,0.1,0.2l0.3,0.7l0.1,0.2c0,0.1,0.1,0.2,0.1,0.3
	c0,0.1,0.1,0.2,0.1,0.3l0.1,0.2l0.1,0.2l0.1,0.3c0,0.2,0.1,0.3,0.1,0.5c0,0.1,0.1,0.2,0.1,0.3c0,0.1,0.1,0.2,0.1,0.4v0.2
	c0,0.1,0,0.1,0,0.2v0.2v0.1v0.1v0.1c0,0.1,0,0.2,0,0.3c0,0.1,0,0.2,0,0.3c0,0.1,0,0.2,0,0.3s0,0.2,0,0.3v0.2v0.3c0,0,0,0.1,0,0.2
	s0,0.2,0,0.3l0,0c0,0.1,0,0.1,0,0.2c0,0.1,0,0.1,0,0.2c0,0.1,0,0.2,0,0.3l0,0c0,0.1,0,0.2,0,0.3S308.1,435.3,308.1,435.5z"/>
<path class="st3" d="M308.1,435.5v0.4c0,0.1,0,0.1,0,0.2c0,0.1,0,0.3,0,0.5v0.1v0.4v0.1c0,0,0,0,0,0.1v0.4v0.3l-0.1,0.7
	c0,0.1,0,0.3-0.1,0.5l0,0c0,0.1,0,0.2,0,0.2v0.1c0,0,0,0.1,0,0.1c0,0.1,0,0.2,0,0.2c0,0.1,0,0.2,0,0.2c0,0.1,0,0.1,0,0.2
	s0,0.2-0.1,0.3l0,0l-0.1,0.2l-0.1,0.3l-0.1,0.3c0,0,0,0,0,0.1c0,0-0.1,0.2-0.1,0.3c-0.1,0.3-0.2,0.6-0.3,1l-0.1,0.3
	c0,0.1,0,0.1-0.1,0.2c0.4-1.8,0.6-3.5,0.6-5.3c0-1.9-0.3-3.7-0.8-5.5c-1.4-5.3-4.8-9.9-9.5-12.9c-0.4-0.2-0.8-0.5-1.2-0.7
	c-6.6-3.6-14.6-3.6-21.2,0c-0.7,0.4-1.4,0.8-2.1,1.3c-1.1,0.7-2.2,1.5-3.1,2.4c-0.8-0.8-1.7-1.6-2.7-2.3l0,0c-0.7-0.5-1.5-1-2.3-1.4
	c-7.8-4.3-17.4-3.5-24.4,2.1c-0.6,0.5-1.3,1.1-1.8,1.7c-0.9,0.9-1.7,1.8-2.4,2.9c-0.4,0.6-0.8,1.3-1.2,1.9l0,0
	c-0.3,0.6-0.7,1.2-0.9,1.9c-0.2,0.4-0.3,0.7-0.4,1.1c0-0.1,0.1-0.3,0.1-0.4l0.1-0.2v-0.1l0.1-0.3l0,0c0.1-0.2,0.1-0.5,0.2-0.7
	l0.1-0.3c0.2-0.5,0.3-0.9,0.5-1.4l0.1-0.2l0.2-0.4l0.3-0.7v0l0,0l0.2-0.3l0.2-0.3c0.1-0.1,0.1-0.3,0.2-0.4l0.1-0.2l0.1-0.1l0,0l0,0
	c0-0.1,0.1-0.2,0.1-0.2c0.1-0.1,0.1-0.2,0.2-0.3l0.4-0.6c0-0.1,0.1-0.1,0.1-0.2l0.2-0.2l0.2-0.3l0.2-0.3l0.2-0.3l0.1-0.1l0.1-0.2
	l0.2-0.3l0.1-0.1l0,0l0.2-0.2l0.3-0.2c0.2-0.2,0.4-0.4,0.6-0.6l0.2-0.2l0.4-0.4l0.2-0.2l0.3-0.3l0.2-0.2l0.2-0.2
	c0.1-0.1,0.3-0.2,0.4-0.3c0.1-0.1,0.1-0.1,0.2-0.2c0.3-0.3,0.7-0.5,1-0.7l0.2-0.1c0.1-0.1,0.1-0.1,0.2-0.1l0.2-0.1l0.3-0.2l0.1-0.1
	l0.2-0.1c0.3-0.2,0.6-0.3,0.9-0.5l0.2-0.1l0.3-0.1l0.2-0.1l0.2-0.1l0.2-0.1l0.2-0.1l0.2-0.1l0.9-0.4l0.2-0.1l0.2-0.1l0.2-0.1
	l0.2-0.1l0.4-0.1l0.2-0.1l0.2,0h0.2l0.3-0.1l0.4-0.1c0.4-0.1,0.8-0.2,1.2-0.3h0.2h0.2h0.2h0.3h0.2c0.4,0,0.8-0.1,1.2-0.1h0.2h2.6
	h0.3l0,0h0.2l1,0.1l0.4,0.1h0.3h0.2h0.2h0.2c0.4,0.1,0.8,0.2,1.2,0.3l0.5,0.1h0.1l0.2,0.1l0.4,0.1l0.2,0.1c0.3,0.1,0.6,0.2,0.9,0.3
	l0.2,0.1l0.3,0.1l0.4,0.2l0.5,0.2l0.2,0.1l0.2,0.1l0.2,0.1l0.2,0.1l0.3,0.1l0.2,0.1l0.5,0.3l0.2,0.1c0.2,0.1,0.5,0.3,0.7,0.5
	l0.2,0.1l0.2,0.1l0.2,0.1l0,0l0.1,0.1l0.9,0.6l0.2,0.2l0.4,0.3l0.2,0.2l0.2,0.2l0.3,0.3l0.2,0.2l0.4,0.4l0.2,0.2l0.2-0.2l0.4-0.4
	l0.2-0.2l0.3-0.3l0.2-0.2l0.2-0.2l0.4-0.3l0.2-0.2c0.3-0.3,0.7-0.5,1-0.7l0.2-0.1l0.2-0.1l0.2-0.1l0.3-0.2l0.2-0.1l0.2-0.1l0.9-0.5
	l0.2-0.1l0.3-0.1l0.2-0.1l0.2-0.1l0.2-0.1l0.2-0.1l0.2-0.1l0.9-0.4l0.2-0.1l0.2-0.1l0.2-0.1l0.2-0.1l0.4-0.1l0.2-0.1l0.2,0h0.2
	l0.3-0.1l0.4-0.1c0.4-0.1,0.8-0.2,1.2-0.3h0.2h0.2h0.2h0.3h0.2l1.2-0.1h0.2h2.6h0.3l0,0h0.2c0.3,0,0.6,0,1,0.1l0.4,0.1h0.3h0.2h0.2
	h0.2c0.4,0.1,0.8,0.2,1.2,0.3l0.5,0.1h0.1l0.2,0.1l0.4,0.1l0.2,0.1c0.3,0.1,0.6,0.2,0.9,0.3l0.2,0.1l0.3,0.1l0.4,0.2l0.5,0.2
	l0.2,0.1l0.2,0.1l0.2,0.1l0.2,0.1l0.3,0.1l0.2,0.1c0.2,0.1,0.3,0.2,0.5,0.3l0.2,0.1l0.7,0.5l0.2,0.1l0.2,0.1l0.2,0.1l0,0l0.1,0.1
	c0.3,0.2,0.6,0.4,0.9,0.6l0.2,0.2l0.4,0.3l0.2,0.2l0.2,0.2l0.3,0.2l0.2,0.2l0.1,0.1l0,0l0,0l0.2,0.2l0.1,0.1l0.1,0.1l0.2,0.2
	l0.4,0.4l0.2,0.2l0.3,0.4l0.4,0.4c0.4,0.5,0.8,1,1.2,1.6l0.2,0.2l0.1,0.2l0.1,0.2l0.2,0.4l0.2,0.3l0.1,0.2l0.1,0.2
	c0,0,0,0.1,0.1,0.2c0,0.1,0.1,0.2,0.1,0.2c0,0.1,0.1,0.2,0.1,0.2c0.3,0.6,0.5,1.1,0.8,1.7c0,0.1,0.1,0.2,0.1,0.2l0.3,0.7l0.1,0.2
	c0,0.1,0.1,0.2,0.1,0.3c0,0.1,0.1,0.2,0.1,0.3l0.1,0.2l0.1,0.2l0.1,0.3c0,0.2,0.1,0.3,0.1,0.5c0,0.1,0.1,0.2,0.1,0.3
	c0,0.1,0.1,0.2,0.1,0.4v0.2c0,0.1,0,0.1,0,0.2v0.2v0.1v0.1v0.1c0,0.1,0,0.2,0,0.3c0,0.1,0,0.2,0,0.3c0,0.1,0,0.2,0,0.3s0,0.2,0,0.3
	v0.2v0.3c0,0,0,0.1,0,0.2s0,0.2,0,0.3l0,0c0,0.1,0,0.1,0,0.2c0,0.1,0,0.1,0,0.2c0,0.1,0,0.2,0,0.3l0,0c0,0.1,0,0.2,0,0.3
	S308.1,435.3,308.1,435.5z"/>
<path class="st2" d="M391.2,333.2v0.2c0,0,0,0.1,0,0.1c0,0.1,0,0.2,0,0.3v0.1c0,0.1,0,0.2,0,0.3v0.1v0.3c0,0.1,0,0.1,0,0.2l-0.1,0.5
	l-0.1,0.3l0,0v0.2c0,0,0,0.1,0,0.1c0,0,0,0,0,0.1c0,0,0,0.1,0,0.2v0.2v0.1c0,0.1,0,0.1,0,0.2l0,0v0.1c0,0.1,0,0.1,0,0.2l-0.1,0.2
	c0,0,0,0,0,0l-0.1,0.2c-0.1,0.2-0.2,0.5-0.2,0.7c-0.1,0.2,0,0.2-0.1,0.2l0,0.1c-0.5,1.3-1.2,2.6-2.1,3.8l-0.2,0.2
	c-0.4,0.5-0.8,1-1.3,1.5l-22,22l-22-22c-3.2-3.3-4.9-7.8-4.5-12.4c0-0.3,0.1-0.6,0.1-0.8c0.1-0.5,0.2-1,0.3-1.5c0-0.1,0-0.2,0.1-0.3
	c0,0,0-0.1,0-0.1v-0.1l0.1-0.2l0,0c0-0.2,0.1-0.4,0.2-0.5l0.1-0.2c0.1-0.3,0.2-0.7,0.4-1l0.1-0.2c0-0.1,0.1-0.2,0.1-0.3l0.2-0.5l0,0
	l0,0c0-0.1,0.1-0.1,0.1-0.2l0.1-0.2c0.1-0.1,0.1-0.2,0.2-0.3c0,0,0-0.1,0.1-0.1V325l0,0l0,0l0.1-0.2l0.1-0.2l0.3-0.4l0.1-0.2
	l0.1-0.2l0.1-0.2l0.2-0.2c0-0.1,0.1-0.1,0.1-0.2l0-0.1l0.1-0.1c0.1-0.1,0.1-0.1,0.2-0.2l0.1-0.1l0,0l0.1-0.1l0.2-0.2l0.4-0.4
	l0.2-0.2l0.3-0.2c0.1,0,0.1-0.1,0.2-0.2l0.2-0.2l0.1-0.1l0.1-0.1l0.3-0.2l0.1-0.1l0.7-0.5l0.2-0.1l0.1-0.1l0.1-0.1l0.2-0.1l0.1-0.1
	l0.2-0.1c0.2-0.1,0.4-0.2,0.6-0.3l0.1-0.1l0.2-0.1l0.2-0.1l0.2-0.1l0.1-0.1l0.2-0.1l0.2-0.1l0.7-0.3l0.2-0.1l0.2-0.1l0.1-0.1h0.1
	l0.3-0.1h0.2h0.1h0.1l0.2-0.1l0.3-0.1c0.3-0.1,0.6-0.1,0.9-0.2h0.1h0.2h0.2h0.2h0.1c0.3,0,0.6-0.1,0.9-0.1h2.4l0.7,0.1h0.3h0.2h0.2
	h0.2h0.1c0.3,0,0.6,0.1,0.9,0.2l0.4,0.1h0.1h0.1l0.3,0.1h0.1l0.7,0.2l0.1,0.1l0.2,0.1l0.3,0.1l0.3,0.1l0.1,0.1l0.2,0.1l0.2,0.1
	l0.2,0.1l0.2,0.1l0.1,0.1l0.4,0.2l0.2,0.1l0.5,0.3l0.1,0.1l0.1,0.1l0.2,0.1l0,0l0.1,0.1c0.2,0.1,0.4,0.3,0.6,0.5l0.1,0.1l0.3,0.2
	l0.1,0.1l0.1,0.1l0.2,0.2l0.2,0.2c0.1,0.1,0.2,0.2,0.3,0.2l0.2,0.2l0.2-0.2c0.1-0.1,0.2-0.2,0.3-0.2l0.2-0.2l0.2-0.2l0.1-0.1
	l0.1-0.1l0.3-0.2l0.1-0.1c0.2-0.2,0.5-0.4,0.7-0.5l0.1-0.1l0.1-0.1l0.1-0.1l0.2-0.1l0.1-0.1l0.2-0.1c0.2-0.1,0.4-0.2,0.6-0.3
	l0.1-0.1l0.2-0.1l0.1-0.1l0.2-0.1l0.2-0.1l0.2-0.1l0.2-0.1l0.6-0.3l0.2-0.1l0.2-0.1l0.2-0.1h0.1l0.3-0.1h0.2h0.1h0.1l0.2-0.1
	l0.3-0.1c0.3-0.1,0.6-0.1,0.9-0.2h0.1h0.2h0.2h0.2h0.1c0.3,0,0.6-0.1,0.8-0.1h2.4l0.7,0.1h0.3h0.2h0.2h0.2h0.1l0.9,0.2l0.4,0.1h0.1
	h0.2l0.3,0.1h0.1l0.6,0.2l0.2,0.1l0.2,0.1l0.3,0.1l0.3,0.1l0.1,0.1l0.2,0.1l0.2,0.1l0.2,0.1l0.2,0.1l0.2,0.1l0.4,0.2l0.2,0.1
	c0.2,0.1,0.3,0.2,0.5,0.3l0.1,0.1l0.2,0.1l0.2,0.1l0,0l0.1,0.1c0.2,0.1,0.4,0.3,0.6,0.5l0.1,0.1c0.1,0.1,0.2,0.1,0.3,0.2l0.1,0.1
	l0.1,0.1l0.2,0.2l0.2,0.2l0.1,0.1l0,0l0.2,0.2l0.1,0.1l0.1,0.1l0.2,0.2l0.3,0.3l0.1,0.2l0.2,0.3l0.3,0.3c0.3,0.4,0.6,0.7,0.8,1.1
	l0.1,0.1c0,0.1,0.1,0.1,0.1,0.2l0.1,0.1c0,0.1,0.1,0.2,0.2,0.2l0.1,0.2c0,0,0.1,0.1,0.1,0.1l0.1,0.1l0.1,0.1l0.1,0.2l0.1,0.2
	c0.2,0.4,0.4,0.8,0.5,1.2l0.1,0.2c0.1,0.2,0.1,0.3,0.2,0.5c0,0,0,0.1,0,0.2c0,0.1,0,0.1,0.1,0.2l0.1,0.2c0,0,0,0.1,0,0.1
	c0,0.1,0,0.1,0,0.2l0.1,0.2c0,0.1,0.1,0.2,0.1,0.4s0,0.1,0,0.2l0.1,0.3v0.1v0.2c0,0,0,0.1,0,0.1c0,0,0,0.1,0,0.1v0.1
	c0,0,0,0.1,0,0.1v0.2v0.2v0.2c0,0.1,0,0.1,0,0.2v0.1c0,0.1,0,0.1,0,0.2c0,0,0,0.1,0,0.1c0,0.1,0,0.1,0,0.2l0,0c0,0,0,0.1,0,0.1
	c0,0,0,0.1,0,0.1c0,0.1,0,0.2,0,0.2l0,0c0,0.1,0,0.2,0,0.2L391.2,333.2z"/>
<path class="st3" d="M391.2,333.2v0.2c0,0,0,0.1,0,0.1c0,0.1,0,0.2,0,0.3v0.1c0,0.1,0,0.2,0,0.3v0.1v0.3c0,0.1,0,0.1,0,0.2l-0.1,0.5
	l-0.1,0.3l0,0v0.2c0,0,0,0.1,0,0.1c0,0,0,0,0,0.1c0,0,0,0.1,0,0.2v0.2v0.1c0,0.1,0,0.1,0,0.2l0,0v0.1c0,0.1,0,0.1,0,0.2l-0.1,0.2
	c0,0,0,0,0,0l-0.1,0.2c-0.1,0.2-0.2,0.5-0.2,0.7c-0.1,0.2,0,0.2-0.1,0.2l0,0.1c0.3-1.2,0.4-2.5,0.4-3.8c0-1.3-0.2-2.6-0.5-3.9
	c-0.7-2.6-2.1-5.1-4-7c-0.8-0.8-1.7-1.5-2.7-2.1c-0.3-0.2-0.6-0.3-0.8-0.5c-4.7-2.6-10.3-2.6-15,0c-0.5,0.3-1,0.6-1.5,0.9
	c-0.7,0.5-1.4,1.1-2,1.7c-0.6-0.6-1.2-1.1-1.9-1.6l0,0c-0.5-0.4-1.1-0.7-1.6-1c-4.7-2.6-10.3-2.6-15,0c-0.8,0.4-1.5,0.9-2.2,1.5
	c-0.5,0.4-0.9,0.7-1.3,1.2c-0.6,0.6-1.2,1.3-1.7,2c-0.3,0.4-0.6,0.9-0.8,1.4l0,0c-0.2,0.4-0.5,0.9-0.7,1.3c-0.1,0.2-0.2,0.5-0.3,0.8
	c0-0.1,0-0.2,0.1-0.3c0,0,0-0.1,0-0.1v-0.1l0.1-0.2l0,0c0-0.2,0.1-0.4,0.2-0.5l0.1-0.2c0.1-0.3,0.2-0.7,0.4-1l0.1-0.2
	c0-0.1,0.1-0.2,0.1-0.3l0.2-0.5l0,0l0,0c0-0.1,0.1-0.1,0.1-0.2l0.1-0.2c0.1-0.1,0.1-0.2,0.2-0.3c0,0,0-0.1,0.1-0.1v-0.1l0,0l0,0
	l0.1-0.2l0.1-0.2l0.3-0.4l0.1-0.2l0.1-0.2l0.1-0.2l0.2-0.2c0-0.1,0.1-0.1,0.1-0.2l0-0.1l0.1-0.1c0.1-0.1,0.1-0.1,0.2-0.2l0.1-0.1
	l0,0l0.1-0.1l0.2-0.2l0.4-0.4l0.2-0.2l0.3-0.2c0.1,0,0.1-0.1,0.2-0.2l0.2-0.2l0.1-0.1l0.1-0.1l0.3-0.2l0.1-0.1l0.7-0.5l0.2-0.1
	l0.1-0.1l0.1-0.1l0.2-0.1l0.1-0.1l0.2-0.1c0.2-0.1,0.4-0.2,0.6-0.3l0.1-0.1l0.2-0.1l0.2-0.1l0.2-0.1l0.1-0.1l0.2-0.1l0.2-0.1
	l0.7-0.3l0.2-0.1l0.2-0.1l0.1-0.1h0.1l0.3-0.1h0.2h0.1h0.1l0.2-0.1l0.3-0.1c0.3-0.1,0.6-0.1,0.9-0.2h0.1h0.2h0.2h0.2h0.1
	c0.3,0,0.6-0.1,0.9-0.1h2.4l0.7,0.1h0.3h0.2h0.2h0.2h0.1c0.3,0,0.6,0.1,0.9,0.2l0.4,0.1h0.1h0.1l0.3,0.1h0.1l0.7,0.2l0.1,0.1
	l0.2,0.1l0.3,0.1l0.3,0.1l0.1,0.1l0.2,0.1l0.2,0.1l0.2,0.1l0.2,0.1l0.1,0.1l0.4,0.2l0.2,0.1l0.5,0.3l0.1,0.1l0.1,0.1l0.2,0.1l0,0
	l0.1,0.1c0.2,0.1,0.4,0.3,0.6,0.5l0.1,0.1l0.3,0.2l0.1,0.1l0.1,0.1l0.2,0.2l0.2,0.2c0.1,0.1,0.2,0.2,0.3,0.2l0.2,0.2l0.2-0.2
	c0.1-0.1,0.2-0.2,0.3-0.2l0.2-0.2l0.2-0.2l0.1-0.1l0.1-0.1l0.3-0.2l0.1-0.1c0.2-0.2,0.5-0.4,0.7-0.5l0.1-0.1l0.1-0.1l0.1-0.1
	l0.2-0.1l0.1-0.1l0.2-0.1c0.2-0.1,0.4-0.2,0.6-0.3l0.1-0.1l0.2-0.1l0.1-0.1l0.2-0.1l0.2-0.1l0.2-0.1l0.2-0.1l0.6-0.3l0.2-0.1
	l0.2-0.1l0.2-0.1h0.1l0.3-0.1h0.2h0.1h0.1l0.2-0.1l0.3-0.1c0.3-0.1,0.6-0.1,0.9-0.2h0.1h0.2h0.2h0.2h0.1c0.3,0,0.6-0.1,0.8-0.1h2.4
	l0.7,0.1h0.3h0.2h0.2h0.2h0.1l0.9,0.2l0.4,0.1h0.1h0.2l0.3,0.1h0.1l0.6,0.2l0.2,0.1l0.2,0.1l0.3,0.1l0.3,0.1l0.1,0.1l0.2,0.1
	l0.2,0.1l0.2,0.1l0.2,0.1l0.2,0.1l0.4,0.2l0.2,0.1c0.2,0.1,0.3,0.2,0.5,0.3l0.1,0.1l0.2,0.1l0.2,0.1l0,0l0.1,0.1
	c0.2,0.1,0.4,0.3,0.6,0.5l0.1,0.1c0.1,0.1,0.2,0.1,0.3,0.2l0.1,0.1l0.1,0.1l0.2,0.2l0.2,0.2l0.1,0.1l0,0l0.2,0.2l0.1,0.1l0.1,0.1
	l0.2,0.2l0.3,0.3l0.1,0.2l0.2,0.3l0.3,0.3c0.3,0.4,0.6,0.7,0.8,1.1l0.1,0.1c0,0.1,0.1,0.1,0.1,0.2l0.1,0.1c0,0.1,0.1,0.2,0.2,0.2
	l0.1,0.2c0,0,0.1,0.1,0.1,0.1l0.1,0.1l0.1,0.1l0.1,0.2l0.1,0.2c0.2,0.4,0.4,0.8,0.5,1.2l0.1,0.2c0.1,0.2,0.1,0.3,0.2,0.5
	c0,0,0,0.1,0,0.2c0,0.1,0,0.1,0.1,0.2l0.1,0.2c0,0,0,0.1,0,0.1c0,0.1,0,0.1,0,0.2l0.1,0.2c0,0.1,0.1,0.2,0.1,0.4s0,0.1,0,0.2
	l0.1,0.3v0.1v0.2c0,0,0,0.1,0,0.1c0,0,0,0.1,0,0.1v0.1c0,0,0,0.1,0,0.1v0.2v0.2v0.2c0,0.1,0,0.1,0,0.2v0.1c0,0.1,0,0.1,0,0.2
	c0,0,0,0.1,0,0.1c0,0.1,0,0.1,0,0.2l0,0c0,0,0,0.1,0,0.1c0,0,0,0.1,0,0.1c0,0.1,0,0.2,0,0.2l0,0c0,0.1,0,0.2,0,0.2L391.2,333.2z"/>
<path class="st2" d="M627.2,417.7v0.2c0,0,0,0.1,0,0.1c0,0.1,0,0.2,0,0.3v0.1c0,0.1,0,0.2,0,0.3v0.1v0.2c0,0.1,0,0.1,0,0.2l-0.1,0.5
	c0,0.1,0,0.2,0,0.3l0,0v0.2c0,0,0,0.1,0,0.1c0,0,0,0.1,0,0.1c0,0.1,0,0.1,0,0.2v0.2v0.1c0,0.1,0,0.1,0,0.2l0,0c0,0,0,0.1,0,0.2
	c0,0.1,0,0.1,0,0.2l-0.1,0.2c0,0,0,0,0,0.1c0,0.1-0.1,0.1-0.1,0.2c-0.1,0.2-0.1,0.5-0.2,0.7c0,0.1-0.1,0.1-0.1,0.2l0,0.1
	c-0.5,1.3-1.2,2.6-2.1,3.8l-0.2,0.2c-0.4,0.5-0.9,1-1.3,1.5l-22,22l-22-22c-0.6-0.6-1.2-1.3-1.7-2c-0.3-0.5-0.6-0.9-0.9-1.4
	c-1.5-2.7-2.1-5.8-1.9-8.9c0-0.3,0-0.6,0.1-0.8c0.1-0.5,0.2-1,0.3-1.5c0-0.1,0-0.2,0.1-0.3c0,0,0-0.1,0-0.1c0,0,0-0.1,0-0.1l0.1-0.2
	l0,0c0-0.2,0.1-0.3,0.2-0.5c0-0.1,0.1-0.2,0.1-0.2c0.1-0.3,0.2-0.7,0.4-1l0.1-0.2c0-0.1,0.1-0.2,0.1-0.3c0-0.1,0.2-0.3,0.2-0.5l0,0
	l0,0l0.1-0.2l0.1-0.2c0.1-0.1,0.1-0.2,0.2-0.3c0,0,0-0.1,0.1-0.1c0,0,0,0,0-0.1l0,0c0-0.1,0.1-0.1,0.1-0.2l0.1-0.2l0.3-0.4l0.1-0.1
	l0.1-0.2l0.1-0.2l0.2-0.2l0.2-0.2v-0.1l0.1-0.1l0.2-0.2l0.1-0.1l0,0l0.1-0.2l0.2-0.2c0.1-0.2,0.3-0.3,0.4-0.4
	c0.1-0.1,0.1-0.1,0.2-0.2c0.1-0.1,0.2-0.2,0.3-0.2l0.2-0.2c0.1-0.1,0.1-0.1,0.2-0.2l0.1-0.1l0.1-0.1l0.3-0.2l0.1-0.1
	c0.2-0.2,0.5-0.4,0.7-0.5l0.2-0.1l0.2-0.1l0.1-0.1l0.2-0.1l0.1-0.1l0.2-0.1l0.6-0.3l0.1-0.1l0.2-0.1l0.2-0.1l0.2-0.1l0.2-0.1
	l0.2-0.1l0.2-0.1l0.7-0.3l0.2-0.1l0.2-0.1l0.2,0l0.1,0l0.3-0.1h0.2h0.1h0.1l0.2-0.1l0.3-0.1c0.3-0.1,0.6-0.1,0.9-0.2h0.1h0.2h0.2
	h0.2h0.1l0.9-0.1h2.4l0.7,0.1h0.3h0.2h0.2h0.2h0.1c0.3,0,0.6,0.1,0.9,0.2l0.4,0.1h0.1h0.2l0.3,0.1h0.1l0.6,0.2h0.1l0.2,0.1l0.3,0.1
	l0.3,0.1l0.1,0.1l0.2,0.1l0.2,0.1l0.2,0.1l0.2,0.1l0.2,0.1l0.3,0.2l0.2,0.1l0.5,0.3l0.1,0.1l0.2,0.1l0.1,0.1l0,0l0.1,0.1l0.6,0.5
	l0.2,0.1l0.3,0.2l0.1,0.1l0.1,0.1l0.2,0.2l0.2,0.2l0.3,0.2c0.1,0.1,0.1,0.1,0.2,0.2c0.1-0.1,0.1-0.1,0.2-0.2l0.3-0.2
	c0.1-0.1,0.1-0.1,0.2-0.2l0.2-0.2l0.1-0.1l0.1-0.1l0.3-0.2l0.1-0.1c0.2-0.2,0.5-0.4,0.7-0.5l0.2-0.1l0.2-0.1l0.1-0.1l0.2-0.1
	l0.1-0.1l0.2-0.1l0.6-0.3l0.1-0.1l0.2-0.1l0.2-0.1l0.2-0.1l0.2-0.1l0.2-0.1l0.2-0.1l0.6-0.3l0.2-0.1l0.2-0.1l0.2,0l0.1,0l0.3-0.1
	h0.2h0.1h0.1l0.2-0.1l0.3-0.1c0.3-0.1,0.6-0.1,0.9-0.2h0.1h0.2h0.2h0.2h0.1l0.8-0.1h2.4l0.7,0.1h0.3h0.2h0.2h0.2h0.1
	c0.3,0,0.6,0.1,0.9,0.2l0.4,0.1h0.1h0.2l0.3,0.1h0.1l0.6,0.2h0.2l0.2,0.1l0.3,0.1l0.3,0.1l0.1,0.1l0.2,0.1l0.2,0.1l0.2,0.1l0.2,0.1
	l0.2,0.1l0.4,0.2l0.2,0.1c0.2,0.1,0.3,0.2,0.5,0.3l0.1,0.1l0.2,0.1l0.2,0.1l0,0l0.1,0.1l0.6,0.5l0.1,0.1l0.3,0.2l0.1,0.1l0.1,0.1
	l0.2,0.2l0.2,0.2c0,0,0.1,0.1,0.1,0.1l0,0c0,0.1,0.1,0.1,0.2,0.2l0.1,0.1l0.1,0.1l0.2,0.2l0.3,0.3l0.1,0.2c0.1,0.1,0.2,0.2,0.2,0.3
	l0.3,0.3c0.3,0.4,0.6,0.7,0.8,1.1c0,0,0.1,0.1,0.1,0.2l0.1,0.2l0.1,0.1c0.1,0.1,0.1,0.2,0.2,0.2l0.1,0.2l0.1,0.1l0.1,0.1l0.1,0.1
	l0.1,0.2l0.1,0.2c0.2,0.4,0.4,0.8,0.5,1.2c0,0.1,0.1,0.1,0.1,0.2c0.1,0.2,0.1,0.3,0.2,0.5l0.1,0.2c0,0.1,0,0.1,0.1,0.2l0.1,0.2v0.1
	c0,0.1,0,0.1,0,0.2l0.1,0.2c0,0.1,0.1,0.2,0.1,0.4s0,0.1,0,0.2l0.1,0.3v0.1v0.2c0,0,0,0.1,0,0.1c0,0,0,0.1,0,0.1v0.1
	c0,0,0,0.1,0,0.1v0.2v0.2v0.2v0.2v0.1c0,0.1,0,0.1,0,0.2c0,0.1,0,0.1,0,0.1s0,0.2,0,0.2l0,0c0,0,0,0.1,0,0.1v0.1c0,0.1,0,0.2,0,0.2
	l0,0c0,0.1,0,0.2,0,0.2L627.2,417.7z"/>
<path class="st3" d="M627.2,417.7v0.2c0,0,0,0.1,0,0.1c0,0.1,0,0.2,0,0.3v0.1c0,0.1,0,0.2,0,0.3v0.1v0.2c0,0.1,0,0.1,0,0.2l-0.1,0.5
	c0,0.1,0,0.2,0,0.3l0,0v0.2c0,0,0,0.1,0,0.1c0,0,0,0.1,0,0.1c0,0.1,0,0.1,0,0.2v0.2v0.1c0,0.1,0,0.1,0,0.2l0,0c0,0,0,0.1,0,0.2
	c0,0.1,0,0.1,0,0.2l-0.1,0.2c0,0,0,0,0,0.1c0,0.1-0.1,0.1-0.1,0.2c-0.1,0.2-0.1,0.5-0.2,0.7c0,0.1-0.1,0.1-0.1,0.2l0,0.1
	c0.3-1.2,0.4-2.5,0.4-3.8c-0.1-5.3-2.8-10.2-7.2-13c-0.3-0.2-0.6-0.4-0.8-0.5c-4.7-2.6-10.3-2.6-15,0c-0.5,0.3-1,0.6-1.5,0.9
	c-0.7,0.5-1.4,1.1-2,1.7c-0.6-0.6-1.2-1.1-1.9-1.6l0,0c-0.5-0.4-1.1-0.7-1.6-1c-4.7-2.6-10.3-2.6-15,0c-0.8,0.4-1.5,0.9-2.2,1.5
	c-0.5,0.4-0.9,0.8-1.3,1.2c-0.6,0.6-1.2,1.3-1.7,2c-0.3,0.4-0.6,0.9-0.9,1.4l0,0c-0.2,0.4-0.5,0.9-0.7,1.3c-0.1,0.2-0.2,0.5-0.3,0.8
	c0-0.1,0-0.2,0.1-0.3c0,0,0-0.1,0-0.2c0,0,0-0.1,0-0.1l0.1-0.2l0,0c0-0.2,0.1-0.3,0.2-0.5c0-0.1,0.1-0.2,0.1-0.2
	c0.1-0.3,0.2-0.6,0.4-1l0.1-0.2c0-0.1,0.1-0.2,0.1-0.3c0-0.1,0.2-0.3,0.2-0.5l0,0l0,0l0.1-0.2l0.1-0.2c0.1-0.1,0.1-0.2,0.2-0.3
	c0,0,0-0.1,0.1-0.1c0,0,0,0,0-0.1l0,0c0-0.1,0.1-0.1,0.1-0.2l0.1-0.2l0.3-0.4l0.1-0.1l0.1-0.2l0.1-0.2l0.2-0.2l0.2-0.2v-0.1l0.1-0.1
	l0.2-0.2l0.1-0.1l0,0l0.1-0.1l0.2-0.2c0.1-0.1,0.3-0.3,0.4-0.4c0.1-0.1,0.1-0.1,0.2-0.2c0.1-0.1,0.2-0.2,0.3-0.2l0.2-0.2
	c0.1-0.1,0.1-0.1,0.2-0.2l0.1-0.1l0.1-0.1l0.3-0.2l0.1-0.1c0.2-0.2,0.5-0.4,0.7-0.5l0.2-0.1l0.2-0.1l0.1-0.1l0.2-0.1l0.1-0.1
	l0.2-0.1l0.6-0.3l0.1-0.1l0.2-0.1l0.2-0.1l0.2-0.1l0.2-0.1l0.2-0.1l0.2-0.1l0.7-0.3l0.2-0.1l0.2-0.1l0.2,0l0.1,0l0.3-0.1h0.2h0.1
	h0.1l0.2-0.1l0.3-0.1c0.3-0.1,0.6-0.1,0.9-0.2h0.1h0.2h0.2h0.2h0.1l0.9-0.1h2.4l0.7,0.1h0.3h0.2h0.2h0.2h0.1c0.3,0,0.6,0.1,0.9,0.2
	l0.4,0.1h0.1h0.2l0.3,0.1h0.1l0.6,0.2h0.1l0.2,0.1l0.3,0.1l0.3,0.1l0.1,0.1l0.2,0.1l0.2,0.1l0.2,0.1l0.2,0.1l0.2,0.1l0.3,0.2
	l0.2,0.1l0.5,0.3l0.1,0.1l0.2,0.1l0.1,0.1l0,0l0.1,0.1l0.6,0.5l0.2,0.1l0.3,0.2l0.1,0.1l0.1,0.1l0.2,0.2l0.2,0.2l0.3,0.2
	c0.1,0.1,0.1,0.1,0.2,0.2c0.1-0.1,0.1-0.1,0.2-0.2l0.3-0.2c0.1-0.1,0.1-0.1,0.2-0.2l0.2-0.2l0.1-0.1l0.1-0.1l0.3-0.2l0.1-0.1
	c0.2-0.2,0.5-0.4,0.7-0.5l0.2-0.1l0.2-0.1l0.1-0.1l0.2-0.1l0.1-0.1l0.2-0.1l0.6-0.3l0.1-0.1l0.2-0.1l0.2-0.1l0.2-0.1l0.2-0.1
	l0.2-0.1l0.2-0.1l0.6-0.3l0.2-0.1l0.2-0.1l0.2,0l0.1,0l0.3-0.1h0.2h0.1h0.1l0.2-0.1l0.3-0.1c0.3-0.1,0.6-0.1,0.9-0.2h0.1h0.2h0.2
	h0.2h0.1l0.8-0.1h2.4l0.7,0.1h0.3h0.2h0.2h0.2h0.1c0.3,0,0.6,0.1,0.9,0.2l0.4,0.1h0.1h0.2l0.3,0.1h0.1l0.6,0.2h0.2l0.2,0.1l0.3,0.1
	l0.3,0.1l0.1,0.1l0.2,0.1l0.2,0.1l0.2,0.1l0.2,0.1l0.2,0.1l0.4,0.2l0.2,0.1c0.2,0.1,0.3,0.2,0.5,0.3l0.1,0.1l0.2,0.1l0.2,0.1l0,0
	l0.1,0.1l0.6,0.5l0.1,0.1l0.3,0.2l0.1,0.1l0.1,0.1l0.2,0.2l0.2,0.2c0,0,0.1,0.1,0.1,0.1l0,0c0,0.1,0.1,0.1,0.2,0.2l0.1,0.1l0.1,0.1
	l0.2,0.2l0.3,0.3l0.1,0.2c0.1,0.1,0.2,0.2,0.2,0.3l0.3,0.3c0.3,0.4,0.6,0.7,0.8,1.1c0,0,0.1,0.1,0.1,0.2l0.1,0.2l0.1,0.2
	c0.1,0.1,0.1,0.2,0.2,0.2l0.1,0.2l0.1,0.1l0.1,0.1l0.1,0.1l0.1,0.2l0.1,0.2c0.2,0.4,0.4,0.8,0.5,1.2c0,0.1,0.1,0.1,0.1,0.2
	c0.1,0.2,0.1,0.3,0.2,0.5l0.1,0.2c0,0.1,0,0.1,0.1,0.2l0.1,0.2v0.1c0,0.1,0,0.1,0,0.2l0.1,0.2c0,0.1,0.1,0.2,0.1,0.4s0,0.1,0,0.2
	l0.1,0.3v0.1v0.2c0,0,0,0.1,0,0.1c0,0,0,0.1,0,0.1v0.1c0,0,0,0.1,0,0.1v0.2v0.2v0.2v0.2v0.1c0,0.1,0,0.1,0,0.2c0,0.1,0,0.1,0,0.1
	s0,0.1,0,0.2l0,0c0,0,0,0.1,0,0.1v0.1c0,0.1,0,0.2,0,0.2l0,0c0,0.1,0,0.2,0,0.2L627.2,417.7z"/>
<linearGradient id="SVGID_1_" gradientUnits="userSpaceOnUse" x1="597.1315" y1="-16.9247" x2="597.1315" y2="647.574" gradientTransform="matrix(1 0 0 -1 -142.33 824.39)">
	<stop  offset="0" style="stop-color:#808080;stop-opacity:0.25"/>
	<stop  offset="0.54" style="stop-color:#808080;stop-opacity:0.12"/>
	<stop  offset="1" style="stop-color:#808080;stop-opacity:0.1"/>
</linearGradient>
<path class="st4" d="M561.1,422.4L561.1,422.4c-3.2-3.2-6.6-6.3-10.2-9.2c0.4-5.4,1.4-18.2,1.5-20.7c0.1-3.1-4.5-7.1-14.4-10.8
	s-7,13.5-6.9,15.1c0.1,1.5,2.3,6.2,6,7.8c1.3,0.5,1.7,1.2,1.6,1.9l-0.3,0c-8.1-1-11.8-2.9-11.8-2.9s-3,9-3,13.3c0,0.2,0,0.5,0,0.7
	c-0.1,0.8,0,1.6,0.2,2.3h0.7c0.1,1.2-0.1,2.3-0.5,3.4l0,0c-0.3,0.8-0.6,1.7-1,2.5c-0.3-2.5-0.4-4.9-0.5-7.4
	c0.2-2.4-3.7-12.2-3.7-12.2s-1.6-0.6-4.9-4.5c-3.3-3.8-6-5.4-8.3-6.2s-10.5-11.5-13.9-14c-2.7-2-3.8-0.8-4.1-0.3l-0.2,0.1
	c-1.6-2.2-2.7-4.3-2.7-5.7c0-1.1,0.1-3.3,0.3-6.2c1.2,0.9,2.3,1.9,3.3,3c2.3,2.5,4,5.6,6.5,7.9c1.9,1.9,4.5,3,7.2,3.1
	c0.9,0,1.8-0.1,2.6-0.4c3.3-1.3,5.5-5.4,9-5.5c2.8,0.1,4.8,2.7,7,4.4c1.7,1.3,3.7,2,5.8,2c0.8,0,1.7-0.1,2.5-0.4
	c2.6-1,4.4-4.2,3.2-6.7c-1.8-3.9-8.1-3-10.8-6.4c-0.6-0.7-0.9-1.6-0.6-2.5c0.2-0.7,0.9-1.2,1.6-1.2c1.3,0.1,2.4,0.7,3.3,1.6
	c1.3,1.3,3,3,4.6,2.8c0.5,0.1,0.9,0,1.3-0.2c0-1.2,0.1-2.4,0.2-3.6c1.7,1,3.6,1.5,5.6,1.6c0.4,0,0.7,0,1.1,0
	c2.1-0.3,4.1-2.2,3.9-4.3c0.9,0.8,2.1,1.2,3.3,1.1c0.5,0,1.1,0,1.6-0.2c1.8-0.6,3.1-2.3,3.2-4.2c0.2-2.2-1.2-4.2-2.5-6l-6.5-8.9
	c-0.7-0.7-1-1.6-1-2.6c0.2-0.7,0.6-1.4,1.1-2c1.8-2.6,0.9-6.4-1.4-8.6s-5.6-3-8.7-2.9c-2.4,0-5,0.5-6.9-0.9c-1.5-1-2.2-2.9-2.7-4.7
	c-1.4-5.3-1.5-10.8-2.4-16.1c-1-5.4-3.1-10.9-7.4-14.1c-1-0.8-2.2-1.3-3.4-1.5c-1.1,0-2.1,0.1-3.2,0.3c-3.6,0.2-6.8-2.3-9.1-5.1
	s-4-6.1-6.6-8.6c-3.8-3.9-10.2-5-15.3-3.5c-2.3,0.7-4.2,2.5-6.6,2.7c-3.5,0.2-7.4-0.7-10.9-1c-3.3-0.3-6.7-0.6-10,0.2
	c-3,0.7-5.5,2.5-7,5.2l-0.8-7.2c0,0-1.8-13.6-2.5-14.7c-0.6-0.8-0.3-1.9,0.1-3.2l0.2,0.1c0.1-0.4,0.2-0.7,0.4-1.1c0-0.3,0-0.6,0-0.8
	c0.3-2.7-4.7-20.1-4.7-20.1h-4.5c0-0.2-0.1-0.4-0.1-0.6c-1.3-7.1-3.5-18.1-5-20.8c-1-1.8-1.1-4.4-0.9-6.7c0.3-2.6,0.3-5.3,0.2-7.9
	c-0.1-1.3,0-2.6,0.2-3.8c0.3-1.9-0.6-3.8-2.1-5c-5.8-4.3-20.1-14.2-28.4-14.5c-10.7-0.3,3.3,18.4,3.2,20.1s10.7,3.4,10.7,3.4
	s0.6,5.4,1.3,8.5c0.4,2.1,1.2,17.8,1.6,27.2c-2.6-0.3-7.2-2.7-7.2-2.7s-12.4-3.4-13.5,0s15.1,19.5,15.1,19.5s5.7,15.2,4,20
	s-0.5,27.5-0.5,27.5s0.2,27,1.3,33.9c1.2,6.9-2.2,10.7-2.2,10.7s-1.4,17,0,18.5c1.5,2,2.8,4.1,3.9,6.3l0.4,0.8
	c-4.7,5.7-9.4,11.2-11.8,12c-4.8,1.4-37.4,15-37.4,15s-10.6,10.2-12.3,10.2s9.7,10.9,9.7,10.9s10.2,8.2,11.3,9.4
	c1.1,1.3,29,16.5,29,16.5s4.8,1.4,5.2,2.9s6.8,5.4,6.8,5.4s4.9,5.6,6.2,9.2c0,0.3,0,0.5,0.1,0.7c0.1,1,0.1,1.5,0.2,1.2
	c0.8,2.3,6.6,8.3,3.8,12.6c-1.3,2,0,5.6,2.5,8.5c-0.7,3.6-1.6,7.7-2.6,9c-1.9,2.6-1.1,6.2-3,6.6s-2.5,9.8-2.5,9.8l-1.7,20.7
	c0,0-0.4,4.3-2.8,5.3s0,6.8,0,6.8s-2.5,4.9-1,7.7s-3,15.6-3,15.6s-1.9,24.7,0,28.1c1.7,3.4,2.7,7.1,3,10.9c0,2.1,1.1,42,1.1,42
	s-2.5,16.2-3.4,19.2s2.3,9.6,0.2,13s-1.7,11.1-1.7,11.1s-3.2,30.1-1.3,41.2s-0.6,13.4-0.6,13.4c1.3,0.7,2.7,1.4,4.1,1.8
	c0,0.4,0.1,0.9,0.2,1.3c1,9.3,2.5,25.3,1.1,29s-1.7,10.6-1.8,14.6c0,0.2,0,0.4,0,0.7l0,0l-3.7,6c0,0-0.7,5.3-1.7,6.1
	s-8.9,15.3-10,17.2l-0.1,0.2c0,0-8.1,14.8,11.9,15.2s17.4-9.8,17.4-9.8s0.1-2,0.2-4.5c0.2-3,0.7-6.7,1.5-7.6
	c1.4-1.7,5.4-9.7,5.4-9.7v-11.7h-1.3c0-0.2,0-0.4,0.1-0.6c0.2-2.4,0.5-4.9,1.1-7.2c0.6-1.5-1.4-10.5-1.4-10.5s0.4-17.2,2.4-28.1
	c0.1-0.5,0.2-1,0.3-1.4c1.5-0.6,2.9-1.4,4.3-2.2c0,0,0-21.7,2.5-25.6s2-14.7,2-14.7s0.6-9.6,2.5-11.5s1.5-10.5,1.5-10.5
	s1.7-5.5,3.6-10s3-17,3-17c0.7-2.2,1.7-4.3,3-6.2c2.1-3,0-9.6,0-9.6s-2.3-4.3-0.8-8.5s9.8-38.8,9.8-38.8l3.2-12.4L469,595
	c0,0-0.6,11.3,0,14.5s5.1,10,5.1,10V653c0,0,0.4,22.6,2.1,26.2s2.5,17.1,2.5,17.1s5.7,39.4,2.1,45.2c1.8,1.3,3.8,2.3,5.9,3.2v23.2
	c0,0-4.2,14.1-2.7,23.6c0,0.2,0.1,0.4,0.1,0.6c-0.4,0.3-0.8,0.5-1.1,0.4l0.7,16c0,0,0.2,8.9-1.5,13.5c-0.6,1.6-0.9,3.3-1,5.1
	c-0.4,6.3,2.1,15,16,14.1c18.5-1.2,15.7-13,15.7-13s0-0.5-0.1-1.3c-0.4-6-2-11.9-4.6-17.4c-4.5-8.7-3.8-19.6-3.8-19.6
	c-0.4,0.1-0.7,0.2-1.1,0.3c0-0.2,0-0.4,0-0.7c0.2-3,0.6-6.9,1-8.7c0.6-3.2,0-10.7,0-10.7l2.4-23.3l0.1-1.3c1.2-0.6,2.3-1.2,3.3-2
	l0,0l0,0c-0.7-2.1-1.1-4.3-1.2-6.5c-0.1-1.5,0.3-3,1.2-4.1c2.8-2.8,4.7-37.5,4.7-37.5s1.5-12.2,1.5-16.4c0-0.3,0-0.5,0-0.7
	c-0.2-2.5-1.5-12.2-1.5-17.9c-0.1-1.2,0.1-2.4,0.4-3.6c1.3-3.2,3-63.3,3-63.3l2.1-26.6v-21.9c0-10.5-1.3-20.9-3.8-31.1
	c5.8,3,15.7,9.8,17.5,8c2.2-2.2,3.3-40.6,2.7-44.5c0-0.2-0.1-0.5-0.2-0.8c-0.2-0.7-0.4-1.6-0.6-2.7l0.9-1.5c4.3-7.5,11-19.5,11.5-23
	c0.6-4,1.4-14.4,2.9-18.9c0.1-0.4,0.3-0.7,0.4-1.1l0,0c0.4-0.8,0.8-1.2,1.3-1.1c2.7,0.6,4.5,2.7,5.9,1.9c0.1,0,0.1-0.1,0.2-0.2l0,0
	c0.1-0.2,0.3-0.3,0.4-0.5l0,0c0.1-0.2,0.2-0.5,0.3-0.7l0,0c0.1-0.3,0.2-0.5,0.3-0.9V428c0-0.1,0.1-0.3,0.1-0.4c0,0,0-0.1,0-0.1
	c0-0.1,0-0.2,0.1-0.3l0.1-0.2v-0.1c0.2-1.1,0.4-2.3,0.6-3.1c0-0.3,0.1-0.5,0.1-0.7v-0.4L561.1,422.4z"/>
<linearGradient id="SVGID_2_" gradientUnits="userSpaceOnUse" x1="559.3881" y1="359.14" x2="559.3881" y2="361.01" gradientTransform="matrix(1 0 0 -1 -142.33 824.39)">
	<stop  offset="0" style="stop-color:#808080;stop-opacity:0.25"/>
	<stop  offset="0.54" style="stop-color:#808080;stop-opacity:0.12"/>
	<stop  offset="1" style="stop-color:#808080;stop-opacity:0.1"/>
</linearGradient>
<path class="st5" d="M417.1,465.2c0.1-0.6,0-1.2-0.2-1.8C417,464.8,417.1,465.5,417.1,465.2z"/>
<path class="st6" d="M537.1,410.9c0,0,3.8-2.6,0.1-4.1s-5.9-6.2-6-7.7s-3-18.7,6.9-15c9.9,3.7,14.5,7.6,14.4,10.8
	s-1.7,22.9-1.7,22.9L537.1,410.9z"/>
<path class="st0" d="M561.1,424.5c0,0,0,0.5-0.2,1.1c-0.3,2-1,6.1-2.1,6.7c-1.4,0.8-3.2-1.3-5.9-1.9c-0.5-0.1-0.9,0.3-1.3,1.1
	c-0.2,0.3-0.3,0.7-0.4,1.1c-1.5,4.5-2.3,14.9-2.9,18.9c-0.5,3.5-7.2,15.4-11.5,22.9c-0.7,1.1-1.3,2.2-1.8,3c-1.2,2-2,3.3-2,3.3
	L522,460v-30.4c0.8-1.3,1.5-2.8,2-4.2l0,0c0.4-1.1,0.6-2.2,0.5-3.4c0-0.4-0.2-0.7-0.5-1c-0.1-0.1-0.2-0.2-0.2-0.3
	c0-0.1-0.1-0.2-0.1-0.3c-0.1-0.3-0.1-0.5-0.1-0.8c0-0.2,0-0.4,0-0.7c0-4.3,3-13.3,3-13.3s3.7,1.9,11.8,2.9
	C546.6,409.5,561.1,424.5,561.1,424.5z"/>
<path class="st3" d="M560.9,425.6c-0.3,2-1,6.1-2.1,6.7c-1.4,0.8-3.2-1.3-5.9-1.9c-0.5-0.1-0.9,0.3-1.3,1.1
	c-0.2,0.3-0.3,0.7-0.4,1.1c-5.5-2.7-15-7.5-15.6-8.8s-7.2-1.7-11-1.7H524c-0.3-0.7-0.3-1.5-0.2-2.3c0.3-4.5,3-12.6,3-12.6
	s3.7,1.9,11.8,2.9C546.1,410.8,559.4,424,560.9,425.6z"/>
<path class="st0" d="M561.1,424.5c0,0-0.8,7-2.2,7.8c-1.4,0.8-3.2-1.3-5.9-1.9c-0.5-0.1-0.9,0.3-1.3,1.1c-5.4-2.6-15.5-7.7-16-9
	c-0.5-1.4-8.1-1.7-11.7-1.8c-1.3-2.7,2.8-15,2.8-15s3.7,1.9,11.8,2.9C546.6,409.5,561.1,424.5,561.1,424.5z"/>
<path class="st0" d="M534,523.6c-2.2,2.2-16.7-8.6-20.7-9.2S495,453.2,495,453.2l2.2-34.1l-8.5-31.3l-1.1-4.1c0,0,0.8-2.5,4.2,0
	s11.7,13.2,13.9,14c2.2,0.8,4.9,2.4,8.3,6.2s4.9,4.5,4.9,4.5s3.8,9.7,3.7,12.1s1.3,18.6,3,20s4.6,14.5,4.6,14.5s5.3,18.3,6.4,23.6
	c0.1,0.3,0.1,0.6,0.2,0.8C537.4,483.2,536.3,521.3,534,523.6z"/>
<path class="st3" d="M509.2,447.7l10.5,2.8c0,0,2,18.1,2.7,19.1s3.3,38.2,3.3,38.2l-16.5-7.5l-6.2-20v-22.1L509.2,447.7z"/>
<path class="st6" d="M430.9,742.2c-0.7,2-1.2,4-1.5,6c-2,10.8-2.4,28-2.4,28s2,8.9,1.4,10.4c-0.6,2.4-0.9,4.8-1.1,7.2
	c-0.2,1.6-0.3,2.8-0.3,2.8l-19.4-1.3c0,0,0-1.2,0.1-2.9c0.1-3.9,0.5-10.8,1.8-14.5s-0.1-19.6-1.1-28.9c-0.4-4-0.8-6.7-0.8-6.7
	S434.2,733.7,430.9,742.2z"/>
<path class="st6" d="M506.7,747.4l-2.4,23.2c0,0,0.6,7.4,0,10.6c-0.4,1.8-0.7,5.7-1,8.7c-0.2,2.3-0.3,4.1-0.3,4.1
	s-14.8,10.4-18.2,1.3c-0.4-1.1-0.7-2.3-0.8-3.4c-1.4-9.5,2.7-23.5,2.7-23.5v-29.9l20.6,3.4L506.7,747.4z"/>
<path class="st3" d="M430.9,742.2c-0.7,2-1.2,4-1.5,6c-6.7,2.8-14.1,3.1-21,0.8c-0.4-4-0.8-6.7-0.8-6.7S434.2,733.7,430.9,742.2z"/>
<path class="st3" d="M507.3,741.7l-0.6,5.6c-7.2,3.3-14.9,1.3-20-1v-8L507.3,741.7z"/>
<path class="st7" d="M424.4,480.6c0,0-1.7,12.5-3.6,15.1s-1.1,6.2-3,6.6s-2.5,9.8-2.5,9.8l-1.6,20.6c0,0-0.4,4.2-2.8,5.3
	s0,6.8,0,6.8s-2.5,4.9-1,7.6s-3,15.5-3,15.5s-1.9,24.6,0,28c1.7,3.4,2.7,7,3,10.8c0,2.1,1.1,41.8,1.1,41.8s-2.5,16.1-3.4,19.1
	s2.3,9.5,0.2,12.9s-1.7,11-1.7,11s-3.3,30-1.4,41s-0.6,13.4-0.6,13.4c9.5,5,20.9,4.5,29.9-1.3c0,0,0-21.6,2.5-25.5
	s2.1-14.6,2.1-14.6s0.6-9.5,2.5-11.5s1.5-10.4,1.5-10.4s1.7-5.5,3.6-10s3-17,3-17c0.7-2.2,1.7-4.3,3-6.2c2.1-3,0-9.5,0-9.5
	s-2.3-4.2-0.8-8.5s9.8-38.6,9.8-38.6l3.2-12.3l4.7,15.7c0,0-0.6,11.2,0,14.4s5.1,10,5.1,10v33.3c0,0,0.4,22.5,2.1,26.1
	s2.5,17,2.5,17s5.7,39.2,2.1,45c0,0,16.3,11.7,29.3,2.1c0,0-2.8-7.8,0-10.6s4.7-37.3,4.7-37.3s1.7-13.8,1.5-17s-2.3-18.2-1.1-21.4
	s3-63,3-63l2.1-26.5v-21.7c0-11.7-1.6-23.4-4.8-34.7c-3.6-12.7-8.6-27.2-12.7-28.1C502.8,483.7,437,491,424.4,480.6z"/>
<path class="st3" d="M427.3,793.7c-0.2,1.6-0.3,2.8-0.3,2.8l-19.4-1.3c0,0,0-1.2,0.1-2.9c9.1-8.1,18.2,1.4,18.2,1.4H427.3z"/>
<path class="st7" d="M428.5,794.4v11.8c0,0-4,8-5.4,9.7c-0.8,0.9-1.2,4.5-1.5,7.6c-0.2,2.4-0.2,4.4-0.2,4.4s2.5,10.2-17.4,9.8
	s-11.9-15.2-11.9-15.2l0.1-0.2c1-1.9,9.1-16.3,10-17.1s1.7-6.1,1.7-6.1l3.7-6c9.1-8.2,18.2,1.4,18.2,1.4L428.5,794.4z"/>
<path class="st3" d="M421.4,827.8c0,0,2.5,10.2-17.4,9.8s-11.9-15.1-11.9-15.1l0.1-0.2c0.5,3,2.9,6.1,10.4,5.7
	c10.2-0.5,16.3-3.1,19-4.5C421.5,825.7,421.4,827.8,421.4,827.8z"/>
<path class="st3" d="M503.4,789.9c-0.2,2.3-0.3,4.1-0.3,4.1s-14.8,10.4-18.2,1.3c-0.4-1.1-0.7-2.3-0.8-3.4c0.3-0.2,0.6-0.5,0.8-0.7
	c2.4-3.6,15.4-3.7,16-2C501.2,790,502.5,790,503.4,789.9z"/>
<path class="st7" d="M497.2,841.2c-14,0.9-16.4-7.7-16-14c0.1-1.7,0.4-3.4,1-5c1.7-4.7,1.5-13.5,1.5-13.5l-0.7-15.9
	c0.5,0.2,1.8-1.1,1.8-1.1c2.4-3.6,15.4-3.7,16-2s3.6,0.5,3.6,0.5s-0.6,10.8,3.8,19.5c2.6,5.4,4.2,11.3,4.6,17.3
	c0.1,0.8,0.1,1.3,0.1,1.3S515.8,840.1,497.2,841.2z"/>
<path class="st3" d="M497.2,841.2c-14,0.9-16.4-7.7-16-14c0,0,3.6,6.2,16.6,4.7c5.3-0.5,10.5-2.2,15.1-4.9c0.1,0.8,0.1,1.3,0.1,1.3
	S515.8,840.1,497.2,841.2z"/>
<g class="st8">
	<path d="M511.7,499.3c-2.9-8.2-6-15-8.8-15.6l-2.5,0.3c2.6,1.4,5.5,7.7,8.2,15.3c5.8,16.8,8.7,34.5,8.7,52.2v16.7l-2.1,26.5
		c0,0-1.7,59.8-3,63s0.8,18.2,1.1,21.4s-1.5,17-1.5,17s-1.9,34.6-4.7,37.3s0,10.6,0,10.6c-2.9,2.2-6.4,3.4-10,3.7
		c4.7,0.4,9.4-0.9,13.2-3.7c0,0-2.8-7.8,0-10.6s4.7-37.3,4.7-37.3s1.7-13.8,1.5-17s-2.3-18.2-1.1-21.4s3-63,3-63l2.1-26.5v-16.7
		C520.4,533.8,517.5,516.1,511.7,499.3z"/>
</g>
<g class="st8">
	<path d="M408,745.8c0,0,2.5-2.3,0.6-13.4s1.3-40.9,1.3-40.9s-0.4-7.6,1.7-11s-1.1-10-0.2-12.9s3.4-19.1,3.4-19.1
		s-1.1-39.7-1.1-41.8c-0.3-3.8-1.3-7.4-3-10.8c-1.9-3.4,0-28,0-28s4.5-12.7,3-15.5s1-7.6,1-7.6s-2.3-5.7,0-6.8s2.8-5.3,2.8-5.3
		l1.7-20.6c0,0,0.6-9.3,2.5-9.8s1.1-4,3-6.6c1.4-1.9,2.8-9.4,3.3-13.1c-1.3-0.5-2.5-1.2-3.5-2c0,0-1.7,12.5-3.6,15.1s-1.1,6.2-3,6.6
		s-2.5,9.8-2.5,9.8l-1.6,20.6c0,0-0.4,4.2-2.8,5.3s0,6.8,0,6.8s-2.5,4.9-1,7.6s-3,15.5-3,15.5s-1.9,24.6,0,28c1.7,3.4,2.7,7,3,10.8
		c0,2.1,1.1,41.8,1.1,41.8s-2.5,16.1-3.4,19.1s2.3,9.5,0.2,12.9s-1.7,11-1.7,11s-3.2,30-1.3,41s-0.6,13.4-0.6,13.4
		c4.8,2.6,10.3,3.7,15.7,3.3C415.8,748.9,411.7,747.8,408,745.8z"/>
</g>
<path class="st7" d="M489.8,282.5c2.6,2.5,4.3,5.7,6.6,8.5s5.5,5.3,9.1,5.1c1.1-0.2,2.1-0.2,3.2-0.3c1.3,0.2,2.4,0.7,3.4,1.5
	c4.3,3.2,6.4,8.7,7.4,14s1,10.8,2.4,16.1c0.5,1.8,1.2,3.6,2.7,4.7c2,1.3,4.5,0.9,6.9,0.9c3.1-0.1,6.5,0.7,8.7,2.9
	c2.3,2.2,3.1,6,1.4,8.6c-0.5,0.6-0.9,1.2-1.1,1.9c0,1,0.3,1.9,1,2.6l6.5,8.9c1.3,1.8,2.7,3.8,2.5,6c-0.2,2.6-2.4,4.5-5,4.3
	c-1.3-0.1-2.4-0.7-3.3-1.7c0.7,2.2-1.5,4.5-3.8,4.8s-4.5-0.7-6.6-1.7l-0.2,3.8c-1.9,1-4-1-5.5-2.6s-4.7-2.5-5.4-0.4
	c-0.2,0.9,0,1.8,0.6,2.5c2.7,3.3,8.9,2.5,10.8,6.3c1.2,2.5-0.6,5.7-3.2,6.6c-2.6,1-5.6,0-7.8-1.6c-2.2-1.6-4.4-4.4-7.3-4.4
	c-3.6,0-5.8,4.2-9.2,5.5c-3.2,1.2-6.8-0.4-9.3-2.7c-2.5-2.3-4.2-5.4-6.5-7.9c-5.9-6.5-14.9-9.1-23.2-11.9
	c-8.4-2.8-17.2-6.6-21.5-14.3c-1.3-2.4-2.2-5-3.8-7.2c-2.8-3.7-7.6-5.4-10.7-8.8c-3.5-4-4.3-9.8-2.1-14.6c1.5-3.1,4-5.5,6.1-8.2
	c3.5-4.7,5.4-10.4,5.4-16.2c0-2.2-0.2-4.5,0.5-6.6c1.1-3.2,4.2-5.3,7.4-6.1s6.6-0.5,10-0.2c3.5,0.3,7.4,1.1,10.9,1
	c2.4-0.1,4.3-2,6.6-2.6C479.6,277.6,486,278.7,489.8,282.5z"/>
<g class="st8">
	<path d="M517.8,308.8c1,5.3,1,10.8,2.5,16c0.3,1.3,0.8,2.5,1.6,3.6c-0.1-0.4-0.2-0.7-0.3-1.1c-1.4-5.2-1.5-10.7-2.4-16.1
		c-0.5-3.2-1.6-6.4-3.2-9.2C516.7,304.3,517.4,306.5,517.8,308.8z"/>
	<path d="M539.9,341.9c-0.5,0.6-0.9,1.3-1.1,2c0,1,0.3,1.9,1,2.6c0.1,0.1,0.2,0.2,0.3,0.4c0-0.1,0-0.2,0-0.4
		c0.2-0.7,0.6-1.4,1.1-1.9c1.6-2.3,1.1-5.5-0.6-7.7C541.1,338.5,540.9,340.4,539.9,341.9z"/>
	<path d="M530.8,377.9c0.1,2.4-1.3,4.6-3.5,5.4c-2.6,0.9-5.6,0-7.8-1.6s-4.4-4.4-7.3-4.4c-3.6,0-5.8,4.2-9.2,5.5
		c-3.2,1.2-6.8-0.4-9.3-2.7c-2.5-2.3-4.2-5.4-6.5-7.9c-5.9-6.5-14.9-9.1-23.3-11.9c-8.4-2.8-17.2-6.6-21.5-14.2
		c0.4,0.8,0.8,1.7,1.2,2.5c4.3,7.7,13.2,11.5,21.5,14.3s17.3,5.4,23.3,11.9c2.3,2.5,4,5.6,6.5,7.9c2.5,2.3,6.1,3.9,9.3,2.7
		c3.4-1.3,5.6-5.5,9.2-5.5c2.9,0,5,2.6,7.3,4.4s5.2,2.5,7.8,1.6c2.6-0.9,4.4-4.1,3.2-6.6C531.5,378.7,531.2,378.3,530.8,377.9z"/>
	<path d="M548.6,359.3c0.2,0.7,0.3,1.4,0.3,2c-0.2,2.6-2.4,4.5-5,4.4c-1.3-0.1-2.4-0.7-3.2-1.7c0.7,2.2-1.5,4.5-3.8,4.8
		s-4.5-0.7-6.6-1.7c-0.1,1.2-0.1,2.5-0.2,3.8c-1.9,1-4-1-5.5-2.5s-4.7-2.5-5.4-0.4c-0.2,0.9,0,1.8,0.6,2.5c0.2,0.2,0.4,0.4,0.5,0.6
		c0-0.2,0-0.4,0.1-0.5c0.7-2,3.9-1.1,5.4,0.4c1.5,1.5,3.5,3.6,5.5,2.6c0-1.3,0.1-2.5,0.2-3.8c2.1,1,4.3,2,6.6,1.7s4.5-2.6,3.8-4.8
		c1.7,2,4.7,2.2,6.6,0.5c1-0.8,1.6-2,1.7-3.2C550.1,362.2,549.6,360.6,548.6,359.3z"/>
	<path d="M438.5,338.9c-2.8-3.7-7.6-5.4-10.6-8.9c-0.4-0.5-0.8-1-1.2-1.5c0.5,1.5,1.4,2.9,2.4,4.1c3.1,3.5,7.8,5.2,10.6,8.9
		c0.4,0.5,0.8,1.1,1.1,1.6C440.3,341.6,439.5,340.2,438.5,338.9z"/>
</g>
<path class="st6" d="M457.5,336.8c0,0,2.3,25.9-8.3,33.7c-10.6,7.8,22.7,29.3,22.7,29.3l25.2-5.5c0,0-12.3-11.5-12.3-16.3
	c0-4.9,2.1-32.2,5.5-35.4S457.5,336.8,457.5,336.8z"/>
<path class="st0" d="M450.1,336.8l-5.8,12.6c0,0-8.6,5.1-9.2,5.6c-0.6,0.5-7.5,8.3-7.5,8.3l-16.9,10.8c0,0-0.4-0.8-1-1.9
	c-1.2-2.2-2.5-4.3-3.9-6.3c-1.4-1.6,0-18.5,0-18.5s3.3-3.8,2.2-10.7c-1.2-6.8-1.3-33.7-1.3-33.7s-1.3-22.6,0.5-27.4
	c1.8-4.8-4-19.9-4-19.9s-16.2-16.1-15.1-19.5s13.5,0,13.5,0s4.9,2.5,7.5,2.7c1.5,0.1,9.8,0.1,16.1,0.1h7.5c0,0,5.2,18.3,4.6,20.2
	c-0.1,0.4-0.3,0.7-0.4,1.1c-0.5,1.5-0.9,2.8-0.3,3.7c0.8,1.1,2.5,14.6,2.5,14.6l1.8,14.6c0,0,2.7,11.5,2.5,13s-4.1,4.9-2.4,8
	s2.4,12.2,2.4,12.2s2.9,6.8,5.8,9.4C449.4,336.4,449.8,336.6,450.1,336.8z"/>
<circle class="st3" cx="476.9" cy="323.4" r="30.5"/>
<circle class="st6" cx="476.9" cy="322.2" r="30.5"/>
<path class="st9" d="M509.2,447.7c-2.8,3-3.4,32-1.8,34.6c1.6,2.6-8.2,7.6-13.9,7.4s-21.4,4.7-21.4,4.7s-31.4-8.5-38-4.2
	s-15.9-7.6-13.2-11.9s-3-10.2-3.8-12.5c-0.2-1-0.3-2-0.3-3l0,0c-0.8-10.7-1.6-44.9-1.6-44.9v-39.3l28.9-20.4
	c4.6,2.3,9.1,4.9,13.4,7.8c3.1,2,6,4.2,8.7,6.7c7.9,7.4,27.4,15.3,27.4,15.3s21.4,25.7,24.2,28.2S512,444.8,509.2,447.7z"/>
<path class="st3" d="M415.2,417.8V384c0,0,0.9,61.5,1.6,78.7C416,452,415.2,417.8,415.2,417.8z"/>
<path class="st3" d="M416.9,465.2c0.2,0.6,0.3,1.2,0.2,1.8C417.1,467.3,417,466.7,416.9,465.2z"/>
<path class="st3" d="M457.7,376.9c-1.9,1.9-3.4,4.1-4.6,6.5c-1.6,3.5-37.8,0.6-37.8,0.6v-5.5l28.9-20.4c4.6,2.3,9.1,4.9,13.4,7.8
	C457.7,371.9,457.7,376.9,457.7,376.9z"/>
<path class="st3" d="M416.9,462.7c0.2,0.6,0.3,1.2,0.2,1.8C417.1,464.8,417,464.1,416.9,462.7z"/>
<path class="st3" d="M450.1,336.8l-5.8,12.6c0,0-8.6,5.1-9.2,5.6c-0.6,0.5-7.5,8.3-7.5,8.3l-16.9,10.8c0,0-0.4-0.8-1-1.9
	c4.6-5.6,9.3-11.5,12-13.6c5.4-4.1-0.2-4.6,0-5.4c0.2-0.8,11.9-5.1,15.1-8.1c2.6-2.5,9.8-7.3,12.3-9
	C449.5,336.4,449.8,336.6,450.1,336.8z"/>
<path class="st0" d="M450.1,336.8c0,0-10.1,6.5-13.2,9.5s-15,7.3-15.1,8.1s5.4,1.3,0,5.4s-18.6,23.5-23.4,25
	c-4.8,1.5-37.4,15-37.4,15s-10.7,10-12.2,10c-1.6,0,9.7,10.8,9.7,10.8s10.2,8.1,11.3,9.4s29,16.3,29,16.3s4.8,1.4,5.2,2.9
	s6.8,5.4,6.8,5.4s7.1,8.2,6.4,11.1s-1.9-83-1.9-83s36.2,2.9,37.8-0.6c1.2-2.4,2.7-4.6,4.6-6.5c0,0-0.1-29.4-2.1-31.6
	C453.5,341.8,450.1,339.5,450.1,336.8z"/>
<path class="st3" d="M365.9,406.6c0,0,9.5,10.3,14,12.1c2.8,1.3,5,3.5,6.2,6.4c0,0,5.2,3,8.1,3.5s7.2,4.8,7.2,4.8s10.7,3,10.7,5.2
	s4.3,5.3,4.3,5.3l-1.1-61.1c0,0-17.7,2.2-22.8,9.7C387.3,399.9,365.9,406.6,365.9,406.6z"/>
<path class="st3" d="M386.7,412.4c0.8-0.5,22.5-28.5,22.5-28.5l4-0.8c0,0-10.3,15.4-10.2,16.7C403.2,401.1,386.7,412.4,386.7,412.4z
	"/>
<path class="st3" d="M395.8,421.6c0,0,5.7-13.2,7.3-15.4c1.6-2.2,10.2-17.2,10.2-17.2c0.2,1.3,0.2,2.6,0,3.8
	C412.8,394.2,395.8,421.6,395.8,421.6z"/>
<path class="st3" d="M434.1,323.1c0,0-12.7,23.2-11.6,24.3S434.1,323.1,434.1,323.1z"/>
<path class="st3" d="M438.6,332.3c0,0-10.5,15.3-9.5,15.1S438.6,332.3,438.6,332.3z"/>
<path class="st6" d="M429,244.7l-20,1.4c0,0,0-0.6-0.1-1.8c-0.3-6.6-1.3-29.7-1.8-32.3c-0.6-3-1.3-8.4-1.3-8.4s-10.8-1.6-10.7-3.3
	s-13.8-20.4-3.2-20c8.3,0.2,22.5,10.1,28.4,14.4c1.5,1.1,2.4,3,2.1,4.9c-0.2,1.3-0.2,2.5-0.2,3.8c0.1,2.6,0.1,5.3-0.2,7.9
	c-0.2,2.3-0.1,4.9,0.9,6.7c1.5,2.6,3.7,13.6,5,20.7C428.6,242.1,429,244.7,429,244.7z"/>
<path class="st3" d="M437.1,260.1l-0.4,1.1c-4.3-4.3-31.6-7.1-31.6-7.1c-2.4-2.8-0.2-4,2.3-7.4c1.5-2,10.4-4.8,17.6-6.9h7.5
	C432.5,239.9,437.8,258.2,437.1,260.1z"/>
<path class="st3" d="M429,244.7l-20,1.4c0,0,0-0.6-0.1-1.8c3.2-1.9,10.2-4.1,16.2-5.7h2.9C428.6,242.1,429,244.7,429,244.7z"/>
<path class="st0" d="M437.1,259.5c-0.1,0.4-0.3,0.7-0.4,1.1c-4.3-4.3-31.6-7.1-31.6-7.1c-2.4-2.8-0.2-4,2.3-7.4
	c1.5-2,10.4-4.9,17.6-6.9h7.5C432.5,239.2,437.8,257.5,437.1,259.5z"/>
<path class="st3" d="M454.5,417c0,0-2.2,42.8,0,44.9S454.5,417,454.5,417z"/>
<path class="st3" d="M470.2,434.9c0,0-0.8,47.1,0,47.6C471,483,470.2,434.9,470.2,434.9z"/>
<path class="st3" d="M488.7,440.5c0,0,3,32.5,5.7,33.7S488.7,440.5,488.7,440.5z"/>
<path class="st3" d="M536,479.2c-0.9-0.2-1.8-0.5-2.5-1c-2.7-1.8-5.7-20.5-9.7-23.1c-4-2.5-18.3-27.5-18.3-27.5s-5.6-10-7.8-12.6
	s-1.1-14-1.1-14s-5.9-6.8-8.4-12.6c-0.6-1.3-1-2.7-1.1-4.1c0,0,0.8-2.5,4.2,0s11.7,13.2,13.9,14c2.2,0.8,4.9,2.4,8.3,6.2
	c3.4,3.8,4.9,4.5,4.9,4.5s3.8,9.7,3.7,12.1c-0.2,2.4,1.3,18.6,3,20c1.7,1.4,4.6,14.5,4.6,14.5S534.8,474,536,479.2z"/>
<path class="st3" d="M523.7,419.7c0-0.2,0-0.4,0-0.7c0.1,0.5,0.2,1,0.2,1.4C523.8,420.2,523.7,419.9,523.7,419.7z"/>
<path class="st3" d="M536.8,474.3c-0.7,1.1-1.3,2.2-1.8,3c-2.6-2.7-5.6-20.4-9.4-22.9c-1.4-1.1-2.5-2.5-3.5-3.9v-21
	c0.8-1.3,1.5-2.8,2-4.2c0.5,5.7,1.5,14.1,2.8,15.1c1.8,1.4,4.6,14.5,4.6,14.5S534.9,467,536.8,474.3z"/>
<path class="st0" d="M536.6,478.5c-0.9-0.1-1.8-0.5-2.5-1c-2.7-1.8-5.7-20.5-9.7-23.1c-4-2.5-18.3-27.5-18.3-27.5s-5.6-10-7.8-12.6
	s-1.1-14-1.1-14s-5.9-6.8-8.4-12.6c-0.6-1.3-1-2.7-1.1-4.1c0,0,0.8-2.5,4.2,0s11.7,13.2,13.9,14c2.2,0.8,4.9,2.4,8.3,6.2
	s4.9,4.5,4.9,4.5s3.8,9.7,3.7,12.1s1.3,18.6,3,20s4.6,14.5,4.6,14.5S535.5,473.3,536.6,478.5z"/>
<circle class="st7" cx="504.1" cy="417" r="2.1"/>
<circle class="st7" cx="518.2" cy="436.3" r="2.2"/>
<path class="st3" d="M534.7,430.6c0,0-10.3-4.7-8.8-2.2C527.5,431,534.7,430.6,534.7,430.6z"/>
<path class="st3" d="M534.7,437.5c0,0-10.5-2.9-8.3-1.2S534.7,437.5,534.7,437.5z"/>
<path class="st3" d="M532.9,445c0,0-7.2-5.2-5.4-3.3C529.3,443.7,532.9,445,532.9,445z"/>
<path class="st3" d="M540.4,450.5c0,0-7.3,14.4-3.8,15.3S540.4,450.5,540.4,450.5z"/>
<path class="st3" d="M436.5,686.2c0,0-16.8,15.9-11.9,15.7S436.5,686.2,436.5,686.2z"/>
<path class="st3" d="M412.9,708.2c0.8,0,17.8-1.7,13.4-2.5S412.9,708.2,412.9,708.2z"/>
<path class="st3" d="M495.4,683.6c0,0,18,0.6,17.6,2.5S495.4,683.6,495.4,683.6z"/>
<path class="st3" d="M492.5,690.8c0,0,10.4,7.8,12.7,5.3S492.5,690.8,492.5,690.8z"/>
<path class="st6" d="M442.7,578.4c-0.1,0.6-0.4,1.1-0.7,1.6c-0.1,0.2-0.3,0.4-0.5,0.5c-2.1,1.5-7.6,4.2-8.5,4
	c-0.4-0.1-1.9-0.6-3.6-1c-2-0.6-4.1-1.2-4.9-1.3s-1.3-1.4-1.4-2.7s0-2.2,0.5-2.4c0.2-0.2,0.4-0.4,0.5-0.7c0.1-0.3,0.2-0.6,0.3-0.9
	l0.1-0.3c0.3-1.2,0.5-2.6,0.7-3.8c0.1-0.7,0.2-1.2,0.2-1.6c0-0.2,0-0.4,0-0.5l0,0v-0.1l1.4-0.1h1.3c3.6-0.2,9.8-0.3,12.1,0.1
	c1,0.2,1.8,1.2,2.2,2.5c0.3,0.9,0.5,1.9,0.5,2.9C443,575.9,442.9,577.2,442.7,578.4z"/>
<path class="st6" d="M515.3,585.8c0,0.1,0,0.1,0,0.2c0,2.2-0.2,3.8-0.2,4.1c0,0.8-22.1,6.8-27.6,6.4c-3.6-0.3-0.9-2.8,1.1-5.3
	c0.7-0.8,1.2-1.7,1.6-2.7c0.1-0.4,0.1-0.7,0-1.1c-0.1-0.4-0.2-0.8-0.3-1.1l0,0c-0.5-2.3-0.3-3,0.3-3.6c0.3-0.4,0.6-0.9,0.7-1.4
	c0.2-0.5,0.3-0.9,0.3-1.4c0.1-1.1-0.2-2.2-0.8-3.1c-1.7-2.3,6.4-3.5,6.4-3.5h15.3c1.5,0,2.3,2.1,2.7,4.9c0,0,0,0.1,0,0.1
	c0.1,0.8,0.2,1.7,0.2,2.5s0.1,1.6,0.1,2.4S515.3,585,515.3,585.8z"/>
<path class="st6" d="M448.3,649.9c0,0-17,4-15.3,3c0.7-0.4,0.8-1.8,0.7-3.3c0-0.8-0.1-1.5-0.2-2.3c-0.2-1.8-0.5-3.2-0.5-3.2
	s8.9-1.9,12.1-1.1c1.2,0.4,2.1,1.4,2.4,2.6c0,0.1,0.1,0.2,0.1,0.3C448.1,647.1,448.3,648.5,448.3,649.9z"/>
<path class="st3" d="M461.2,313.7c2.3-0.8,4.4-2.2,6.6-3.2s4.8-1.6,7.1-0.7c1.2,0.5,2.2,1.3,3.1,2.2c2,1.8,4,3.5,5.9,5.4
	c1.8,2.1,3.9,3.9,6.1,5.5c5.2,3.2,11.9,2.5,18,1.5c1.2-0.1,2.4-0.5,3.5-1c2.7-1.5,3.7-5,3.1-8s-2.5-5.5-4.6-7.8
	c-5.8-6.5-12.9-11.8-20.9-15.4c-8.4-3.9-18.4-5.8-26.8-1.9c-2.6,1.2-4.9,2.9-7,4.8c-2.9,2.6-10.5,9.2-8.8,13.7
	C448.5,313.8,456.9,315.2,461.2,313.7z"/>
<path class="st7" d="M461.2,313.1c2.3-0.8,4.4-2.2,6.6-3.2s4.8-1.6,7.1-0.7c1.2,0.6,2.2,1.3,3.1,2.2c2,1.8,4,3.5,5.9,5.4
	c1.8,2.1,3.9,3.9,6.1,5.5c5.2,3.2,11.9,2.5,18,1.5c1.2-0.1,2.4-0.5,3.5-1c2.7-1.5,3.7-5,3.1-8s-2.5-5.5-4.6-7.8
	c-5.8-6.5-12.9-11.8-20.9-15.4c-8.4-3.9-18.4-5.8-26.8-1.9c-2.6,1.2-4.9,2.9-7,4.8c-2.9,2.6-10.5,9.2-8.8,13.7
	C448.5,313.2,456.9,314.5,461.2,313.1z"/>
<path class="st3" d="M511.7,321.4c-1.1,0.5-2.3,0.9-3.5,1c-6.1,1-12.7,1.7-18-1.5c-2.3-1.6-4.3-3.4-6.2-5.5
	c-1.9-1.9-3.9-3.7-5.9-5.4c-0.9-0.9-2-1.6-3.1-2.2c-2.3-0.9-4.9-0.3-7.1,0.7c-2.2,1-4.3,2.4-6.6,3.2c-4.3,1.5-12.8,0.1-14.6-4.9
	c-0.1-0.2-0.2-0.5-0.2-0.8c-0.1,0.7,0,1.4,0.2,2c1.9,5,10.3,6.4,14.6,4.9c2.3-0.8,4.4-2.2,6.6-3.2s4.8-1.6,7.1-0.7
	c1.2,0.5,2.2,1.3,3.1,2.2c2,1.8,4,3.5,5.9,5.4c1.8,2.1,3.9,3.9,6.1,5.5c5.2,3.2,11.9,2.5,18,1.5c1.2-0.1,2.4-0.5,3.5-1
	c2.4-1.3,3.4-4.2,3.2-6.9C514.8,318.1,513.6,320.2,511.7,321.4z"/>
<path class="st3" d="M425.5,569.9c-0.2,1.9-0.6,3.8-1.1,5.7c0.5-1.9,0.8-3.8,1-5.8L425.5,569.9z"/>
<path class="st3" d="M441.5,580.5c-2.1,1.5-7.6,4.2-8.5,4s-7-2.1-8.5-2.3s-1.9-4.7-0.9-5.1c0.2-0.2,0.4-0.4,0.5-0.7
	c-0.1,0.3-0.2,0.6-0.4,0.9c-1.2,2.5,1,4.7,1,4.7l8.8,2.3l8.3-4.5c2-2.8-0.2-9.1-1.4-10.1s-14.8,0-14.8,0l-0.3-0.3l0,0v-0.1l1.4-0.1
	h1.3c3.6-0.2,9.8-0.3,12.1,0.1C443.7,569.9,443.7,579,441.5,580.5z"/>
<path class="st3" d="M512.2,573.3h-15.3c0,0-8.1,1.2-6.4,3.5s0.4,5.2-0.2,5.9s-0.9,1.5,0,4.7s-8.2,8.7-2.7,9.1s27.6-5.5,27.6-6.4
	S516.3,573.3,512.2,573.3z M514.3,589.8c0,0.8-20.8,6.4-26,6s3.4-5.6,2.6-8.6s-0.6-3.8,0-4.4s1.8-3.4,0.2-5.5s6-3.3,6-3.3h14.5
	C515.4,574,514.3,589,514.3,589.8z"/>
<path class="st3" d="M445.1,642.9c-3.2-0.8-12.1,1.1-12.1,1.1s1.7,7.8,0,8.9s15.3-3,15.3-3S448.3,643.7,445.1,642.9z M433.3,652.7
	c1.6-1,0-8.6,0-8.6s8.6-1.8,11.7-1s3.1,6.8,3.1,6.8S431.7,653.7,433.3,652.7L433.3,652.7z"/>
<path class="st3" d="M515.3,583.2l-25.3,3l0,0l25.2-5.4C515.3,581.6,515.3,582.4,515.3,583.2z"/>
<polygon class="st7" points="489.8,585.6 516.1,580 516.6,582.4 "/>
<path class="st3" d="M515.3,585.8c0,0.1,0,0.1,0,0.2l-26.7,5.1c0.7-0.8,1.2-1.7,1.6-2.7L515.3,585.8z"/>
<polygon class="st7" points="485.8,588.2 517.8,584.9 486.7,590.9 "/>
<path class="st3" d="M515,578.2l-23.6,1.7c0,0.5-0.1,1-0.3,1.4L515,578.2L515,578.2z"/>
<polygon class="st7" points="489.8,579.3 516.6,577.4 489.4,580.8 "/>
<path class="st3" d="M443,574.7l-18.5,0.6c0.3-1.2,0.5-2.6,0.7-3.8l17.3,0.4C442.8,572.7,442.9,573.7,443,574.7z"/>
<polygon class="st7" points="423.1,570.8 448.3,571.3 445.3,574 423.1,574.7 "/>
<path class="st3" d="M442.7,578.4c-0.1,0.6-0.4,1.1-0.7,1.6l-12.5,3.5c-2-0.6-4.1-1.2-4.9-1.3s-1.3-1.4-1.4-2.7L442.7,578.4z"/>
<polygon class="st7" points="419.8,579.1 449.2,577.4 422.2,584.9 "/>
<path class="st3" d="M447.7,645.8l-13.9,3.7c0-0.8-0.1-1.5-0.2-2.3c3.9-0.5,10.3-1.3,13.9-1.8C447.6,645.6,447.6,645.7,447.7,645.8z
	"/>
<path class="st7" d="M430.4,647c0.5-0.2,19.8-2.5,19.8-2.5l-19.8,5.3V647z"/>
<circle class="st0" cx="744" cy="95.3" r="21.6"/>
<circle class="st0" cx="840.1" cy="148.3" r="17"/>
<circle class="st1" cx="744" cy="95.3" r="21.6"/>
<circle class="st1" cx="840.1" cy="148.3" r="17"/>
<circle class="st0" cx="131.6" cy="148.3" r="54.6"/>
<circle class="st1" cx="131.6" cy="148.3" r="54.6"/>
<circle class="st0" cx="835" cy="72.3" r="6"/>
<circle class="st1" cx="835" cy="72.3" r="6"/>
<path class="st0" d="M318.7,762.4c0,0,6.2,8.1-2.9,20.4c-9.1,12.3-16.6,22.6-13.5,30.3c0,0,13.7-22.8,24.9-23.1
	C338.3,789.7,330.9,776.1,318.7,762.4z"/>
<path class="st3" d="M318.7,762.4c0.5,0.8,1,1.6,1.3,2.5c10.9,12.8,16.7,24.7,6.2,25c-9.8,0.3-21.5,17.7-24.2,22.1
	c0.1,0.3,0.2,0.7,0.3,1c0,0,13.7-22.8,24.9-23.1C338.3,789.6,330.9,776.1,318.7,762.4z"/>
<path class="st10" d="M330.2,772.8c0,2.9-0.3,5.2-0.7,5.2c-0.4,0-0.7-2.3-0.7-5.2s0.4-1.5,0.8-1.5S330.2,769.9,330.2,772.8z"/>
<path class="st10" d="M334.2,776.2c-2.5,1.4-4.7,2.2-4.9,1.8c-0.2-0.4,1.7-1.7,4.2-3.1s1.5-0.4,1.7,0S336.7,774.8,334.2,776.2z"/>
<path class="st0" d="M285.8,762.4c0,0-6.2,8.1,2.9,20.4c9.1,12.3,16.6,22.6,13.5,30.3c0,0-13.7-22.8-24.9-23.1
	C266.2,789.7,273.5,776.1,285.8,762.4z"/>
<path class="st3" d="M285.8,762.4c-0.5,0.8-1,1.6-1.3,2.5c-10.9,12.8-16.7,24.7-6.2,25c9.8,0.3,21.5,17.7,24.2,22.1
	c-0.1,0.3-0.2,0.7-0.3,1c0,0-13.7-22.8-24.9-23.1C266.2,789.6,273.5,776.1,285.8,762.4z"/>
<path class="st10" d="M274.2,772.8c0,2.9,0.3,5.2,0.7,5.2c0.4,0,0.7-2.3,0.7-5.2s-0.4-1.5-0.8-1.5S274.2,769.9,274.2,772.8z"/>
<path class="st10" d="M270.3,776.2c2.5,1.4,4.7,2.2,4.9,1.8s-1.7-1.7-4.2-3.1s-1.5-0.4-1.7,0S267.8,774.8,270.3,776.2z"/>
<path class="st11" d="M276.2,812c0,0,17.4-0.5,22.6-4.3s26.8-8.2,28-2.2s26.1,29.8,6.5,29.9s-45.6-3.1-50.8-6.2
	C277.3,826.1,276.2,812,276.2,812z"/>
<path class="st12" d="M333.7,833.4c-19.6,0.2-45.6-3.1-50.8-6.2c-4-2.4-5.6-11.1-6.1-15.2h-0.6c0,0,1.1,14,6.3,17.2
	s31.2,6.4,50.8,6.2c5.7,0,7.6-2.1,7.5-5C340.1,832.2,338,833.4,333.7,833.4z"/>
<path class="st13" d="M672.2,824.6c0,0-11.1-37.7,2.1-65.5c5.6-11.6,7.3-24.7,4.8-37.4c-1.2-6-3-11.9-5.3-17.5"/>
<path class="st0" d="M682,686.6c0,4.6-8.4,18-8.4,18s-8.4-13.4-8.4-18c0.2-4.6,4-8.2,8.7-8.1C678.3,678.7,681.9,682.2,682,686.6z"/>
<path class="st0" d="M695.9,712.2c-2.5,3.9-16.8,10.6-16.8,10.6s0.3-15.8,2.8-19.7c2.5-3.9,7.7-5,11.6-2.5
	C697.3,703.1,698.4,708.3,695.9,712.2L695.9,712.2z"/>
<path class="st0" d="M695.3,756c-4.1,2.1-19.9,0.6-19.9,0.6s8.2-13.5,12.3-15.6c4.1-2.1,9.2-0.4,11.3,3.7
	C701.1,748.9,699.4,753.9,695.3,756L695.3,756L695.3,756z"/>
<path class="st0" d="M687.3,789c-3.7,2.8-19.5,4-19.5,4s5.8-14.7,9.5-17.5c3.7-2.8,9-2,11.7,1.7C691.9,781,691.1,786.2,687.3,789
	L687.3,789z"/>
<path class="st0" d="M661.5,723.7c3.3,3.2,18.8,6.6,18.8,6.6s-3.8-15.3-7.1-18.6c-3.3-3.3-8.6-3.3-11.8,0s-3.3,8.6,0,11.8
	C661.4,723.6,661.4,723.6,661.5,723.7L661.5,723.7z"/>
<path class="st0" d="M652.7,762.4c4.1,2.1,19.9,0.6,19.9,0.6s-8.2-13.5-12.3-15.6c-4.2-2-9.2-0.1-11.1,4
	C647.2,755.5,648.8,760.3,652.7,762.4z"/>
<path class="st0" d="M649.3,801.2c3.7,2.8,19.5,4,19.5,4s-5.8-14.7-9.5-17.5c-3.7-2.8-9-2-11.7,1.7S645.6,798.5,649.3,801.2
	L649.3,801.2L649.3,801.2z"/>
<path class="st0" d="M682,686.6c0,4.6-8.4,18-8.4,18s-8.4-13.4-8.4-18c0.2-4.6,4-8.2,8.7-8.1C678.3,678.7,681.9,682.2,682,686.6z"/>
<path class="st0" d="M695.9,712.2c-2.5,3.9-16.8,10.6-16.8,10.6s0.3-15.8,2.8-19.7c2.5-3.9,7.7-5,11.6-2.5
	C697.3,703.1,698.4,708.3,695.9,712.2L695.9,712.2z"/>
<path class="st0" d="M695.3,756c-4.1,2.1-19.9,0.6-19.9,0.6s8.2-13.5,12.3-15.6c4.1-2.1,9.2-0.4,11.3,3.7
	C701.1,748.9,699.4,753.9,695.3,756L695.3,756L695.3,756z"/>
<path class="st0" d="M687.3,789c-3.7,2.8-19.5,4-19.5,4s5.8-14.7,9.5-17.5c3.7-2.8,9-2,11.7,1.7C691.9,781,691.1,786.2,687.3,789
	L687.3,789z"/>
<path class="st0" d="M661.5,723.7c3.3,3.2,18.8,6.6,18.8,6.6s-3.8-15.3-7.1-18.6c-3.3-3.3-8.6-3.3-11.8,0s-3.3,8.6,0,11.8
	C661.4,723.6,661.4,723.6,661.5,723.7L661.5,723.7z"/>
<path class="st0" d="M652.7,762.4c4.1,2.1,19.9,0.6,19.9,0.6s-8.2-13.5-12.3-15.6c-4.2-2-9.2-0.1-11.1,4
	C647.2,755.5,648.8,760.3,652.7,762.4z"/>
<path class="st0" d="M649.3,801.2c3.7,2.8,19.5,4,19.5,4s-5.8-14.7-9.5-17.5c-3.7-2.8-9-2-11.7,1.7S645.6,798.5,649.3,801.2
	L649.3,801.2L649.3,801.2z"/>
<path class="st11" d="M645.9,822.2c0,0,13.5-2.7,17.1-6.3s19.8-9.8,21.7-5.4s24.3,19.7,9,22.4s-36.1,3.6-40.6,1.8
	S645.9,822.2,645.9,822.2z"/>
<path class="st12" d="M693.8,831.3c-15.3,2.7-36.1,3.6-40.6,1.8c-3.4-1.4-5.8-7.9-6.8-11l-0.5,0.1c0,0,2.7,10.8,7.2,12.5
	s25.3,0.9,40.6-1.8c4.4-0.8,5.7-2.6,5.2-4.9C698.6,829.5,697,830.7,693.8,831.3z"/>
<path class="st2" d="M169.3,85.8v0.4c0,0.1,0,0.1,0,0.2c0,0.2,0,0.3,0,0.5v0.1c0,0.1,0,0.3,0,0.4v0.1c0,0,0,0,0,0.1v0.4v0.3
	l-0.1,0.7c0,0.2,0,0.3-0.1,0.5l0,0c0,0.1,0,0.2,0,0.2v0.1c0,0,0,0.1,0,0.1c0,0.1,0,0.2,0,0.2s0,0.2,0,0.2s0,0.1,0,0.2s0,0.2-0.1,0.3
	l0,0c0,0.1,0,0.1,0,0.2c0,0.1,0,0.2-0.1,0.3c0,0.1,0,0.2-0.1,0.3c0,0,0,0.1,0,0.1c0,0.1-0.1,0.2-0.1,0.3c-0.1,0.3-0.2,0.7-0.3,1
	c0,0.1-0.1,0.2-0.1,0.3s0,0.1-0.1,0.2c-0.7,1.9-1.7,3.7-2.9,5.3L165,99c-0.6,0.8-1.2,1.5-1.9,2.1l-31.5,31.2l-31.2-31.2
	c-0.9-0.9-1.7-1.9-2.4-2.9c-0.5-0.6-0.9-1.3-1.3-2c-2.1-3.8-3-8.2-2.7-12.5c0-0.4,0.1-0.8,0.1-1.2c0.1-0.7,0.2-1.4,0.4-2.1
	c0-0.1,0.1-0.3,0.1-0.4l0.1-0.2v-0.1l0.1-0.3l0,0c0.1-0.2,0.1-0.5,0.2-0.7s0.1-0.2,0.1-0.3c0.2-0.5,0.3-0.9,0.5-1.4l0.1-0.3l0.2-0.4
	l0.3-0.7l0,0l0,0c0-0.1,0.1-0.2,0.2-0.3c0.1-0.1,0.1-0.2,0.2-0.3c0.1-0.1,0.1-0.3,0.2-0.4c0-0.1,0.1-0.1,0.1-0.2
	c0,0,0.1-0.1,0.1-0.1l0,0l0,0l0.1-0.2c0.1-0.1,0.1-0.2,0.2-0.3l0.4-0.6l0.1-0.2l0.2-0.2l0.2-0.3l0.2-0.3l0.2-0.3l0.1-0.1l0.1-0.2
	c0.1-0.1,0.2-0.2,0.2-0.3c0,0,0.1-0.1,0.1-0.1l0,0l0.2-0.2l0.2-0.2c0.2-0.2,0.4-0.4,0.6-0.6l0.2-0.2l0.4-0.3l0.2-0.2l0.3-0.3
	l0.2-0.2l0.2-0.2l0.4-0.3l0.2-0.2c0.3-0.3,0.7-0.5,1-0.7l0.2-0.1l0.2-0.1l0.2-0.1l0.3-0.2l0.1-0.1l0.2-0.1c0.3-0.2,0.6-0.3,0.9-0.5
	l0.2-0.1l0.3-0.1l0.2-0.1l0.2-0.1l0.2-0.1l0.2-0.1l0.2-0.1c0.3-0.1,0.6-0.2,0.9-0.4l0.2-0.1l0.2-0.1l0.2-0.1l0.2-0.1l0.4-0.1
	l0.3-0.2l0.2-0.1h0.2l0.3-0.1l0.4-0.1c0.4-0.1,0.8-0.2,1.2-0.3h0.2h0.2h0.2h0.3h0.2c0.4,0,0.8-0.1,1.2-0.1h0.2h3.1
	c0.3,0,0.6,0.1,1,0.1l0.4,0.1h0.3h0.2h0.2h0.2c0.4,0.1,0.8,0.2,1.2,0.3l0.5,0.1h0.1l0.2,0.1l0.4,0.1l0.2,0.1l0.9,0.3l0.2,0.1
	l0.3,0.1l0.4,0.2l0.5,0.2l0.2,0.1l0.3,0.1l0.2,0.1l0.2,0.1l0.3,0.2l0.2,0.1l0.5,0.3l0.2,0.1l0.7,0.4l0.2,0.1l0.2,0.1l0.2,0.1l0,0
	l0.1,0.1l0.9,0.6l0.2,0.2l0.4,0.3l0.2,0.2l0.2,0.2l0.3,0.3l0.2,0.2l0.4,0.3l0.2,0.2l0.2-0.2c0.1-0.1,0.2-0.2,0.4-0.3
	c0.1-0.1,0.2-0.2,0.2-0.2l0.3-0.3l0.2-0.2l0.2-0.2l0.4-0.3l0.2-0.2c0.3-0.3,0.7-0.5,1-0.7l0.2-0.1l0.2-0.1l0.2-0.1l0.3-0.2l0.1-0.1
	l0.2-0.1c0.3-0.2,0.6-0.3,0.9-0.5l0.2-0.1l0.3-0.1l0.2-0.1l0.2-0.1l0.2-0.1l0.2-0.1l0.2-0.1c0.3-0.1,0.6-0.2,0.9-0.4l0.2-0.1
	l0.2-0.1l0.2-0.1l0.2-0.1l0.4-0.1l0.2-0.1l0.2-0.1h0.2l0.3-0.1l0.4-0.1c0.4-0.1,0.8-0.2,1.3-0.3h0.2h0.2h0.2h0.3h0.2
	c0.4,0,0.8-0.1,1.2-0.1h0.2h3.1l1,0.1l0.4,0.1h0.3h0.2h0.2h0.2c0.4,0.1,0.8,0.2,1.2,0.3l0.5,0.1h0.1l0.2,0.1l0.4,0.1l0.2,0.1
	l0.9,0.3l0.2,0.1l0.3,0.1l0.4,0.2l0.5,0.2l0.2,0.1l0.2,0.1l0.2,0.1l0.2,0.1l0.3,0.2l0.2,0.1l0.5,0.3l0.2,0.1l0.7,0.4l0.2,0.1
	l0.2,0.1l0.2,0.2l0,0l0.1,0.1c0.3,0.2,0.6,0.4,0.9,0.6c0.1,0,0.1,0.1,0.2,0.2c0.1,0.1,0.3,0.2,0.4,0.3l0.2,0.2l0.2,0.2l0.3,0.2
	l0.2,0.2l0.1,0.1l0,0l0,0l0.2,0.2l0.1,0.1l0.1,0.1l0.2,0.2l0.4,0.4c0.1,0.1,0.1,0.1,0.2,0.2c0.1,0.1,0.2,0.2,0.4,0.4l0.4,0.4
	c0.4,0.5,0.8,1,1.1,1.6c0.1,0.1,0.1,0.1,0.2,0.2c0.1,0.1,0.1,0.1,0.2,0.2l0.1,0.2l0.2,0.3l0.2,0.3l0.1,0.2l0.1,0.2l0.1,0.2l0.1,0.2
	l0.1,0.2c0.3,0.6,0.5,1.1,0.8,1.7l0.1,0.2c0.1,0.2,0.2,0.5,0.3,0.7c0,0.1,0.1,0.1,0.1,0.2c0,0.1,0.1,0.2,0.1,0.3l0.1,0.3l0.1,0.2
	c0,0.1,0,0.2,0.1,0.2l0.1,0.3c0,0.2,0.1,0.3,0.1,0.5s0,0.2,0.1,0.3s0,0.2,0.1,0.4c0,0.1,0,0.1,0,0.2c0,0.1,0,0.1,0,0.2v0.2v0.2v0.1
	v0.1c0,0.1,0,0.2,0,0.3s0,0.2,0,0.3s0,0.2,0,0.3v0.3v0.2v0.3c0,0,0,0.1,0,0.2s0,0.2,0,0.3l0,0c0,0.1,0,0.1,0,0.2c0,0.1,0,0.1,0,0.2
	c0,0.1,0,0.2,0,0.3l0,0c0,0.1,0,0.2,0,0.3L169.3,85.8z"/>
<path class="st3" d="M169.3,85.8v0.4c0,0.1,0,0.1,0,0.2c0,0.2,0,0.3,0,0.5v0.1c0,0.1,0,0.3,0,0.4v0.1c0,0,0,0,0,0.1v0.4v0.3
	l-0.1,0.7c0,0.2,0,0.3-0.1,0.5l0,0c0,0.1,0,0.2,0,0.2v0.1c0,0,0,0.1,0,0.1c0,0.1,0,0.2,0,0.2s0,0.2,0,0.2s0,0.1,0,0.2s0,0.2-0.1,0.3
	l0,0c0,0.1,0,0.1,0,0.2c0,0.1,0,0.2-0.1,0.3c0,0.1,0,0.2-0.1,0.3c0,0,0,0.1,0,0.1c0,0.1-0.1,0.2-0.1,0.3c-0.1,0.3-0.2,0.7-0.3,1
	c0,0.1-0.1,0.2-0.1,0.3s0,0.1-0.1,0.2c1.8-7.5-0.4-15.3-5.9-20.8c-1.1-1.1-2.4-2.1-3.8-3c-0.4-0.2-0.8-0.5-1.2-0.7
	c-7.5-4.2-16.7-3.7-23.6,1.3c-1,0.7-2,1.5-2.9,2.4c-0.8-0.8-1.7-1.6-2.7-2.3l0,0c-0.7-0.5-1.5-1-2.3-1.4c-6.6-3.6-14.6-3.6-21.2,0
	c-1.1,0.6-2.2,1.3-3.1,2.1c-1.6,1.3-3.1,2.8-4.3,4.5c-0.4,0.6-0.9,1.3-1.2,1.9l0,0c-0.3,0.6-0.7,1.2-0.9,1.9
	c-0.2,0.3-0.3,0.7-0.4,1.1c0-0.1,0.1-0.3,0.1-0.4l0.1-0.2v-0.1l0.1-0.3l0,0c0.1-0.2,0.1-0.5,0.2-0.7s0.1-0.2,0.1-0.3
	c0.2-0.5,0.3-0.9,0.5-1.4l0.1-0.3l0.2-0.4l0.3-0.7l0,0l0,0c0-0.1,0.1-0.2,0.2-0.3c0.1-0.1,0.1-0.2,0.2-0.3c0.1-0.1,0.1-0.3,0.2-0.4
	c0-0.1,0.1-0.1,0.1-0.2c0,0,0.1-0.1,0.1-0.1l0,0l0,0l0.1-0.2c0.1-0.1,0.1-0.2,0.2-0.3l0.4-0.6l0.1-0.2l0.2-0.2l0.2-0.3l0.2-0.3
	l0.2-0.3l0.1-0.1l0.1-0.2c0.1-0.1,0.2-0.2,0.2-0.3c0,0,0.1-0.1,0.1-0.1l0,0l0.2-0.2l0.2-0.2c0.2-0.2,0.4-0.4,0.6-0.6l0.2-0.2
	l0.4-0.3l0.2-0.2l0.3-0.3l0.2-0.2l0.2-0.2l0.4-0.3l0.2-0.2c0.3-0.3,0.7-0.5,1-0.7l0.2-0.1l0.2-0.1l0.2-0.1l0.3-0.2l0.1-0.1l0.2-0.1
	c0.3-0.2,0.6-0.3,0.9-0.5l0.2-0.1l0.3-0.1l0.2-0.1l0.2-0.1l0.2-0.1l0.2-0.1l0.2-0.1c0.3-0.1,0.6-0.2,0.9-0.4l0.2-0.1l0.2-0.1
	l0.2-0.1l0.2-0.1l0.4-0.1l0.3-0.2l0.2-0.1h0.2l0.3-0.1l0.4-0.1c0.4-0.1,0.8-0.2,1.2-0.3h0.2h0.2h0.2h0.3h0.2c0.4,0,0.8-0.1,1.2-0.1
	h0.2h3.1c0.3,0,0.6,0.1,1,0.1l0.4,0.1h0.3h0.2h0.2h0.2c0.4,0.1,0.8,0.2,1.2,0.3l0.5,0.1h0.1l0.2,0.1l0.4,0.1l0.2,0.1l0.9,0.3
	l0.2,0.1l0.3,0.1l0.4,0.2l0.5,0.2l0.2,0.1l0.3,0.1l0.2,0.1l0.2,0.1l0.3,0.2l0.2,0.1l0.5,0.3l0.2,0.1l0.7,0.4l0.2,0.1l0.2,0.1
	l0.2,0.1l0,0l0.1,0.1l0.9,0.6l0.2,0.2l0.4,0.3l0.2,0.2l0.2,0.2l0.3,0.3l0.2,0.2l0.4,0.3l0.2,0.2l0.2-0.2c0.1-0.1,0.2-0.2,0.4-0.3
	c0.1-0.1,0.2-0.2,0.2-0.2l0.3-0.3l0.2-0.2l0.2-0.2l0.4-0.3l0.2-0.2c0.3-0.3,0.7-0.5,1-0.7l0.2-0.1l0.2-0.1l0.2-0.1l0.3-0.2l0.1-0.1
	l0.2-0.1c0.3-0.2,0.6-0.3,0.9-0.5l0.2-0.1l0.3-0.1l0.2-0.1l0.2-0.1l0.2-0.1l0.2-0.1l0.2-0.1c0.3-0.1,0.6-0.2,0.9-0.4l0.2-0.1
	l0.2-0.1l0.2-0.1l0.2-0.1l0.4-0.1l0.2-0.1l0.2-0.1h0.2l0.3-0.1l0.4-0.1c0.4-0.1,0.8-0.2,1.3-0.3h0.2h0.2h0.2h0.3h0.2
	c0.4,0,0.8-0.1,1.2-0.1h0.2h3.1l1,0.1l0.4,0.1h0.3h0.2h0.2h0.2c0.4,0.1,0.8,0.2,1.2,0.3l0.5,0.1h0.1l0.2,0.1l0.4,0.1l0.2,0.1
	l0.9,0.3l0.2,0.1l0.3,0.1l0.4,0.2l0.5,0.2l0.2,0.1l0.2,0.1l0.2,0.1l0.2,0.1l0.3,0.2l0.2,0.1l0.5,0.3l0.2,0.1l0.7,0.4l0.2,0.1
	l0.2,0.1l0.2,0.2l0,0l0.1,0.1c0.3,0.2,0.6,0.4,0.9,0.6c0.1,0,0.1,0.1,0.2,0.2c0.1,0.1,0.3,0.2,0.4,0.3l0.2,0.2l0.2,0.2l0.3,0.2
	l0.2,0.2l0.1,0.1l0,0l0,0l0.2,0.2l0.1,0.1l0.1,0.1l0.2,0.2l0.4,0.4c0.1,0.1,0.1,0.1,0.2,0.2c0.1,0.1,0.2,0.2,0.4,0.4l0.4,0.4
	c0.4,0.5,0.8,1,1.1,1.6c0.1,0.1,0.1,0.1,0.2,0.2c0.1,0.1,0.1,0.1,0.2,0.2l0.1,0.2l0.2,0.3l0.2,0.3l0.1,0.2l0.1,0.2l0.1,0.2l0.1,0.2
	l0.1,0.2c0.3,0.6,0.5,1.1,0.8,1.7l0.1,0.2c0.1,0.2,0.2,0.5,0.3,0.7c0,0.1,0.1,0.1,0.1,0.2c0,0.1,0.1,0.2,0.1,0.3l0.1,0.3l0.1,0.2
	c0,0.1,0,0.2,0.1,0.2l0.1,0.3c0,0.2,0.1,0.3,0.1,0.5s0,0.2,0.1,0.3s0,0.2,0.1,0.4c0,0.1,0,0.1,0,0.2c0,0.1,0,0.1,0,0.2v0.2v0.2v0.1
	v0.1c0,0.1,0,0.2,0,0.3s0,0.2,0,0.3s0,0.2,0,0.3v0.3v0.2v0.3c0,0,0,0.1,0,0.2s0,0.2,0,0.3l0,0c0,0.1,0,0.1,0,0.2c0,0.1,0,0.1,0,0.2
	c0,0.1,0,0.2,0,0.3l0,0c0,0.1,0,0.2,0,0.3L169.3,85.8z"/>
</svg>
