<svg id="f8de8b25-3d53-474b-a5b1-b2a4ad6ddbb8" xmlns="http://www.w3.org/2000/svg" xmlns:xlink="http://www.w3.org/1999/xlink" viewBox="0 0 970.15 970.15"><defs><style>.cls-1,.cls-14{fill:none;}.cls-15,.cls-16,.cls-2{fill:#0ab9f1;}.cls-2,.cls-5{opacity:0.1;}.cls-13,.cls-16,.cls-17,.cls-2,.cls-5,.cls-7{isolation:isolate;}.cls-3{fill:url(#무제_그라디언트_2);}.cls-4{fill:#f78181;}.cls-6{fill:#ffb9b9;}.cls-7{opacity:0.05;}.cls-8{fill:#8189a6;}.cls-9{fill:#4c4c78;}.cls-10{fill:#f9d048;}.cls-11{fill:#cdd0db;}.cls-12{fill:#9da7c0;}.cls-13,.cls-17{fill:#fff;}.cls-13{opacity:0.3;}.cls-14{stroke:#535461;stroke-miterlimit:10;stroke-width:2px;}.cls-16,.cls-17{opacity:0.2;}</style><linearGradient id="무제_그라디언트_2" x1="646.28" y1="249.39" x2="646.28" y2="826.17" gradientTransform="matrix(1, 0, 0, -1, -60, 1028.44)" gradientUnits="userSpaceOnUse"><stop offset="0" stop-color="gray" stop-opacity="0.25"/><stop offset="0.54" stop-color="gray" stop-opacity="0.12"/><stop offset="1" stop-color="gray" stop-opacity="0.1"/></linearGradient></defs><title>b</title><rect class="cls-1" width="970.15" height="970.15"/><ellipse class="cls-2" cx="576.4" cy="763.22" rx="193.33" ry="37.3"/><path class="cls-2" d="M453.49,202.62c-28.57-.15-56.12-7.51-83.73-13.22a729.33,729.33,0,0,0-93.05-13c-33.31-2.5-67.38-2.71-99.72,3.93S114,201,95.35,222.53C63.75,259,72.35,307.68,89,349.64c19.72,49.76,49.48,97.76,93.63,137C214,514.54,252,537.45,289.68,560.17c21.32,12.83,42.79,25.76,67,35,22.53,8.58,46.91,13.76,71.12,18.89,25.88,5.48,51.76,11,78.19,14.39,84.37,10.9,170.66.35,254.9-11.11,29.69-4,60.6-8.62,84.2-23.08,18.39-11.27,30.57-27.59,39.25-44.46,11.37-22.07,17.23-47.62,4.85-69.4-18.27-32.14-69.76-46.37-90-77.8-25.88-40.29,9.74-90.1-6.89-133.2-6.92-17.94-22.37-33.11-38.52-47-38.47-33.29-87.86-61.92-148.46-50C554,182.51,508.52,202.92,453.49,202.62Z"/><path class="cls-3" d="M659.43,314.23c-.45-.51-.92-1-1.4-1.52,3.68-4.17,7.49-8.46,7.45-13.82,0-6.52-5.82-11.53-8-17.69-2.94-8.37,1.14-17.37,2.81-26.09a48.87,48.87,0,0,0-10.61-40.25c-1.69-2-3.67-4-6.2-4.75-3.85-1.21-7.94.47-12,1-13.24,1.63-25.27-9.77-38.57-8.75a7.27,7.27,0,0,0-2.56.57c-1.72.83-2.65,2.64-3.71,4.21-4.13,6.08-11.07,9.13-18,12.21a9.41,9.41,0,0,0-2.45,1.13c-2.07,1-4.11,2-6,3.11-13,7.71-11.14,18.51-3.46,25.17-1.52,7.48-9.13,14.06-7.83,21.76,1,6,7.32,10.13,8.53,16.13.7,3.48-.41,6.8-1.94,10.1-14.58,3.37-31,9.59-32.34,20.55-2.24,19.07-9,71.76-9,71.76s-7.81,42.2,21.8,22.21l-.38,1.13a245.5,245.5,0,0,0-10.87,49.75c-.3,2.52-.91,4.5-2,5.15-.39.24.39.61,2.1,1.07-.19.71-.4,1.42-.58,2.13a201.3,201.3,0,0,0-6.21,37.69,265.54,265.54,0,0,1-4.66,33.56c-7,35.3,0,80.59,0,80.59l15.31,72.1,2.62,12.32a18.4,18.4,0,0,0,6.21,4.48,97.87,97.87,0,0,1,2.13,13.42c0,.5.07,1,.1,1.52a6.4,6.4,0,0,0-4.56,2.84c-5.46,7.67.76,13.81-20.27,29.16-5.45,4-8.06,7.58-8.73,10.66h0c-.72,3.3.83,6,3.61,7.77h0a12.61,12.61,0,0,0,1.48.82h0c.26.13.51.24.76.35h0c.27.12.54.22.83.32h0l.82.25h.06l.88.23h.07l.82.18h.11l.91.15h.09l.83.1h.16l.92.07h2.18l.82,0h.22l.93-.09h.11l.83-.12.23,0,.92-.17H525l.84-.21.23-.06c.31-.08.6-.17.91-.27h0l.85-.29.23-.09.87-.35c14-6.15,42.88-22.26,42.88-22.26v-3h0c-.08-6.61-.76-22-3.81-21.45-1,.21-1.75,1.67-2.47,3.35l-.36-.68c-3-5.73-7.27-15.57-7.69-25.18a44.63,44.63,0,0,0,6.63-5.88s-1.57-6.6-2.9-13.56c-1.16-6-2.14-12.34-1.78-14.84.76-5.37-9.35-46.81-9.35-46.81s1-9.14,3.14-21.8c4.08-24.63,12.11-62.69,24.09-73.45.28-.24.56-.49.84-.7,0,0,8.58,1.52,15.59,49.89l2,21.53a124.72,124.72,0,0,0,3,17.7,93.2,93.2,0,0,1,2,28.31c-.89,12.69-1.27,27.63-1.43,38.12-.13,7.91-.13,13.29-.13,13.29a29.65,29.65,0,0,0,4.69,3.24v7a5.86,5.86,0,0,1-1.65,4h0a11,11,0,0,0-2.35,4.33c-1.36,2.45-2.51,6.43-3,12.84-1.52,20.72-2.34,18.42-2.34,18.42a27.2,27.2,0,0,0-1.76,7h0c-.05.45-.07.9-.09,1.36v1.13a3.26,3.26,0,0,0,0,.46,1.92,1.92,0,0,0,.05.41.58.58,0,0,0,0,.29,5.26,5.26,0,0,1,.11.55l.06.23c.06.19.11.38.17.56l.06.17a4.1,4.1,0,0,0,.21.48l.07.15q.13.27.3.54l.09.14c.12.18.24.34.37.5l.1.12a5.44,5.44,0,0,0,.48.48l.05,0a5.56,5.56,0,0,0,.54.42l.08.06a5.89,5.89,0,0,0,.64.37l.13.07a7,7,0,0,0,.76.29l.13,0a7,7,0,0,0,.87.24h0a8.85,8.85,0,0,0,1,.14h.14c.33,0,.68.06,1,.06h1.55a9.31,9.31,0,0,0,1.34-.15c16.37-2.28,24.17-3.8,23.39-13-.47-5.55-1.79-13.61-2.76-19.15a29.18,29.18,0,0,0-2.7-8.07c0-.43.08-.87.12-1.33.28-3.8.26-8.37-.89-11.36l.35-6.72a21.45,21.45,0,0,0,10.54-6.31s.11-5,.45-11.59c.52-10.2,1.53-24.27,3.44-29.86,3.13-9.21,0-41.44,0-41.44s-11.69-55.26-.76-79.06c9.63-21,9.55-42,.29-62.41a3.78,3.78,0,0,0,.49-.49s-2.34-1.52-1.52-19.19c.59-13.47-3.35-27.4-5.25-33.22a79.44,79.44,0,0,0,9.13,3.29c17.89,5.34,19.45-14.65,19.45-14.65l3.9-29.94,4.63-44.58h0C666.72,333.22,668.42,324.47,659.43,314.23Zm-79.27-29.57a14.71,14.71,0,0,1-.1,1.48,20,20,0,0,1-1,4.65,31.11,31.11,0,0,0,1-6.22Zm47.14,109a16.57,16.57,0,0,1,.76,1.52l-2-1a43.84,43.84,0,0,1,3.52-10.46,73.46,73.46,0,0,0,4.76-12.05,120.75,120.75,0,0,0,.7,14.35c1.59,12.24-7.77,7.64-7.77,7.64Z"/><path class="cls-4" d="M561.18,226.75c-2.49,1.7-5.1,3.66-6,6.55-1.43,4.65,2.16,9.31,2.51,14.17.65,8.82-9.33,16.11-7.86,24.84,1,6,7.14,10.05,8.32,16,1.72,8.68-7.68,16.32-6.95,25.12.4,4.69,3.67,8.68,7.37,11.59a35.77,35.77,0,0,0,18,7.38c-.43-7.54-6-14.41-5.07-21.91.66-5.14,4.28-9.35,6.37-14.09,3.68-8.33,2.5-18,.3-26.79S572.78,252,572.62,243c-.1-5.48,2.47-13.53.59-18.73C570.92,217.91,565.45,223.84,561.18,226.75Z"/><path class="cls-5" d="M561.18,226.75c-2.49,1.7-5.1,3.66-6,6.55-1.43,4.65,2.16,9.31,2.51,14.17.65,8.82-9.33,16.11-7.86,24.84,1,6,7.14,10.05,8.32,16,1.72,8.68-7.68,16.32-6.95,25.12.4,4.69,3.67,8.68,7.37,11.59a35.77,35.77,0,0,0,18,7.38c-.43-7.54-6-14.41-5.07-21.91.66-5.14,4.28-9.35,6.37-14.09,3.68-8.33,2.5-18,.3-26.79S572.78,252,572.62,243c-.1-5.48,2.47-13.53.59-18.73C570.92,217.91,565.45,223.84,561.18,226.75Z"/><path class="cls-6" d="M568.48,736.2l-6.85,6.85s-24.36,12.94-21.31-4.56a62.87,62.87,0,0,0,.52-15.74,97.81,97.81,0,0,0-4.33-21.56l22.84-4.57c-3.81,11.94,2.46,27,6.36,34.61C567.27,734.31,568.48,736.2,568.48,736.2Z"/><path class="cls-6" d="M620.35,722.36c-.18,2.34-.46,4.68-.87,7,0,0-19,12.94-20.55-1.52-1-9.42,1.25-13.7,2.93-15.5h0a5.8,5.8,0,0,0,1.6-4V691.29l16.75,5.33-.76,14.46C620.6,714.09,620.62,718.58,620.35,722.36Z"/><path class="cls-7" d="M568.48,736.2l-6.85,6.85s-24.36,12.94-21.31-4.56a62.87,62.87,0,0,0,.52-15.74c5.33-.77,11.66,5.08,11.66,5.08,8.92,12.59,11.32,7.82,13.21,3.4C567.27,734.31,568.48,736.2,568.48,736.2Z"/><path class="cls-8" d="M552.5,729.35s-10.66-9.89-16-2.28.76,13.7-19.79,28.92,0,25.12,13.7,19S572.29,753,572.29,753s0-25.12-3.81-24.36S565.44,747.62,552.5,729.35Z"/><path class="cls-7" d="M620.35,722.36c-.18,2.34-.46,4.68-.87,7,0,0-19,12.94-20.55-1.52-1-9.42,1.25-13.7,2.93-15.5a4.57,4.57,0,0,1,4.68-.48c3-1.36,6.39.9,9.13,3.8A27.14,27.14,0,0,1,620.35,722.36Z"/><path class="cls-8" d="M606.54,713.37s-8.37-4.57-9.9,16-2.28,18.27-2.28,18.27-7.61,18.27,8.37,16,23.6-3.8,22.84-12.94c-.46-5.5-1.75-13.5-2.7-19a28,28,0,0,0-7.17-14.46C612.94,714.27,609.58,712,606.54,713.37Z"/><path class="cls-9" d="M633.94,615.94s3,32,0,41.1c-1.85,5.54-2.85,19.5-3.36,29.62-.33,6.54-.45,11.48-.45,11.48-14.46,15.23-31.2,0-31.2,0s0-5.32.12-13.18c.16-10.4.53-25.22,1.4-37.81a94,94,0,0,0-1.91-28.07,124.37,124.37,0,0,1-2.95-17.55l-2-21.36c-6.85-47.95-15.22-49.47-15.22-49.47-.28.21-.54.45-.82.69C565.86,542.05,558,579.81,554,604.23c-2,12.57-3,21.61-3,21.61s9.89,41.1,9.13,46.43c-.35,2.48.61,8.73,1.74,14.72,1.3,6.9,2.83,13.45,2.83,13.45-19,20.55-32,4.56-32,4.56l-2.56-12.22-14.95-71.51s-6.85-44.9,0-79.92a266.5,266.5,0,0,0,4.57-33.28,203.11,203.11,0,0,1,6.09-37.38q1.39-5.43,3.09-10.78c1.7-5.35,28.58-5,55.49-5,20.19,0,39.43,2.79,45,12.58q1.92,3.38,3.49,6.77c9.63,20.72,9.89,42,.32,63.26C622.52,561.14,633.94,615.94,633.94,615.94Z"/><path class="cls-6" d="M570,339.64s-40.34-41.1-9.89-38.06c6.9.69,11.57-.54,14.67-2.85,3.53-2.64,5-6.67,5.43-10.88.84-8.37-2.6-17.51-2.6-17.51s41.11-32.73,32.73,8.38a69.48,69.48,0,0,0-1.59,12.7c-.14,8.72,2.73,12.06,6.75,13.43,6.79,2.32,16.89-.93,21.48,6.59C645.36,325.18,570,339.64,570,339.64Z"/><path class="cls-7" d="M610.34,278.75a69.48,69.48,0,0,0-1.59,12.7,29.75,29.75,0,0,1-3.35.95,32.73,32.73,0,0,1-25.19-4.57c.84-8.37-2.6-17.5-2.6-17.5S618.72,237.64,610.34,278.75Z"/><path class="cls-6" d="M630.9,259a32.73,32.73,0,0,1-65.46,0c0-.61,0-1.22,0-1.82A32.73,32.73,0,0,1,630.9,259Z"/><path class="cls-7" d="M570,339.64s-40.34-41.1-9.89-38.06c6.9.69,11.57-.54,14.67-2.85-5.89,9.77-12.52,27.34,17.3,25.69,27.28-1.53,26.82-12.4,23.42-19.54,6.79,2.33,16.89-.92,21.48,6.6C645.36,325.18,570,339.64,570,339.64Z"/><path class="cls-5" d="M633.94,477.41c-6.93,9-95.22-2.8-108.13-6.72q1.4-5.44,3.09-10.79c1.7-5.35,28.58-5,55.5-5,20.18,0,39.42,2.79,45,12.58,1.28,2.26,2.44,4.51,3.49,6.78C633.35,477,633.94,477.41,633.94,477.41Z"/><path class="cls-10" d="M578.38,294.73s-51.38,4.19-53.67,24c-2.18,18.92-8.75,71.16-8.75,71.16s-7.61,41.87,21.31,22.08l-.37,1.11a247,247,0,0,0-10.62,49.35c-.3,2.49-.88,4.46-1.95,5.1-3.81,2.29,102,17.51,109.6,7.61,0,0-2.28-1.52-1.52-19s-6.09-35.78-6.09-35.78-6.09-18.27,2.28-35.77,5.33-22.84,5.33-22.84l28.93-22.07s6.25-10.71-5.18-23.92a39.58,39.58,0,0,0-27.19-13.4l-19.94-1.45s21.86,23.52-19.24,25.81S578.38,294.73,578.38,294.73Z"/><path class="cls-7" d="M544.12,336.59s1.53,12.18-1.52,16-3.8,21.31,0,32"/><path class="cls-5" d="M577.56,531.38C565.86,542,558,579.8,554,604.22c-5.54-34,17.51-90.28,17.51-90.28Z"/><path class="cls-5" d="M564.67,700.43c-19,20.55-32,4.56-32,4.56l-2.56-12.22c7.19,3.74,19.35,6.64,31.69-5.79C563.14,693.88,564.67,700.43,564.67,700.43Z"/><path class="cls-5" d="M630.58,686.66c-.33,6.54-.45,11.48-.45,11.48-14.46,15.23-31.2,0-31.2,0s0-5.32.12-13.18C605.33,689,616.62,693.34,630.58,686.66Z"/><rect class="cls-11" x="547.93" y="362.47" width="51.76" height="21.31" rx="2.85" ry="2.85"/><rect class="cls-7" x="547.93" y="362.47" width="51.76" height="21.31" rx="2.85" ry="2.85"/><rect class="cls-11" x="547.93" y="363.23" width="51.76" height="21.31" rx="2.85" ry="2.85"/><circle class="cls-12" cx="588.65" cy="373.51" r="2.28"/><path class="cls-7" d="M525.9,396.22a14.79,14.79,0,0,1,8.6-9.05,13.45,13.45,0,0,0,7.39-6.63c3-6.65,8.32-13.5,22-8.93s-3.8,7.61-3.8,7.61,31.21-4.57,19,4.57-27.41,14.46-27.41,14.46l-7.49,7.94a11.22,11.22,0,0,1-16.75-.34A9.71,9.71,0,0,1,525.9,396.22Z"/><path class="cls-6" d="M525.14,394.7a14.83,14.83,0,0,1,8.6-9.06,13.35,13.35,0,0,0,7.38-6.63c3-6.64,8.33-13.49,22-8.93s-3.8,7.62-3.8,7.62,31.2-4.57,19,4.56S551,396.73,551,396.73l-7.49,7.93a11.22,11.22,0,0,1-16.75-.33A9.71,9.71,0,0,1,525.14,394.7Z"/><path class="cls-7" d="M632.42,410.43l-5.33,12.94-6.85-5-19-14L588.27,396c-18.27-13.7,0-16,0-16-6.85-3,0-6.09,0-6.09,24.36-5.33,19.79,14.46,19.79,14.46l15.43,8,5.12,2.66Z"/><path class="cls-6" d="M633.94,408.9l-5.33,12.94-6.85-5-19-14-12.94-8.37c-18.26-13.7,0-16,0-16-6.85-3,0-6.09,0-6.09,24.36-5.33,19.79,14.46,19.79,14.46l15.43,8,5.12,2.66Z"/><path class="cls-7" d="M633.94,408.9l-5.33,12.94-6.85-5c6.17.22,13.47-2.77,3.22-22l5.12,2.66Z"/><path class="cls-10" d="M662.1,332l1.47,6-4.51,44.24L655.25,412s-1.52,19.79-19,14.46-19-10.66-19-10.66,25.12,8.38,9.14-21.31c0,0,9.13,4.57,7.61-7.61s0-33.49,0-33.49Z"/><path class="cls-7" d="M630.9,259a32.74,32.74,0,0,1-25.5,31.92c-1.09-3.17-1.87-6.32-1.07-9.52,1.52-6.22,8.72-10.76,7.92-17.11a4.16,4.16,0,0,0-.76-2c-1.6-2.11-4.88-1.06-7.48-.54a14.22,14.22,0,0,1-15.92-9.82,22.27,22.27,0,0,1-22.64,5.25A32.73,32.73,0,0,1,630.86,259Z"/><path class="cls-4" d="M588.89,250.37a14.21,14.21,0,0,0,15.91,9.81c2.61-.52,5.88-1.57,7.49.55a4.17,4.17,0,0,1,.72,2c.81,6.36-6.37,10.89-7.92,17.11-1.59,6.41,3,12.6,4.07,19.12.54,3.57,0,7.21,0,10.82s.86,7.49,3.54,9.9,7.61,2.45,9.41-.69c8.56,4.53,5.15,18.56,11.65,25.74,3.58,3.95,9.48,4.9,14.8,4.4A6.26,6.26,0,0,0,652,348a6.19,6.19,0,0,0,1.71-3.2,26,26,0,0,0-.67-15.4c-.85-2.37-2.07-4.76-1.75-7.25A10.63,10.63,0,0,1,654,317c4.08-5.07,9.66-10,9.62-16.49s-5.68-11.42-7.79-17.5c-2.87-8.32,1.11-17.24,2.75-25.88a49.13,49.13,0,0,0-10.35-40c-1.66-2-3.59-3.92-6.09-4.71-3.76-1.2-7.75.48-11.67,1-12.94,1.62-24.67-9.69-37.66-8.67a6.7,6.7,0,0,0-2.49.57c-1.68.81-2.59,2.61-3.63,4.17-5.73,8.56-17,11-25.83,16.32C535.08,241.28,569.17,269.35,588.89,250.37Z"/><path class="cls-13" d="M530.42,772c-8.9,3.95-20.67,1.16-22.22-5.44-1.86,8.73,12.06,13,22.22,8.48,13.7-6.09,41.87-22.07,41.87-22.07s0-1.18,0-3.05C571.43,750.39,543.92,765.94,530.42,772Z"/><path class="cls-13" d="M625.53,750.22c-.88,6.85-8.47,8.29-22.8,10.34-7.28,1-9.66-2.19-10.1-6-.48,4.89.92,10.36,10.1,9.05,16-2.28,23.6-3.8,22.84-12.94C625.55,750.52,625.54,750.37,625.53,750.22Z"/><path class="cls-14" d="M719.7,764s-11-55.86,11.67-94.11a86.3,86.3,0,0,0,11.9-53.23,145.67,145.67,0,0,0-5.33-26"/><path class="cls-15" d="M752.12,566.42c-.61,6.66-14.46,24.87-14.46,24.87s-10.3-20.43-9.68-27.09a12.12,12.12,0,1,1,24.18,1.72c0,.16,0,.33,0,.49Z"/><path class="cls-15" d="M768.67,605.16c-4.13,5.26-25.65,13-25.65,13s2.47-22.74,6.6-28a12.12,12.12,0,0,1,19.67,14.15,10,10,0,0,1-.64.82Z"/><path class="cls-15" d="M762,668.15c-6.23,2.46-28.72-1.7-28.72-1.7s13.61-18.39,19.83-20.84a12.12,12.12,0,1,1,9.24,22.4Z"/><path class="cls-15" d="M746.23,714.68c-5.73,3.47-28.6,3.17-28.6,3.17s10.31-20.41,16-23.89a12.12,12.12,0,0,1,12.91,20.51l-.34.21Z"/><path class="cls-15" d="M717.57,617.15c4.35,5.08,26.18,11.93,26.18,11.93s-3.43-22.62-7.78-27.69a12.11,12.11,0,0,0-18.4,15.76Z"/><path class="cls-15" d="M699.8,671.8c5.67,3.55,28.55,3.56,28.55,3.56s-10-20.55-15.7-24.11a12.12,12.12,0,1,0-13.12,20.38l.28.17Z"/><path class="cls-15" d="M689.82,727.28c5,4.45,27.54,8.34,27.54,8.34s-6.42-22-11.42-26.42a12.12,12.12,0,0,0-16.73,17.54C689.41,726.93,689.61,727.11,689.82,727.28Z"/><path class="cls-15" d="M506.38,272.28a11.06,11.06,0,0,0-11-10.66H296.21A11.23,11.23,0,0,0,285,271.31a11.05,11.05,0,0,0,9.67,12.3,9.07,9.07,0,0,0,1.28.08H496a8.85,8.85,0,0,1,8.61,4.76,14.17,14.17,0,0,1,1.29,3.81l.45.22v-20.2Z"/><path class="cls-15" d="M506.38,343.82a11.06,11.06,0,0,0-11-10.65H409.62a11.23,11.23,0,0,0-11.25,9.69,11.08,11.08,0,0,0,10.95,12.38H496a8.85,8.85,0,0,1,8.61,4.76,14.17,14.17,0,0,1,1.29,3.81l.45.22V343.82Z"/><path class="cls-16" d="M247.58,236.5c.13-5.89,3.31-10.66,7.2-10.66H385c4,0,7.2,5,7.2,11s-3.24,11-7.2,11H254.75a5.92,5.92,0,0,0-5.71,3.8,21.15,21.15,0,0,0-1.17,4.75l-.29.22V236.5Z"/><path class="cls-16" d="M247.58,308.05c.16-5.89,4-10.66,8.75-10.66H414.65c4.82,0,8.76,5,8.76,11s-3.94,11-8.76,11H256.33c-3,0-5.88,1.4-6.94,3.8A17.6,17.6,0,0,0,248,328l-.35.22V308.07Z"/><circle class="cls-17" cx="414.28" cy="343.82" r="3.81"/><circle class="cls-17" cx="427.22" cy="343.82" r="3.81"/><circle class="cls-17" cx="440.16" cy="343.82" r="3.81"/></svg>