<svg id="f8de8b25-3d53-474b-a5b1-b2a4ad6ddbb8" xmlns="http://www.w3.org/2000/svg" xmlns:xlink="http://www.w3.org/1999/xlink" viewBox="0 0 970.15 970.15"><defs><style>.cls-1{fill:none;}.cls-2{opacity:0.5;}.cls-3{fill:url(#무제_그라디언트_2);}.cls-4{fill:#fff;}.cls-5{fill:url(#무제_그라디언트_2-2);}.cls-6{fill:url(#무제_그라디언트_2-3);}.cls-7{fill:#0ab9f1;}.cls-8{fill:url(#무제_그라디언트_2-4);}.cls-9{fill:url(#무제_그라디언트_2-5);}.cls-10{fill:#69f0ae;}.cls-11{fill:#e0e0e0;}.cls-12{fill:url(#무제_그라디언트_2-6);}.cls-13{fill:url(#무제_그라디언트_2-7);}.cls-14{fill:#be7c5e;}.cls-15{fill:#fda57d;}.cls-16{fill:#333;}.cls-17{fill:#4d8af0;}</style><linearGradient id="무제_그라디언트_2" x1="551.9" y1="-653.33" x2="551.9" y2="-65.05" gradientTransform="matrix(1, 0, 0, -1, -56.25, 125.89)" gradientUnits="userSpaceOnUse"><stop offset="0" stop-color="gray" stop-opacity="0.25"/><stop offset="0.54" stop-color="gray" stop-opacity="0.12"/><stop offset="1" stop-color="gray" stop-opacity="0.1"/></linearGradient><linearGradient id="무제_그라디언트_2-2" x1="552.46" y1="-104.05" x2="552.46" y2="-54.19" gradientTransform="matrix(1, 0, 0, -1, -172.54, 150.91)" xlink:href="#무제_그라디언트_2"/><linearGradient id="무제_그라디언트_2-3" x1="552.46" y1="-64.38" x2="552.46" y2="-5.45" gradientTransform="matrix(0.91, -0.42, -0.42, -0.91, -155.55, 387.33)" xlink:href="#무제_그라디언트_2"/><linearGradient id="무제_그라디언트_2-4" x1="408.36" y1="-251.39" x2="408.36" y2="-162.55" gradientTransform="matrix(1, 0, 0, -1, -106.48, 199.19)" xlink:href="#무제_그라디언트_2"/><linearGradient id="무제_그라디언트_2-5" x1="408.66" y1="-427.45" x2="408.66" y2="-338.61" gradientTransform="matrix(1, 0, 0, -1, -33.44, 183.19)" xlink:href="#무제_그라디언트_2"/><linearGradient id="무제_그라디언트_2-6" x1="408.36" y1="-228.23" x2="408.36" y2="-184.62" gradientTransform="matrix(0.91, -0.42, -0.42, -0.91, -155.54, 387.33)" xlink:href="#무제_그라디언트_2"/><linearGradient id="무제_그라디언트_2-7" x1="642.2" y1="427" x2="642.2" y2="847.64" gradientTransform="matrix(1, 0, 0, -1, -157.12, 1043.09)" xlink:href="#무제_그라디언트_2"/></defs><title>b</title><rect class="cls-1" width="970.15" height="970.15"/><g class="cls-2"><rect class="cls-3" x="282.77" y="190.93" width="425.77" height="588.28" transform="translate(-156.61 249.45) rotate(-24.52)"/></g><rect class="cls-4" x="287.29" y="195.46" width="414.94" height="575.28" transform="translate(-155.87 248.9) rotate(-24.52)"/><rect class="cls-5" x="277" y="205.1" width="205.84" height="49.86" transform="translate(-61.2 178.42) rotate(-24.52)"/><path class="cls-6" d="M349.34,163c-14.45,6.6-20.7,24-13.94,38.75s24,21.46,38.4,14.86,20.7-23.94,13.95-38.74S363.8,156.42,349.34,163Zm19.29,42.27a17,17,0,1,1,7.87-22.72l.18.37a16.81,16.81,0,0,1-8.05,22.36h0Z"/><rect class="cls-7" x="278.72" y="205.23" width="201.51" height="47.67" transform="translate(-60.84 178.14) rotate(-24.52)"/><path class="cls-7" d="M350.24,165a28.17,28.17,0,1,0,37.32,13.95h0A28.18,28.18,0,0,0,350.24,165Zm18.44,40.42a16.25,16.25,0,1,1,8-21.54,16.25,16.25,0,0,1-8,21.54Z"/><rect class="cls-8" x="257.46" y="361.74" width="88.84" height="88.84" transform="translate(-141.34 161.91) rotate(-24.52)"/><rect class="cls-9" x="330.8" y="521.79" width="88.84" height="88.84" transform="translate(-201.15 206.79) rotate(-24.52)"/><rect class="cls-10" x="260.71" y="364.99" width="82.34" height="82.34" transform="translate(-141.34 161.91) rotate(-24.52)"/><rect class="cls-7" x="333.1" y="523.68" width="82.34" height="82.34" transform="translate(-200.67 206.27) rotate(-24.52)"/><rect class="cls-11" x="378.63" y="328.49" width="112.86" height="7.88" transform="translate(-98.73 210.53) rotate(-24.52)"/><rect class="cls-11" x="380.22" y="323.99" width="186.35" height="7.88" transform="translate(-93.4 226.04) rotate(-24.52)"/><rect class="cls-11" x="385.71" y="337.46" width="173.22" height="7.88" transform="translate(-99.09 226.81) rotate(-24.52)"/><rect class="cls-11" x="451.02" y="487.19" width="112.86" height="7.88" transform="translate(-158.06 254.89) rotate(-24.52)"/><rect class="cls-11" x="452.61" y="482.68" width="186.35" height="7.88" transform="translate(-152.73 270.39) rotate(-24.52)"/><rect class="cls-11" x="458.1" y="496.16" width="173.22" height="7.88" transform="translate(-158.42 271.16) rotate(-24.52)"/><polygon class="cls-12" points="282.84 409.45 302.13 415.71 308.48 378.58 317.87 381.15 307.31 427.05 278.21 414.3 282.84 409.45"/><polygon class="cls-4" points="285.3 408.96 302.07 414.4 307.59 382.12 315.75 384.35 306.57 424.26 281.27 413.18 285.3 408.96"/><polygon class="cls-4" points="358.14 568.64 374.92 574.08 380.43 541.79 388.59 544.03 379.41 583.94 354.11 572.86 358.14 568.64"/><rect class="cls-11" x="446.98" y="623.05" width="263.27" height="87.75" transform="translate(-224.6 300.28) rotate(-24.52)"/><path class="cls-7" d="M645.44,636c-9.2-2.62-18.62-2.13-21.56,8.4-1,3.55-1.1,9.05-4.91,10.88-5.6,2.69-12.35-2.69-17.21-4.88-9.06-4.09-18.35-1.31-23.59,7.28-2.66,4.36-3.8,9.37-4.71,14.33-.39,2.15-.44,4.81-1.34,6.83-1.74,3.88-7.17,3.53-10.73,3.38-.79,0-1.58-.09-2.38-.17a21.07,21.07,0,0,0,4-13.4c-.24-7.87-5.34-16.47-14.28-15.51-8,.83-13.63,8.56-12.73,16.37.76,6.65,5.09,11.8,10.64,15-2.72,1.2-5.63,2.14-8.21,3.39a33.07,33.07,0,0,0-3.49,2c-7.79-3.76-18-4.46-25-.63-3.39,1.85-.91,7.36,2.49,5.49,5.34-2.92,11.22-2.19,16.79-.33l.47.16a14.86,14.86,0,0,0-1.45,2.25c-3.15,6.12,0,15.79,7.65,16.45,10.8.92,11.31-13.35,5.45-19-.25-.24-.5-.47-.77-.7,2.43-1.17,5.05-2.05,7.37-3a30,30,0,0,0,5.73-3.19l.42.11c8.25,1.87,21.12,2.45,24.09-7.54,2.54-8.68,2.78-27.09,16.49-25.39,5.59.69,10.18,5,15.49,6.54,4.76,1.42,10.27,1.48,14.18-2,3.22-2.89,3.94-7.16,4.93-11.15.51-2.06,1-4.52,2.68-6,3-2.65,8.05-1.09,11.43-.12C647,642.72,649.19,637.07,645.44,636ZM538.27,706.28c-1.82,1.81-3.74.38-4.71-1.51a5.92,5.92,0,0,1,.83-6.57,10.2,10.2,0,0,1,.79-1c3.59,2.33,6.53,5.66,3.13,9Zm6.38-44.86c3.74-3.47,9-2.7,11.18,2.06s1.24,11.5-1.88,15.7a11.87,11.87,0,0,1-1.37,1.55,17.54,17.54,0,0,1-5.92-3.38c-4.42-4-6.92-11.36-2-16Z"/><path class="cls-13" d="M695.26,313.29,628.2,339.43c-12.61-.94-39.14-4.36-65.48-16.78-29.31-13.82-62.9-13.79-91.38.69-65.63,1.57-101.75-6.84-121-14.8l5.08-10.43-68-26.5L117.49,195.45V507.61L177,534.11l31.9-76.53L278.92,490l13.45-34.18,46,34.14,3.13,2.63-4.31,4.48a22.47,22.47,0,0,0,0,30.91h0a20.47,20.47,0,0,0,28.94.81c.27-.26.54-.53.8-.81l-2.36,2.5a22.47,22.47,0,0,0,0,30.91h0a20.47,20.47,0,0,0,28.94.8l.8-.8,13.63-14.17h0l-9.36,9.72a22.49,22.49,0,0,0,0,30.92h0a20.47,20.47,0,0,0,28.94.8c.28-.26.54-.53.8-.8l13.45-14h0l-5.65,5.89a15.7,15.7,0,0,0,0,21.6,14.3,14.3,0,0,0,20.21.55l.56-.55,9-9.33c15.41,11.26,27.88,19.48,34,21.6,25.45,8.83,25.45-8.84,25.45-8.84,34,17.66,51-17.67,51-17.67,42.49,17.67,42.49-26.5,42.49-26.5,10.61,7.36,18.27,4,23.62-2.49,7.29-8.79,8.18-21.19,3.18-31.14l40.6-37.53,17.57,35.91,70-32.4,31.9,70.72,47-21V233.79Z"/><polygon class="cls-14" points="683.98 476.75 610.03 542.49 552.51 435.67 683.98 402.8 683.98 476.75"/><path class="cls-15" d="M330.66,304.2S354.4,337.06,495,328.85L577.16,452.1l55.06,61.95c8.65,9.73,9.14,24.5.65,34.37-5.16,6-12.58,9.13-22.84,2.28,0,0,0,41.08-41.08,24.65,0,0-16.44,32.86-49.3,16.43,0,0,0,16.43-24.65,8.22S338.88,485,338.88,485l-57.52-41.08Z"/><path class="cls-14" d="M626.46,345.29s-35.51,0-70.62-15.94c-31.92-14.48-69.1-12.64-98.56,6.37-24,15.49-44.81,41.15-44.42,83.51,0,0,31.95,32.87,65.73-32.86h24.65s23.74,82.17,90.39,73.94,82.17-16.44,82.17-16.44Z"/><rect class="cls-14" x="354.86" y="508.46" width="63.91" height="40.67" rx="18.45" ry="18.45" transform="translate(-260.62 428.4) rotate(-45)"/><rect class="cls-14" x="328.38" y="477.42" width="63.91" height="40.67" rx="18.45" ry="18.45" transform="translate(-246.43 400.58) rotate(-45)"/><rect class="cls-14" x="386.87" y="531.04" width="69.72" height="40.67" rx="18.45" ry="18.45" transform="translate(-266.36 459.71) rotate(-45)"/><rect class="cls-14" x="426.57" y="557.96" width="46.48" height="28.4" rx="12.88" ry="12.88" transform="translate(-272.83 485.64) rotate(-45)"/><polygon class="cls-4" points="766.14 493.19 692.2 526.05 618.24 345.29 683.98 320.64 766.14 493.19"/><polygon class="cls-4" points="207.42 452.11 281.36 484.97 355.32 304.21 289.58 279.55 207.42 452.11"/><polygon class="cls-16" points="125.25 205.61 289.58 279.55 182.77 526.05 125.25 501.4 125.25 205.61"/><polygon class="cls-17" points="848.31 246.69 683.98 320.64 790.8 567.13 848.31 542.49 848.31 246.69"/></svg>