<svg id="f8de8b25-3d53-474b-a5b1-b2a4ad6ddbb8" xmlns="http://www.w3.org/2000/svg" viewBox="0 0 970.15 970.15"><defs><style>.cls-1,.cls-4{fill:none;}.cls-10,.cls-2{fill:#0ab9f1;}.cls-2,.cls-7{opacity:0.1;isolation:isolate;}.cls-3{fill:#f2f2f2;}.cls-4{stroke:#3f3d56;stroke-miterlimit:10;stroke-width:2px;}.cls-5{fill:#3f3d56;}.cls-6{fill:#2f2e41;}.cls-8{fill:#9f616a;}.cls-9{fill:#a0616a;}.cls-11{fill:#3ad29f;}</style></defs><title>b</title><rect class="cls-1" width="970.15" height="970.15"/><ellipse class="cls-2" cx="626.86" cy="796.34" rx="193.33" ry="37.3"/><path class="cls-3" d="M686,531.69l-165.63-207a55.69,55.69,0,0,1-26.79,13.52c-31.18,6.14-61.63-15.15-68-47.56-4.52-22.91,4.22-45.23,20.73-58.52l-56.47-70.57-321.75,275,296.17,370.1Z"/><circle class="cls-4" cx="600.58" cy="210.52" r="12.69"/><circle class="cls-4" cx="768.22" cy="579.33" r="12.69"/><circle class="cls-4" cx="214.81" cy="242.33" r="12.69"/><circle class="cls-3" cx="480.18" cy="281.71" r="46.69"/><path class="cls-5" d="M202.93,255.62H409.79a44,44,0,0,1,42.89,34.3L557.2,753.53a35.55,35.55,0,0,1-32.92,43.31L311.63,807.32a47,47,0,0,1-48.51-38.54L203.83,441l-4.41,1.26-11.34-62.13,4.54-1.13-16.55-91.5a27.08,27.08,0,0,1,21.82-31.46A27.44,27.44,0,0,1,202.93,255.62Z"/><path class="cls-3" d="M382.56,265.62H406.7a30.38,30.38,0,0,1,29.69,23.91L536.72,749.35a18.84,18.84,0,0,1-14.39,22.41,18.42,18.42,0,0,1-2.78.39L307.59,786A24.37,24.37,0,0,1,282,766L196.39,290.76A21.36,21.36,0,0,1,213.62,266a21.88,21.88,0,0,1,3.79-.33h22.91a10.08,10.08,0,0,1,9.73,7.46h0a8.9,8.9,0,0,0,8.59,6.58H367.39a15.21,15.21,0,0,0,15.17-14Z"/><rect class="cls-6" x="230.75" y="384.46" width="219.33" height="1.08"/><polygon class="cls-6" points="444.71 368.46 444.02 367.62 427.43 381.2 423.12 375.46 422.26 376.11 427.24 382.75 444.71 368.46"/><path class="cls-7" d="M346.63,663.49a51.32,51.32,0,0,0,102.64,0c0-.65,0-1.28,0-1.92a51.32,51.32,0,0,0-102.6,1.92Z"/><path class="cls-7" d="M351.49,683.47c0,.65,0,1.29,0,1.92a51.32,51.32,0,0,0,97.74-21.9c0-.65,0-1.28,0-1.92a51.33,51.33,0,0,0-97.74,21.9Z"/><circle class="cls-6" cx="663.79" cy="363.54" r="31.64"/><polygon class="cls-8" points="697.92 759.99 703.93 785.78 689.32 785.78 683.3 756.55 697.92 759.99"/><polygon class="cls-8" points="627.42 759.99 627.42 784.06 612.81 785.78 612.81 759.99 627.42 759.99"/><path class="cls-8" d="M702.21,486.61s-1.71,37-3.43,39.54-17.2,39.55-17.2,39.55l-7.74-24.07s12-19.78,10.32-30.95-.63-24.93-.63-24.93Z"/><circle class="cls-8" cx="653.21" cy="373.13" r="24.07"/><path class="cls-8" d="M673,375.71s-.86,34.38,5.15,39.54-34.38.86-34.38.86,8.59-24.07,1.72-29.23S673,375.71,673,375.71Z"/><path class="cls-6" d="M641.18,414.39s5.15-9.45,12-8.59,29.23,2.58,30.09,4.29,3.44,7.74,5.16,9.46,14.61,4.3,15.47,14.62S673,507.24,673,507.24s4.29,14.61,3.43,18,4.3,13.76,3.44,18.06,12.9,30.09,6,63.61v54.16s23.21,93.71,16.33,100.59-30.08,2.58-34.38,0-22.35-132.39-22.35-132.39l-8.6-43.85L636,681.76s1.72,80.81-4.3,83.39-29.23,3.44-31-1.72c-1.34-4-7.91-111.07-10.74-158a175.3,175.3,0,0,1,3.79-48.29c3.58-16.23,8.77-35.29,14.69-43,11.17-14.62,18-61,18-61L612,426.43s8.59-8.6,13.75-8.6S641.18,414.39,641.18,414.39Z"/><path class="cls-6" d="M698.78,428.15l4.53,3.08s3.2,55.38.62,58.82-20.51,1.76-21.86-1.27S698.78,428.15,698.78,428.15Z"/><path class="cls-8" d="M622.11,478.49c2.52,17.46,4.72,33-8.14,47.06a241.35,241.35,0,0,1-43.45,37.63c-1.58,4.18-24.74,34.88-25.92,22.64s6.82-21.85,18.2-32.2,27.29-32.83,36.27-45.16,5.28-20,5-30.31S618.58,478.62,622.11,478.49Z"/><path class="cls-6" d="M612.81,770.13s-.86,9.63-3.44,12.21-9.46,6-8.6,15.47,6.45,9.89,6.45,9.89l-.43-2.15,2.58.86.43,1.29h24.07s.43-9-.43-13.32-.86-24.93-3.44-24.08-9.46,1.72-11.18,5.16S612,777.7,612.81,770.13Z"/><path class="cls-6" d="M700.5,770.13s.86,9.63,3.43,12.21,9.46,6,8.6,15.47-6.45,9.89-6.45,9.89l.43-2.15-2.58.86-.43,1.29H679.43s-.43-9,.43-13.32.86-24.93,3.44-24.08,9.46,1.72,11.18,5.16S701.36,777.7,700.5,770.13Z"/><path class="cls-6" d="M624,423.85l-12,2.58s0,18.91-3.44,26.65-9.46,25.79-6.88,26.65,26.65,12.89,28.37,6S636,423.85,624,423.85Z"/><circle class="cls-6" cx="698.06" cy="321.89" r="31.64"/><path class="cls-6" d="M725.35,348.09a31.64,31.64,0,0,1-48.86-16.61,31.64,31.64,0,1,0,61.72-13A31.65,31.65,0,0,1,725.35,348.09Z"/><circle class="cls-6" cx="672.22" cy="368.82" r="23.2"/><ellipse class="cls-6" cx="652.71" cy="360.12" rx="20.56" ry="16.08"/><ellipse class="cls-9" cx="647.23" cy="376.6" rx="3.9" ry="6.9"/><polygon class="cls-10" points="475.93 531.18 257.56 532.71 263.58 568.64 485.08 567.09 475.93 531.18"/><polygon class="cls-11" points="465.77 469.88 238.18 469.88 244.27 505.85 474.86 505.85 465.77 469.88"/><polygon class="cls-10" points="445.77 409.73 226.22 409.73 231.94 445.69 454.61 445.69 445.77 409.73"/></svg>