<svg id="레이어_1" data-name="레이어 1" xmlns="http://www.w3.org/2000/svg" viewBox="0 0 300 300"><defs><style>.cls-1{fill:#fff;}.cls-2{fill:#4285f4;}.cls-3{fill:#34a853;}.cls-4{fill:#fbbc05;}.cls-5{fill:#ea4335;}.cls-6{fill:none;}</style></defs><title>무제-1</title><g id="Google-Button"><g id="btn_google_light_normal" data-name="btn google light normal"><g id="button"><g id="button-bg"><rect id="path-2" class="cls-1" width="300" height="300" rx="15" ry="15"/></g></g><g id="logo_googleg_48dp" data-name="logo googleg 48dp"><path id="Shape" class="cls-2" d="M214.8,151.53a77.34,77.34,0,0,0-1.23-13.8H150v26.11h36.33a31.06,31.06,0,0,1-13.47,20.37v16.94h21.81c12.77-11.75,20.13-29.06,20.13-49.62Z"/><path id="Shape-2" data-name="Shape" class="cls-3" d="M150,217.5c18.23,0,33.5-6,44.67-16.35l-21.81-16.94c-6.05,4-13.78,6.44-22.86,6.44-17.58,0-32.46-11.87-37.77-27.82H89.68v17.48A67.48,67.48,0,0,0,150,217.5Z"/><path id="Shape-3" data-name="Shape" class="cls-4" d="M112.23,162.83a39.88,39.88,0,0,1,0-25.66V119.69H89.68a67.57,67.57,0,0,0,0,60.62l22.55-17.48Z"/><path id="Shape-4" data-name="Shape" class="cls-5" d="M150,109.35a36.44,36.44,0,0,1,25.8,10.09l19.36-19.36A64.88,64.88,0,0,0,150,82.5a67.48,67.48,0,0,0-60.32,37.19l22.55,17.48c5.31-15.95,20.19-27.82,37.77-27.82Z"/><path id="Shape-5" data-name="Shape" class="cls-6" d="M82.5,82.5h135v135H82.5Z"/></g></g></g></svg>